G75*
G70*
%OFA0B0*%
%FSLAX24Y24*%
%IPPOS*%
%LPD*%
%AMOC8*
5,1,8,0,0,1.08239X$1,22.5*
%
%ADD10C,0.0000*%
%ADD11R,0.2028X0.1240*%
%ADD12R,0.0276X0.0098*%
%ADD13R,0.0098X0.0276*%
%ADD14R,0.0472X0.0472*%
%ADD15R,0.0630X0.0787*%
%ADD16R,0.0472X0.0472*%
%ADD17R,0.0571X0.0157*%
%ADD18R,0.2362X0.0866*%
%ADD19R,0.0709X0.0945*%
%ADD20C,0.0004*%
%ADD21R,0.0630X0.0591*%
%ADD22C,0.0740*%
%ADD23R,0.0906X0.0374*%
%ADD24R,0.0748X0.1280*%
%ADD25R,0.0945X0.0709*%
%ADD26C,0.0945*%
%ADD27R,0.0356X0.0356*%
%ADD28C,0.0063*%
%ADD29C,0.0356*%
%ADD30C,0.0100*%
%ADD31C,0.0277*%
%ADD32C,0.0240*%
%ADD33C,0.0079*%
%ADD34C,0.0160*%
%ADD35C,0.0120*%
%ADD36C,0.0500*%
%ADD37C,0.0039*%
%ADD38C,0.0700*%
%ADD39C,0.0760*%
%ADD40C,0.0860*%
%ADD41C,0.0660*%
D10*
X001952Y001385D02*
X001952Y030747D01*
X001954Y030769D01*
X001959Y030791D01*
X001967Y030811D01*
X001979Y030830D01*
X001994Y030847D01*
X002011Y030862D01*
X002030Y030874D01*
X002050Y030882D01*
X002072Y030887D01*
X002094Y030889D01*
X009960Y030889D01*
X009982Y030887D01*
X010004Y030882D01*
X010024Y030874D01*
X010043Y030862D01*
X010060Y030848D01*
X010074Y030831D01*
X010086Y030812D01*
X010095Y030792D01*
X010094Y030792D02*
X010456Y029708D01*
X013093Y029708D01*
X013413Y030773D01*
X013421Y030794D01*
X013432Y030814D01*
X013446Y030833D01*
X013462Y030849D01*
X013481Y030863D01*
X013501Y030873D01*
X013523Y030881D01*
X013545Y030886D01*
X013568Y030888D01*
X013568Y030889D02*
X021474Y030889D01*
X021474Y030888D02*
X021497Y030886D01*
X021520Y030881D01*
X021541Y030873D01*
X021562Y030862D01*
X021580Y030848D01*
X021596Y030832D01*
X021610Y030814D01*
X021621Y030793D01*
X021629Y030772D01*
X021634Y030749D01*
X021636Y030726D01*
X021637Y030726D02*
X021637Y001405D01*
X021636Y001405D02*
X021634Y001382D01*
X021629Y001359D01*
X021621Y001338D01*
X021610Y001317D01*
X021596Y001299D01*
X021580Y001283D01*
X021562Y001269D01*
X021541Y001258D01*
X021520Y001250D01*
X021497Y001245D01*
X021474Y001243D01*
X002094Y001243D01*
X002072Y001245D01*
X002050Y001250D01*
X002030Y001258D01*
X002011Y001270D01*
X001994Y001285D01*
X001979Y001302D01*
X001967Y001321D01*
X001959Y001341D01*
X001954Y001363D01*
X001952Y001385D01*
D11*
X011794Y010377D03*
D12*
X010456Y010377D03*
X010456Y010574D03*
X010456Y010771D03*
X010456Y010967D03*
X010456Y010180D03*
X010456Y009983D03*
X010456Y009786D03*
X013133Y009786D03*
X013133Y009983D03*
X013133Y010180D03*
X013133Y010377D03*
X013133Y010574D03*
X013133Y010771D03*
X013133Y010967D03*
D13*
X012877Y011322D03*
X012680Y011322D03*
X012483Y011322D03*
X012286Y011322D03*
X012089Y011322D03*
X011893Y011322D03*
X011696Y011322D03*
X011499Y011322D03*
X011302Y011322D03*
X011105Y011322D03*
X010908Y011322D03*
X010711Y011322D03*
X010711Y009432D03*
X010908Y009432D03*
X011105Y009432D03*
X011302Y009432D03*
X011499Y009432D03*
X011696Y009432D03*
X011893Y009432D03*
X012089Y009432D03*
X012286Y009432D03*
X012483Y009432D03*
X012680Y009432D03*
X012877Y009432D03*
D14*
X012192Y007605D03*
X011530Y007601D03*
X011530Y006814D03*
X012192Y006818D03*
X010219Y005180D03*
X010219Y004393D03*
X014462Y008320D03*
X014632Y009063D03*
X015249Y008320D03*
X015420Y009063D03*
X017621Y006282D03*
X018408Y006282D03*
X019393Y006282D03*
X020180Y006282D03*
X020101Y003841D03*
X019314Y003841D03*
X018408Y003841D03*
X017621Y003841D03*
X016046Y013960D03*
X015259Y013960D03*
X012385Y015101D03*
X012385Y015889D03*
X011203Y015888D03*
X011203Y015101D03*
X008330Y013960D03*
X007542Y013960D03*
D15*
X009785Y013920D03*
X009785Y012306D03*
G36*
X008881Y010627D02*
X009286Y011109D01*
X009887Y010605D01*
X009482Y010123D01*
X008881Y010627D01*
G37*
G36*
X007970Y009541D02*
X008375Y010023D01*
X008976Y009519D01*
X008571Y009037D01*
X007970Y009541D01*
G37*
X011165Y012739D03*
X011165Y014353D03*
X012424Y014353D03*
X012424Y012739D03*
X013802Y012306D03*
X013802Y013920D03*
D16*
G36*
X009621Y007943D02*
X009318Y007582D01*
X008957Y007885D01*
X009260Y008246D01*
X009621Y007943D01*
G37*
G36*
X008677Y008762D02*
X008980Y009123D01*
X009341Y008820D01*
X009038Y008459D01*
X008677Y008762D01*
G37*
G36*
X008171Y008159D02*
X008474Y008520D01*
X008835Y008217D01*
X008532Y007856D01*
X008171Y008159D01*
G37*
G36*
X009115Y007340D02*
X008812Y006979D01*
X008451Y007282D01*
X008754Y007643D01*
X009115Y007340D01*
G37*
D17*
X010928Y005121D03*
X010928Y004865D03*
X010928Y004609D03*
X010928Y004353D03*
X010928Y004097D03*
X010928Y003841D03*
X010928Y003586D03*
X013369Y003586D03*
X013369Y003841D03*
X013369Y004097D03*
X013369Y004353D03*
X013369Y004609D03*
X013369Y004865D03*
X013369Y005121D03*
D18*
G36*
X014907Y012037D02*
X016424Y010228D01*
X015761Y009671D01*
X014244Y011480D01*
X014907Y012037D01*
G37*
X014550Y014865D03*
X014550Y017542D03*
G36*
X016958Y013758D02*
X018475Y011949D01*
X017812Y011392D01*
X016295Y013201D01*
X016958Y013758D01*
G37*
X008999Y014866D03*
X008999Y017543D03*
G36*
X005073Y011911D02*
X006590Y013720D01*
X007253Y013163D01*
X005736Y011354D01*
X005073Y011911D01*
G37*
G36*
X007124Y010190D02*
X008641Y011999D01*
X009304Y011442D01*
X007787Y009633D01*
X007124Y010190D01*
G37*
D19*
G36*
X006878Y009600D02*
X007420Y009145D01*
X006814Y008422D01*
X006272Y008877D01*
X006878Y009600D01*
G37*
G36*
X005974Y010359D02*
X006516Y009904D01*
X005910Y009181D01*
X005368Y009636D01*
X005974Y010359D01*
G37*
G36*
X006453Y014009D02*
X005998Y013467D01*
X005275Y014073D01*
X005730Y014615D01*
X006453Y014009D01*
G37*
G36*
X007212Y014914D02*
X006757Y014372D01*
X006034Y014978D01*
X006489Y015520D01*
X007212Y014914D01*
G37*
X006046Y005771D03*
X004865Y005771D03*
G36*
X017344Y008850D02*
X016802Y008395D01*
X016196Y009118D01*
X016738Y009573D01*
X017344Y008850D01*
G37*
G36*
X018249Y009609D02*
X017707Y009154D01*
X017101Y009877D01*
X017643Y010332D01*
X018249Y009609D01*
G37*
G36*
X017845Y014628D02*
X018300Y014086D01*
X017577Y013480D01*
X017122Y014022D01*
X017845Y014628D01*
G37*
G36*
X017086Y015533D02*
X017541Y014991D01*
X016818Y014385D01*
X016363Y014927D01*
X017086Y015533D01*
G37*
X018920Y028408D03*
X018527Y029668D03*
X019708Y029668D03*
X020101Y028408D03*
X005061Y029627D03*
X004669Y028370D03*
X003880Y029627D03*
X003488Y028370D03*
D20*
X006030Y027235D02*
X005755Y023928D01*
X006030Y020621D01*
X007408Y019912D01*
X008353Y021526D01*
X011424Y019755D01*
X010479Y018101D01*
X011778Y017432D01*
X013117Y018101D01*
X012172Y019755D01*
X015164Y021487D01*
X016109Y019834D01*
X017526Y020621D01*
X017763Y023928D01*
X017487Y027235D01*
X016109Y028023D01*
X015164Y026369D01*
X012172Y028101D01*
X013117Y029755D01*
X011778Y030503D01*
X010440Y029715D01*
X011385Y028062D01*
X008393Y026330D01*
X007408Y028023D01*
X006030Y027235D01*
D21*
X018054Y007582D03*
X018054Y005141D03*
X019747Y005141D03*
X019826Y007582D03*
D22*
X012314Y002650D03*
X011314Y002750D03*
X010314Y002650D03*
X009314Y002750D03*
X003634Y003920D03*
X003734Y004920D03*
X003634Y005920D03*
X003734Y006920D03*
X003634Y007920D03*
X003734Y008920D03*
D23*
X006282Y004944D03*
X006282Y004038D03*
X006282Y003133D03*
D24*
X008487Y004038D03*
D25*
X005023Y004196D03*
X005023Y003015D03*
D26*
X015771Y002463D03*
X015771Y003723D03*
D27*
X012566Y010011D03*
X012172Y010011D03*
X012211Y010404D03*
X011818Y010404D03*
X011778Y010011D03*
X011385Y010011D03*
X010991Y010011D03*
X011030Y010404D03*
X011424Y010404D03*
X011385Y010798D03*
X011778Y010798D03*
X012172Y010798D03*
X012566Y010798D03*
X012605Y010404D03*
X012841Y011192D03*
X013274Y011310D03*
X013708Y011389D03*
X010991Y010798D03*
X010755Y011192D03*
X010322Y011310D03*
X009889Y011389D03*
D28*
X009770Y011574D02*
X010511Y011574D01*
X010680Y011512D02*
X009674Y011512D01*
X009629Y011479D02*
X009730Y011554D01*
X009843Y011611D01*
X009963Y011648D01*
X010088Y011665D01*
X010214Y011661D01*
X010337Y011637D01*
X010771Y011479D01*
X010920Y011424D01*
X010896Y011335D01*
X010858Y011250D01*
X010806Y011173D01*
X010743Y011105D01*
X010670Y011049D01*
X010589Y011004D01*
X010502Y010973D01*
X010410Y010957D01*
X010318Y010956D01*
X010098Y010960D01*
X009881Y010990D01*
X009668Y011046D01*
X009624Y011074D01*
X009586Y011109D01*
X009556Y011152D01*
X009536Y011200D01*
X009526Y011252D01*
X009527Y011304D01*
X009538Y011355D01*
X009559Y011402D01*
X009590Y011444D01*
X009629Y011479D01*
X009597Y011451D02*
X010848Y011451D01*
X010920Y011424D02*
X010920Y011183D01*
X010924Y011151D01*
X010934Y011120D01*
X010951Y011092D01*
X010974Y011068D01*
X011109Y010956D01*
X010991Y010995D01*
X010991Y010798D01*
X010794Y010798D01*
X010609Y010944D01*
X010601Y010950D01*
X010591Y010954D01*
X010581Y010956D01*
X010318Y010956D01*
X010318Y011034D01*
X010664Y011463D01*
X010920Y011424D01*
X010920Y011389D02*
X010604Y011389D01*
X010555Y011328D02*
X010920Y011328D01*
X010893Y011328D02*
X009532Y011328D01*
X009526Y011266D02*
X010865Y011266D01*
X010920Y011266D02*
X010505Y011266D01*
X010455Y011205D02*
X010920Y011205D01*
X010926Y011143D02*
X010406Y011143D01*
X010356Y011082D02*
X010961Y011082D01*
X011032Y011020D02*
X010318Y011020D01*
X010318Y010959D02*
X010991Y010959D01*
X010991Y010897D02*
X010668Y010897D01*
X010746Y010836D02*
X010991Y010836D01*
X011100Y010959D02*
X011105Y010959D01*
X011093Y011223D02*
X011093Y011456D01*
X011076Y011510D01*
X011051Y011560D01*
X011017Y011606D01*
X010975Y011645D01*
X010928Y011676D01*
X010586Y011800D01*
X010234Y011888D01*
X009874Y011939D01*
X009511Y011952D01*
X009511Y012660D01*
X010101Y012660D01*
X010143Y012655D01*
X010183Y012640D01*
X010219Y012617D01*
X010389Y012438D01*
X010576Y012277D01*
X010778Y012137D01*
X010968Y011977D01*
X011136Y011793D01*
X011278Y011589D01*
X011295Y011563D01*
X011307Y011534D01*
X011314Y011503D01*
X011314Y011223D01*
X011093Y011223D01*
X011093Y011266D02*
X011314Y011266D01*
X011314Y011328D02*
X011093Y011328D01*
X011093Y011389D02*
X011314Y011389D01*
X011314Y011451D02*
X011093Y011451D01*
X011075Y011512D02*
X011312Y011512D01*
X011289Y011574D02*
X011041Y011574D01*
X010985Y011635D02*
X011246Y011635D01*
X011203Y011697D02*
X010871Y011697D01*
X010702Y011758D02*
X011160Y011758D01*
X011112Y011820D02*
X010509Y011820D01*
X010342Y011635D02*
X009922Y011635D01*
X009901Y011881D02*
X008591Y011881D01*
X008539Y011820D02*
X009733Y011820D01*
X009758Y011832D02*
X009617Y011761D01*
X009488Y011671D01*
X009373Y011563D01*
X009274Y011440D01*
X007778Y009668D01*
X007149Y010180D01*
X008684Y011991D01*
X009314Y012621D01*
X009350Y012642D01*
X009389Y012656D01*
X009430Y012662D01*
X009471Y012660D01*
X010062Y012660D01*
X010062Y011912D01*
X009907Y011883D01*
X009758Y011832D01*
X009765Y011943D02*
X010999Y011943D01*
X011056Y011881D02*
X010262Y011881D01*
X010062Y011943D02*
X008643Y011943D01*
X008697Y012004D02*
X010062Y012004D01*
X010062Y012066D02*
X008759Y012066D01*
X008820Y012127D02*
X010062Y012127D01*
X010062Y012189D02*
X008882Y012189D01*
X008943Y012250D02*
X010062Y012250D01*
X010062Y012312D02*
X009005Y012312D01*
X009066Y012373D02*
X010062Y012373D01*
X010062Y012435D02*
X009128Y012435D01*
X009189Y012496D02*
X010062Y012496D01*
X010062Y012558D02*
X009251Y012558D01*
X009312Y012619D02*
X010062Y012619D01*
X010216Y012619D02*
X009511Y012619D01*
X009511Y012558D02*
X010276Y012558D01*
X010334Y012496D02*
X009511Y012496D01*
X009511Y012435D02*
X010393Y012435D01*
X010465Y012373D02*
X009511Y012373D01*
X009511Y012312D02*
X010536Y012312D01*
X010615Y012250D02*
X009511Y012250D01*
X009511Y012189D02*
X010704Y012189D01*
X010790Y012127D02*
X009511Y012127D01*
X009511Y012066D02*
X010863Y012066D01*
X010936Y012004D02*
X009511Y012004D01*
X009613Y011758D02*
X008487Y011758D01*
X008434Y011697D02*
X009525Y011697D01*
X009450Y011635D02*
X008382Y011635D01*
X008330Y011574D02*
X009385Y011574D01*
X009333Y011512D02*
X008278Y011512D01*
X008226Y011451D02*
X009283Y011451D01*
X009232Y011389D02*
X008174Y011389D01*
X008122Y011328D02*
X009180Y011328D01*
X009128Y011266D02*
X008069Y011266D01*
X008017Y011205D02*
X009076Y011205D01*
X009024Y011143D02*
X007965Y011143D01*
X007913Y011082D02*
X008972Y011082D01*
X008920Y011020D02*
X007861Y011020D01*
X007809Y010959D02*
X008868Y010959D01*
X008816Y010897D02*
X007757Y010897D01*
X007705Y010836D02*
X008764Y010836D01*
X008712Y010774D02*
X007652Y010774D01*
X007600Y010713D02*
X008661Y010713D01*
X008609Y010651D02*
X007548Y010651D01*
X007496Y010590D02*
X008557Y010590D01*
X008505Y010528D02*
X007444Y010528D01*
X007392Y010467D02*
X008453Y010467D01*
X008401Y010405D02*
X007340Y010405D01*
X007287Y010344D02*
X008349Y010344D01*
X008297Y010282D02*
X007235Y010282D01*
X007183Y010221D02*
X008245Y010221D01*
X008193Y010159D02*
X007174Y010159D01*
X007250Y010098D02*
X008141Y010098D01*
X008089Y010036D02*
X007325Y010036D01*
X007401Y009975D02*
X008037Y009975D01*
X007986Y009913D02*
X007477Y009913D01*
X007552Y009852D02*
X007934Y009852D01*
X007882Y009790D02*
X007628Y009790D01*
X007704Y009729D02*
X007830Y009729D01*
X007305Y009114D02*
X006516Y009114D01*
X006467Y009053D02*
X007378Y009053D01*
X007451Y008991D02*
X006418Y008991D01*
X006369Y008930D02*
X007524Y008930D01*
X007582Y008881D02*
X007631Y008829D01*
X007670Y008769D01*
X007696Y008703D01*
X007709Y008633D01*
X007707Y008561D01*
X006817Y008561D01*
X006894Y008499D02*
X007694Y008499D01*
X007692Y008492D02*
X007663Y008426D01*
X007622Y008368D01*
X007571Y008318D01*
X007511Y008280D01*
X007444Y008254D01*
X007374Y008242D01*
X007302Y008244D01*
X007233Y008259D01*
X007167Y008288D01*
X007109Y008330D01*
X006361Y008920D01*
X006834Y009511D01*
X007582Y008881D01*
X007594Y008868D02*
X006427Y008868D01*
X006505Y008807D02*
X007646Y008807D01*
X007679Y008745D02*
X006583Y008745D01*
X006661Y008684D02*
X007700Y008684D01*
X007708Y008622D02*
X006739Y008622D01*
X006972Y008438D02*
X007668Y008438D01*
X007692Y008492D02*
X007707Y008561D01*
X007628Y008376D02*
X007050Y008376D01*
X007130Y008315D02*
X007565Y008315D01*
X007438Y008253D02*
X007260Y008253D01*
X007232Y009176D02*
X006565Y009176D01*
X006615Y009237D02*
X007159Y009237D01*
X007086Y009298D02*
X006664Y009298D01*
X006713Y009360D02*
X007013Y009360D01*
X006940Y009421D02*
X006762Y009421D01*
X006811Y009483D02*
X006866Y009483D01*
X006460Y009852D02*
X005427Y009852D01*
X005375Y009790D02*
X006404Y009790D01*
X006400Y009786D02*
X005928Y009235D01*
X005337Y009747D01*
X005810Y010298D01*
X007818Y013015D01*
X007922Y013134D01*
X008007Y013268D01*
X008071Y013413D01*
X008114Y013566D01*
X008133Y013723D01*
X008133Y014156D01*
X008920Y014156D01*
X009393Y013566D01*
X008920Y013526D01*
X008881Y013517D01*
X008846Y013500D01*
X008815Y013475D01*
X008790Y013443D01*
X008772Y013408D01*
X008763Y013369D01*
X008403Y012584D01*
X007985Y011829D01*
X007509Y011108D01*
X006980Y010426D01*
X006400Y009786D01*
X006351Y009729D02*
X005358Y009729D01*
X005429Y009667D02*
X006299Y009667D01*
X006246Y009606D02*
X005500Y009606D01*
X005571Y009544D02*
X006193Y009544D01*
X006140Y009483D02*
X005642Y009483D01*
X005713Y009421D02*
X006088Y009421D01*
X006035Y009360D02*
X005784Y009360D01*
X005855Y009298D02*
X005982Y009298D01*
X005930Y009237D02*
X005926Y009237D01*
X005480Y009913D02*
X006516Y009913D01*
X006571Y009975D02*
X005533Y009975D01*
X005586Y010036D02*
X006627Y010036D01*
X006683Y010098D02*
X005638Y010098D01*
X005691Y010159D02*
X006739Y010159D01*
X006794Y010221D02*
X005744Y010221D01*
X005796Y010282D02*
X006850Y010282D01*
X006906Y010344D02*
X005844Y010344D01*
X005889Y010405D02*
X006962Y010405D01*
X007012Y010467D02*
X005935Y010467D01*
X005980Y010528D02*
X007060Y010528D01*
X007107Y010590D02*
X006026Y010590D01*
X006071Y010651D02*
X007155Y010651D01*
X007203Y010713D02*
X006116Y010713D01*
X006162Y010774D02*
X007250Y010774D01*
X007298Y010836D02*
X006207Y010836D01*
X006253Y010897D02*
X007346Y010897D01*
X007393Y010959D02*
X006298Y010959D01*
X006344Y011020D02*
X007441Y011020D01*
X007489Y011082D02*
X006389Y011082D01*
X006435Y011143D02*
X007532Y011143D01*
X007573Y011205D02*
X006480Y011205D01*
X006526Y011266D02*
X007614Y011266D01*
X007654Y011328D02*
X006571Y011328D01*
X006616Y011389D02*
X007695Y011389D01*
X007735Y011451D02*
X006662Y011451D01*
X006707Y011512D02*
X007776Y011512D01*
X007816Y011574D02*
X006753Y011574D01*
X006798Y011635D02*
X007857Y011635D01*
X007897Y011697D02*
X006844Y011697D01*
X006889Y011758D02*
X007938Y011758D01*
X007978Y011820D02*
X006935Y011820D01*
X006980Y011881D02*
X008013Y011881D01*
X008048Y011943D02*
X007025Y011943D01*
X007071Y012004D02*
X008082Y012004D01*
X008116Y012066D02*
X007116Y012066D01*
X007162Y012127D02*
X008150Y012127D01*
X008184Y012189D02*
X007207Y012189D01*
X007253Y012250D02*
X008218Y012250D01*
X008252Y012312D02*
X007298Y012312D01*
X007344Y012373D02*
X008286Y012373D01*
X008320Y012435D02*
X007389Y012435D01*
X007435Y012496D02*
X008354Y012496D01*
X008388Y012558D02*
X007480Y012558D01*
X007525Y012619D02*
X008419Y012619D01*
X008447Y012681D02*
X007571Y012681D01*
X007616Y012742D02*
X008476Y012742D01*
X008504Y012804D02*
X007662Y012804D01*
X007707Y012865D02*
X008532Y012865D01*
X008560Y012927D02*
X007753Y012927D01*
X007798Y012988D02*
X008588Y012988D01*
X008616Y013050D02*
X007848Y013050D01*
X007901Y013111D02*
X008645Y013111D01*
X008673Y013173D02*
X007946Y013173D01*
X007985Y013234D02*
X008701Y013234D01*
X008729Y013295D02*
X008019Y013295D01*
X008046Y013357D02*
X008757Y013357D01*
X008777Y013418D02*
X008073Y013418D01*
X008090Y013480D02*
X008821Y013480D01*
X009100Y013541D02*
X008107Y013541D01*
X008118Y013603D02*
X009363Y013603D01*
X009314Y013664D02*
X008126Y013664D01*
X008133Y013726D02*
X009265Y013726D01*
X009215Y013787D02*
X008133Y013787D01*
X008133Y013849D02*
X009166Y013849D01*
X009117Y013910D02*
X008133Y013910D01*
X008133Y013972D02*
X009068Y013972D01*
X009019Y014033D02*
X008133Y014033D01*
X008133Y014095D02*
X008969Y014095D01*
X007857Y014471D02*
X007857Y015259D01*
X010180Y015259D01*
X010226Y015254D01*
X010270Y015241D01*
X010311Y015219D01*
X010347Y015190D01*
X010376Y015154D01*
X010398Y015113D01*
X010412Y015069D01*
X010416Y015023D01*
X010692Y013988D01*
X010704Y013925D01*
X010728Y013866D01*
X010763Y013813D01*
X010809Y013768D01*
X011479Y013172D01*
X011558Y013054D01*
X010849Y012385D01*
X010456Y013408D01*
X010313Y013934D01*
X010219Y014471D01*
X007857Y014471D01*
X007857Y014525D02*
X010549Y014525D01*
X010565Y014464D02*
X010221Y014464D01*
X010231Y014402D02*
X010581Y014402D01*
X010598Y014341D02*
X010242Y014341D01*
X010253Y014279D02*
X010614Y014279D01*
X010631Y014218D02*
X010264Y014218D01*
X010274Y014156D02*
X010647Y014156D01*
X010663Y014095D02*
X010285Y014095D01*
X010296Y014033D02*
X010680Y014033D01*
X010695Y013972D02*
X010307Y013972D01*
X010320Y013910D02*
X010709Y013910D01*
X010739Y013849D02*
X010336Y013849D01*
X010353Y013787D02*
X010789Y013787D01*
X010856Y013726D02*
X010370Y013726D01*
X010386Y013664D02*
X010925Y013664D01*
X010994Y013603D02*
X010403Y013603D01*
X010420Y013541D02*
X011064Y013541D01*
X011133Y013480D02*
X010436Y013480D01*
X010453Y013418D02*
X011202Y013418D01*
X011271Y013357D02*
X010475Y013357D01*
X010499Y013295D02*
X011340Y013295D01*
X011410Y013234D02*
X010523Y013234D01*
X010546Y013173D02*
X011479Y013173D01*
X011520Y013111D02*
X010570Y013111D01*
X010594Y013050D02*
X011553Y013050D01*
X011576Y013069D02*
X011610Y013043D01*
X011638Y013011D01*
X011657Y012973D01*
X011668Y012931D01*
X011668Y012889D01*
X011708Y011223D01*
X011487Y011223D01*
X011487Y011460D01*
X011484Y011506D01*
X011471Y011550D01*
X011392Y011733D01*
X011292Y011906D01*
X011174Y012067D01*
X011039Y012214D01*
X010889Y012345D01*
X010889Y013093D01*
X011495Y013093D01*
X011537Y013086D01*
X011576Y013069D01*
X011602Y013050D02*
X010889Y013050D01*
X010889Y012988D02*
X011650Y012988D01*
X011668Y012927D02*
X010889Y012927D01*
X010889Y012865D02*
X011669Y012865D01*
X011670Y012804D02*
X010889Y012804D01*
X010889Y012742D02*
X011672Y012742D01*
X011673Y012681D02*
X010889Y012681D01*
X010889Y012619D02*
X011675Y012619D01*
X011676Y012558D02*
X010889Y012558D01*
X010889Y012496D02*
X011677Y012496D01*
X011679Y012435D02*
X010889Y012435D01*
X010902Y012435D02*
X010830Y012435D01*
X010806Y012496D02*
X010967Y012496D01*
X011032Y012558D02*
X010783Y012558D01*
X010759Y012619D02*
X011097Y012619D01*
X011163Y012681D02*
X010736Y012681D01*
X010712Y012742D02*
X011228Y012742D01*
X011293Y012804D02*
X010688Y012804D01*
X010665Y012865D02*
X011358Y012865D01*
X011423Y012927D02*
X010641Y012927D01*
X010617Y012988D02*
X011488Y012988D01*
X011680Y012373D02*
X010889Y012373D01*
X010927Y012312D02*
X011682Y012312D01*
X011683Y012250D02*
X010998Y012250D01*
X011063Y012189D02*
X011685Y012189D01*
X011686Y012127D02*
X011120Y012127D01*
X011176Y012066D02*
X011688Y012066D01*
X011689Y012004D02*
X011221Y012004D01*
X011266Y011943D02*
X011691Y011943D01*
X011692Y011881D02*
X011307Y011881D01*
X011342Y011820D02*
X011693Y011820D01*
X011695Y011758D02*
X011378Y011758D01*
X011408Y011697D02*
X011696Y011697D01*
X011698Y011635D02*
X011434Y011635D01*
X011461Y011574D02*
X011699Y011574D01*
X011701Y011512D02*
X011482Y011512D01*
X011487Y011451D02*
X011702Y011451D01*
X011704Y011389D02*
X011487Y011389D01*
X011487Y011328D02*
X011705Y011328D01*
X011707Y011266D02*
X011487Y011266D01*
X011881Y011266D02*
X012101Y011266D01*
X012101Y011223D02*
X011881Y011223D01*
X011881Y012889D01*
X011886Y012935D01*
X011902Y012980D01*
X011928Y013019D01*
X011961Y013052D01*
X012002Y013076D01*
X012047Y013090D01*
X012093Y013093D01*
X012700Y013093D01*
X012700Y012345D01*
X012697Y012323D01*
X012689Y012301D01*
X012677Y012282D01*
X012660Y012267D01*
X012490Y012127D01*
X011881Y012127D01*
X011881Y012066D02*
X012433Y012066D01*
X012376Y012004D02*
X011881Y012004D01*
X011881Y011943D02*
X012325Y011943D01*
X012341Y011966D02*
X012216Y011786D01*
X012117Y011589D01*
X012103Y011525D01*
X012101Y011460D01*
X012101Y011223D01*
X012101Y011328D02*
X011881Y011328D01*
X011881Y011389D02*
X012101Y011389D01*
X012101Y011451D02*
X011881Y011451D01*
X011881Y011512D02*
X012102Y011512D01*
X012113Y011574D02*
X011881Y011574D01*
X011881Y011635D02*
X012140Y011635D01*
X012171Y011697D02*
X011881Y011697D01*
X011881Y011758D02*
X012202Y011758D01*
X012240Y011820D02*
X011881Y011820D01*
X011881Y011881D02*
X012282Y011881D01*
X012341Y011966D02*
X012490Y012127D01*
X012565Y012189D02*
X011881Y012189D01*
X011881Y012250D02*
X012640Y012250D01*
X012693Y012312D02*
X011881Y012312D01*
X011881Y012373D02*
X012700Y012373D01*
X012700Y012385D02*
X012030Y013054D01*
X012030Y013093D01*
X012779Y013768D01*
X012825Y013813D01*
X012861Y013866D01*
X012885Y013925D01*
X012897Y013988D01*
X013172Y015062D01*
X013180Y015104D01*
X013196Y015143D01*
X013220Y015179D01*
X013249Y015209D01*
X013285Y015233D01*
X013324Y015250D01*
X013366Y015258D01*
X013408Y015259D01*
X015731Y015259D01*
X015731Y014471D01*
X013369Y014471D01*
X013275Y013934D01*
X013133Y013408D01*
X012700Y012385D01*
X012700Y012435D02*
X011881Y012435D01*
X011881Y012496D02*
X012700Y012496D01*
X012747Y012496D02*
X012588Y012496D01*
X012527Y012558D02*
X012773Y012558D01*
X012799Y012619D02*
X012465Y012619D01*
X012404Y012681D02*
X012825Y012681D01*
X012851Y012742D02*
X012342Y012742D01*
X012281Y012804D02*
X012877Y012804D01*
X012903Y012865D02*
X012219Y012865D01*
X012158Y012927D02*
X012929Y012927D01*
X012955Y012988D02*
X012096Y012988D01*
X012035Y013050D02*
X012981Y013050D01*
X013007Y013111D02*
X012050Y013111D01*
X012118Y013173D02*
X013033Y013173D01*
X013059Y013234D02*
X012187Y013234D01*
X012255Y013295D02*
X013085Y013295D01*
X013111Y013357D02*
X012323Y013357D01*
X012391Y013418D02*
X013136Y013418D01*
X013152Y013480D02*
X012460Y013480D01*
X012528Y013541D02*
X013169Y013541D01*
X013185Y013603D02*
X012596Y013603D01*
X012665Y013664D02*
X013202Y013664D01*
X013219Y013726D02*
X012733Y013726D01*
X012799Y013787D02*
X013235Y013787D01*
X013252Y013849D02*
X012849Y013849D01*
X012879Y013910D02*
X013269Y013910D01*
X013282Y013972D02*
X012894Y013972D01*
X012908Y014033D02*
X013293Y014033D01*
X013303Y014095D02*
X012924Y014095D01*
X012940Y014156D02*
X013314Y014156D01*
X013325Y014218D02*
X012956Y014218D01*
X012971Y014279D02*
X013335Y014279D01*
X013346Y014341D02*
X012987Y014341D01*
X013003Y014402D02*
X013357Y014402D01*
X013368Y014464D02*
X013019Y014464D01*
X013034Y014525D02*
X015731Y014525D01*
X015731Y014587D02*
X013050Y014587D01*
X013066Y014648D02*
X015731Y014648D01*
X015731Y014710D02*
X013082Y014710D01*
X013098Y014771D02*
X015731Y014771D01*
X015731Y014833D02*
X013113Y014833D01*
X013129Y014894D02*
X015731Y014894D01*
X015731Y014956D02*
X013145Y014956D01*
X013161Y015017D02*
X015731Y015017D01*
X015731Y015079D02*
X013175Y015079D01*
X013195Y015140D02*
X015731Y015140D01*
X015731Y015202D02*
X013242Y015202D01*
X013117Y015325D02*
X012518Y015325D01*
X012540Y015330D02*
X012630Y015369D01*
X012713Y015423D01*
X012787Y015489D01*
X012848Y015566D01*
X012897Y015652D01*
X012952Y015769D01*
X013023Y015878D01*
X013108Y015975D01*
X013206Y016060D01*
X013315Y016130D01*
X013432Y016185D01*
X013556Y016223D01*
X013684Y016243D01*
X016125Y016243D01*
X016210Y016236D01*
X016293Y016215D01*
X016372Y016180D01*
X016443Y016133D01*
X016506Y016075D01*
X016558Y016007D01*
X016952Y015534D01*
X017463Y014904D01*
X016912Y014432D01*
X016322Y015023D01*
X016175Y015209D01*
X016007Y015377D01*
X015973Y015411D01*
X015933Y015437D01*
X015889Y015456D01*
X013408Y015456D01*
X013325Y015442D01*
X013246Y015414D01*
X013173Y015372D01*
X013109Y015318D01*
X013056Y015253D01*
X013015Y015180D01*
X012865Y014957D01*
X012700Y014747D01*
X012700Y013999D01*
X012149Y013999D01*
X012149Y015298D01*
X012345Y015298D01*
X012444Y015306D01*
X012540Y015330D01*
X012657Y015386D02*
X013198Y015386D01*
X013360Y015448D02*
X012741Y015448D01*
X012803Y015509D02*
X016972Y015509D01*
X017022Y015448D02*
X015907Y015448D01*
X015997Y015386D02*
X017072Y015386D01*
X017122Y015325D02*
X016059Y015325D01*
X016121Y015263D02*
X017172Y015263D01*
X017222Y015202D02*
X016181Y015202D01*
X016229Y015140D02*
X017272Y015140D01*
X017322Y015079D02*
X016278Y015079D01*
X016327Y015017D02*
X017372Y015017D01*
X017422Y014956D02*
X016388Y014956D01*
X016450Y014894D02*
X017452Y014894D01*
X017435Y014956D02*
X016498Y014956D01*
X016479Y014983D02*
X016408Y015077D01*
X016353Y015180D01*
X016313Y015290D01*
X016291Y015405D01*
X016286Y015523D01*
X016300Y015639D01*
X016330Y015752D01*
X016378Y015859D01*
X016441Y015958D01*
X016519Y016046D01*
X016579Y016094D01*
X016646Y016131D01*
X016719Y016155D01*
X016795Y016166D01*
X016872Y016164D01*
X016947Y016148D01*
X017018Y016120D01*
X017083Y016079D01*
X017141Y016028D01*
X017188Y015967D01*
X017503Y015495D01*
X017533Y015420D01*
X017551Y015341D01*
X017555Y015260D01*
X017546Y015179D01*
X017523Y015101D01*
X017488Y015028D01*
X017442Y014962D01*
X017385Y014904D01*
X016834Y014432D01*
X016664Y014713D01*
X016479Y014983D01*
X016453Y015017D02*
X017480Y015017D01*
X017512Y015079D02*
X016407Y015079D01*
X016374Y015140D02*
X017534Y015140D01*
X017548Y015202D02*
X016345Y015202D01*
X016323Y015263D02*
X017555Y015263D01*
X017552Y015325D02*
X016307Y015325D01*
X016295Y015386D02*
X017541Y015386D01*
X017522Y015448D02*
X016289Y015448D01*
X016287Y015509D02*
X017493Y015509D01*
X017452Y015571D02*
X016292Y015571D01*
X016299Y015632D02*
X017411Y015632D01*
X017370Y015694D02*
X016314Y015694D01*
X016332Y015755D02*
X017329Y015755D01*
X017288Y015817D02*
X016359Y015817D01*
X016390Y015878D02*
X017247Y015878D01*
X017206Y015940D02*
X016429Y015940D01*
X016479Y016001D02*
X017161Y016001D01*
X017102Y016063D02*
X016539Y016063D01*
X016515Y016063D02*
X013211Y016063D01*
X013138Y016001D02*
X016563Y016001D01*
X016614Y015940D02*
X013077Y015940D01*
X013023Y015878D02*
X016665Y015878D01*
X016716Y015817D02*
X012983Y015817D01*
X012945Y015755D02*
X016768Y015755D01*
X016819Y015694D02*
X012916Y015694D01*
X012885Y015632D02*
X016870Y015632D01*
X016921Y015571D02*
X012851Y015571D01*
X012727Y015743D02*
X012696Y015718D01*
X012660Y015701D01*
X012621Y015692D01*
X012188Y015692D01*
X012188Y016204D01*
X012194Y016233D01*
X012208Y016260D01*
X012227Y016282D01*
X012589Y016785D01*
X012918Y017311D01*
X013211Y017857D01*
X013239Y017897D01*
X013274Y017930D01*
X013315Y017955D01*
X013360Y017970D01*
X013408Y017975D01*
X015731Y017975D01*
X015732Y018019D01*
X015723Y018062D01*
X015706Y018103D01*
X015682Y018140D01*
X015651Y018171D01*
X015614Y018195D01*
X015574Y018211D01*
X015227Y018296D01*
X014892Y018418D01*
X014573Y018578D01*
X014274Y018772D01*
X013999Y018999D01*
X013290Y020219D01*
X012582Y019826D01*
X013290Y018605D01*
X013336Y018508D01*
X013365Y018405D01*
X013377Y018299D01*
X013371Y018192D01*
X013348Y018087D01*
X013307Y017988D01*
X013251Y017897D01*
X014314Y017109D01*
X015731Y017109D01*
X015731Y017975D01*
X015731Y017109D01*
X014393Y017109D01*
X014173Y017094D01*
X013957Y017050D01*
X013749Y016978D01*
X013552Y016879D01*
X013370Y016756D01*
X013206Y016609D01*
X013062Y016442D01*
X012942Y016257D01*
X012847Y016059D01*
X012778Y015849D01*
X012770Y015810D01*
X012752Y015774D01*
X012727Y015743D01*
X012737Y015755D02*
X012188Y015755D01*
X012188Y015694D02*
X012629Y015694D01*
X012771Y015817D02*
X012188Y015817D01*
X012188Y015878D02*
X012788Y015878D01*
X012808Y015940D02*
X012188Y015940D01*
X012188Y016001D02*
X012828Y016001D01*
X012848Y016063D02*
X012188Y016063D01*
X012188Y016124D02*
X012878Y016124D01*
X012907Y016186D02*
X012188Y016186D01*
X012202Y016247D02*
X012937Y016247D01*
X012975Y016309D02*
X012246Y016309D01*
X012290Y016370D02*
X013015Y016370D01*
X013055Y016432D02*
X012335Y016432D01*
X012379Y016493D02*
X013106Y016493D01*
X013159Y016555D02*
X012423Y016555D01*
X012467Y016616D02*
X013214Y016616D01*
X013283Y016678D02*
X012512Y016678D01*
X012556Y016739D02*
X013351Y016739D01*
X013436Y016801D02*
X012599Y016801D01*
X012637Y016862D02*
X013527Y016862D01*
X013640Y016924D02*
X012676Y016924D01*
X012714Y016985D02*
X013769Y016985D01*
X013947Y017047D02*
X012753Y017047D01*
X012791Y017108D02*
X014377Y017108D01*
X014232Y017170D02*
X015731Y017170D01*
X012829Y017170D01*
X012868Y017231D02*
X015731Y017231D01*
X014149Y017231D01*
X014066Y017293D02*
X015731Y017293D01*
X012906Y017293D01*
X012941Y017354D02*
X015731Y017354D01*
X013983Y017354D01*
X013900Y017415D02*
X015731Y017415D01*
X012974Y017415D01*
X013007Y017477D02*
X015731Y017477D01*
X013817Y017477D01*
X013734Y017538D02*
X015731Y017538D01*
X013040Y017538D01*
X013073Y017600D02*
X015731Y017600D01*
X013651Y017600D01*
X013568Y017661D02*
X015731Y017661D01*
X013106Y017661D01*
X013139Y017723D02*
X015731Y017723D01*
X013485Y017723D01*
X013402Y017784D02*
X015731Y017784D01*
X013172Y017784D01*
X013205Y017846D02*
X015731Y017846D01*
X013319Y017846D01*
X013258Y017907D02*
X015731Y017907D01*
X013250Y017907D01*
X013296Y017969D02*
X015731Y017969D01*
X013357Y017969D01*
X013325Y018030D02*
X015729Y018030D01*
X015711Y018092D02*
X013349Y018092D01*
X013363Y018153D02*
X015668Y018153D01*
X015560Y018215D02*
X013373Y018215D01*
X013376Y018276D02*
X015306Y018276D01*
X015111Y018338D02*
X013373Y018338D01*
X013366Y018399D02*
X014943Y018399D01*
X014806Y018461D02*
X013350Y018461D01*
X013330Y018522D02*
X014684Y018522D01*
X014563Y018584D02*
X013300Y018584D01*
X013267Y018645D02*
X014469Y018645D01*
X014374Y018707D02*
X013231Y018707D01*
X013196Y018768D02*
X014280Y018768D01*
X014204Y018830D02*
X013160Y018830D01*
X013124Y018891D02*
X014129Y018891D01*
X014055Y018953D02*
X013088Y018953D01*
X013053Y019014D02*
X013990Y019014D01*
X013954Y019076D02*
X013017Y019076D01*
X012981Y019137D02*
X013919Y019137D01*
X013883Y019199D02*
X012946Y019199D01*
X012910Y019260D02*
X013847Y019260D01*
X013811Y019322D02*
X012874Y019322D01*
X012838Y019383D02*
X013776Y019383D01*
X013740Y019445D02*
X012803Y019445D01*
X012767Y019506D02*
X013704Y019506D01*
X013669Y019568D02*
X012731Y019568D01*
X012696Y019629D02*
X013633Y019629D01*
X013597Y019691D02*
X012660Y019691D01*
X012624Y019752D02*
X013561Y019752D01*
X013526Y019814D02*
X012589Y019814D01*
X012671Y019875D02*
X013490Y019875D01*
X013454Y019937D02*
X012781Y019937D01*
X012892Y019998D02*
X013419Y019998D01*
X013383Y020060D02*
X013003Y020060D01*
X013113Y020121D02*
X013347Y020121D01*
X013312Y020183D02*
X013224Y020183D01*
X014274Y020771D02*
X014983Y021204D01*
X015652Y020023D01*
X019038Y014589D01*
X019159Y014355D01*
X019249Y014106D01*
X019306Y013849D01*
X018758Y013849D01*
X018763Y013841D02*
X017387Y016053D01*
X015928Y018211D01*
X015417Y018887D01*
X014944Y019589D01*
X014274Y020771D01*
X014294Y020736D02*
X015248Y020736D01*
X015283Y020675D02*
X014329Y020675D01*
X014364Y020613D02*
X015318Y020613D01*
X015353Y020552D02*
X014399Y020552D01*
X014433Y020490D02*
X015387Y020490D01*
X015422Y020429D02*
X014468Y020429D01*
X014503Y020367D02*
X015457Y020367D01*
X015492Y020306D02*
X014538Y020306D01*
X014573Y020244D02*
X015527Y020244D01*
X015562Y020183D02*
X014608Y020183D01*
X014642Y020121D02*
X015597Y020121D01*
X015631Y020060D02*
X014677Y020060D01*
X014712Y019998D02*
X015668Y019998D01*
X015706Y019937D02*
X014747Y019937D01*
X014782Y019875D02*
X015744Y019875D01*
X015783Y019814D02*
X014817Y019814D01*
X014852Y019752D02*
X015821Y019752D01*
X015859Y019691D02*
X014886Y019691D01*
X014921Y019629D02*
X015898Y019629D01*
X015936Y019568D02*
X014958Y019568D01*
X015000Y019506D02*
X015974Y019506D01*
X016013Y019445D02*
X015041Y019445D01*
X015082Y019383D02*
X016051Y019383D01*
X016089Y019322D02*
X015124Y019322D01*
X015165Y019260D02*
X016127Y019260D01*
X016166Y019199D02*
X015207Y019199D01*
X015248Y019137D02*
X016204Y019137D01*
X016242Y019076D02*
X015289Y019076D01*
X015331Y019014D02*
X016281Y019014D01*
X016319Y018953D02*
X015372Y018953D01*
X015413Y018891D02*
X016357Y018891D01*
X016396Y018830D02*
X015460Y018830D01*
X015506Y018768D02*
X016434Y018768D01*
X016472Y018707D02*
X015553Y018707D01*
X015599Y018645D02*
X016511Y018645D01*
X016549Y018584D02*
X015646Y018584D01*
X015693Y018522D02*
X016587Y018522D01*
X016626Y018461D02*
X015739Y018461D01*
X015786Y018399D02*
X016664Y018399D01*
X016702Y018338D02*
X015832Y018338D01*
X015879Y018276D02*
X016741Y018276D01*
X016779Y018215D02*
X015925Y018215D01*
X015967Y018153D02*
X016817Y018153D01*
X016856Y018092D02*
X016009Y018092D01*
X016050Y018030D02*
X016894Y018030D01*
X016932Y017969D02*
X016092Y017969D01*
X016134Y017907D02*
X016971Y017907D01*
X017009Y017846D02*
X016175Y017846D01*
X016217Y017784D02*
X017047Y017784D01*
X017086Y017723D02*
X016258Y017723D01*
X016300Y017661D02*
X017124Y017661D01*
X017162Y017600D02*
X016341Y017600D01*
X016383Y017538D02*
X017200Y017538D01*
X017239Y017477D02*
X016425Y017477D01*
X016466Y017415D02*
X017277Y017415D01*
X017315Y017354D02*
X016508Y017354D01*
X016549Y017293D02*
X017354Y017293D01*
X017392Y017231D02*
X016591Y017231D01*
X016632Y017170D02*
X017430Y017170D01*
X017469Y017108D02*
X016674Y017108D01*
X016716Y017047D02*
X017507Y017047D01*
X017545Y016985D02*
X016757Y016985D01*
X016799Y016924D02*
X017584Y016924D01*
X017622Y016862D02*
X016840Y016862D01*
X016882Y016801D02*
X017660Y016801D01*
X017699Y016739D02*
X016923Y016739D01*
X016965Y016678D02*
X017737Y016678D01*
X017775Y016616D02*
X017007Y016616D01*
X017048Y016555D02*
X017814Y016555D01*
X017852Y016493D02*
X017090Y016493D01*
X017131Y016432D02*
X017890Y016432D01*
X017929Y016370D02*
X017173Y016370D01*
X017214Y016309D02*
X017967Y016309D01*
X018005Y016247D02*
X017256Y016247D01*
X017298Y016186D02*
X018044Y016186D01*
X018082Y016124D02*
X017339Y016124D01*
X017381Y016063D02*
X018120Y016063D01*
X018159Y016001D02*
X017419Y016001D01*
X017458Y015940D02*
X018197Y015940D01*
X018235Y015878D02*
X017496Y015878D01*
X017534Y015817D02*
X018273Y015817D01*
X018312Y015755D02*
X017572Y015755D01*
X017611Y015694D02*
X018350Y015694D01*
X018388Y015632D02*
X017649Y015632D01*
X017687Y015571D02*
X018427Y015571D01*
X018465Y015509D02*
X017725Y015509D01*
X017764Y015448D02*
X018503Y015448D01*
X018542Y015386D02*
X017802Y015386D01*
X017840Y015325D02*
X018580Y015325D01*
X018618Y015263D02*
X017878Y015263D01*
X017917Y015202D02*
X018657Y015202D01*
X018695Y015140D02*
X017955Y015140D01*
X017993Y015079D02*
X018733Y015079D01*
X018772Y015017D02*
X018031Y015017D01*
X018070Y014956D02*
X018810Y014956D01*
X018848Y014894D02*
X018108Y014894D01*
X018146Y014833D02*
X018887Y014833D01*
X018925Y014771D02*
X018184Y014771D01*
X018223Y014710D02*
X018963Y014710D01*
X019002Y014648D02*
X018261Y014648D01*
X018299Y014587D02*
X019040Y014587D01*
X019071Y014525D02*
X018337Y014525D01*
X018376Y014464D02*
X019103Y014464D01*
X019134Y014402D02*
X018414Y014402D01*
X018452Y014341D02*
X019164Y014341D01*
X019186Y014279D02*
X018490Y014279D01*
X018529Y014218D02*
X019208Y014218D01*
X019231Y014156D02*
X018567Y014156D01*
X018605Y014095D02*
X019251Y014095D01*
X019265Y014033D02*
X018643Y014033D01*
X018682Y013972D02*
X019279Y013972D01*
X019292Y013910D02*
X018720Y013910D01*
X018763Y013841D02*
X018783Y013724D01*
X018790Y013605D01*
X018783Y013486D01*
X018763Y013369D01*
X018773Y013292D01*
X018769Y013214D01*
X018752Y013138D01*
X018722Y013067D01*
X018680Y013001D01*
X018628Y012944D01*
X018566Y012897D01*
X018412Y012849D01*
X018253Y012826D01*
X018092Y012826D01*
X017932Y012849D01*
X017778Y012897D01*
X017660Y012936D01*
X016873Y012542D01*
X017857Y011322D01*
X018605Y011952D01*
X018795Y012136D01*
X018959Y012342D01*
X019096Y012568D01*
X019203Y012809D01*
X019278Y013062D01*
X019321Y013322D01*
X019330Y013586D01*
X019306Y013849D01*
X019312Y013787D02*
X018772Y013787D01*
X018783Y013726D02*
X019318Y013726D01*
X019323Y013664D02*
X018787Y013664D01*
X018790Y013603D02*
X019329Y013603D01*
X019329Y013541D02*
X018786Y013541D01*
X018782Y013480D02*
X019327Y013480D01*
X019325Y013418D02*
X018771Y013418D01*
X018764Y013357D02*
X019322Y013357D01*
X019317Y013295D02*
X018772Y013295D01*
X018770Y013234D02*
X019307Y013234D01*
X019297Y013173D02*
X018760Y013173D01*
X018740Y013111D02*
X019286Y013111D01*
X019275Y013050D02*
X018711Y013050D01*
X018668Y012988D02*
X019256Y012988D01*
X019238Y012927D02*
X018605Y012927D01*
X018463Y012865D02*
X019220Y012865D01*
X019200Y012804D02*
X017396Y012804D01*
X017519Y012865D02*
X017881Y012865D01*
X017749Y012804D02*
X016667Y012804D01*
X016616Y012865D02*
X017695Y012865D01*
X017688Y012927D02*
X017642Y012927D01*
X016565Y012927D01*
X016514Y012988D02*
X017588Y012988D01*
X017534Y013050D02*
X016463Y013050D01*
X016412Y013111D02*
X017481Y013111D01*
X017427Y013173D02*
X016361Y013173D01*
X016361Y013172D02*
X017897Y011322D01*
X018526Y011912D01*
X016912Y013763D01*
X016765Y013894D01*
X016607Y014013D01*
X016440Y014117D01*
X016390Y014139D01*
X016337Y014152D01*
X016282Y014156D01*
X015849Y014156D01*
X015849Y013723D01*
X015895Y013691D01*
X015935Y013651D01*
X015967Y013605D01*
X016361Y013172D01*
X016305Y013234D02*
X017373Y013234D01*
X017320Y013295D02*
X016249Y013295D01*
X016193Y013357D02*
X017266Y013357D01*
X017213Y013418D02*
X016137Y013418D01*
X016081Y013480D02*
X017159Y013480D01*
X017105Y013541D02*
X016025Y013541D01*
X015969Y013603D02*
X017052Y013603D01*
X016998Y013664D02*
X015921Y013664D01*
X015849Y013726D02*
X016944Y013726D01*
X016885Y013787D02*
X015849Y013787D01*
X015849Y013849D02*
X016816Y013849D01*
X016744Y013910D02*
X015849Y013910D01*
X015849Y013972D02*
X016662Y013972D01*
X016574Y014033D02*
X015849Y014033D01*
X015849Y014095D02*
X016475Y014095D01*
X016814Y014464D02*
X016871Y014464D01*
X016880Y014464D02*
X016949Y014464D01*
X016942Y014525D02*
X016777Y014525D01*
X016819Y014525D02*
X017021Y014525D01*
X017014Y014587D02*
X016740Y014587D01*
X016757Y014587D02*
X017093Y014587D01*
X017086Y014648D02*
X016703Y014648D01*
X016696Y014648D02*
X017165Y014648D01*
X017158Y014710D02*
X016666Y014710D01*
X016634Y014710D02*
X017236Y014710D01*
X017229Y014771D02*
X016624Y014771D01*
X016573Y014771D02*
X017308Y014771D01*
X017301Y014833D02*
X016582Y014833D01*
X016511Y014833D02*
X017380Y014833D01*
X017373Y014894D02*
X016540Y014894D01*
X017272Y014095D02*
X018177Y014095D01*
X018226Y014033D02*
X017259Y014033D01*
X017235Y014063D02*
X017803Y014562D01*
X018256Y013995D01*
X018274Y013969D01*
X018298Y013949D01*
X018327Y013936D01*
X018358Y013929D01*
X018387Y013917D01*
X018414Y013899D01*
X018436Y013876D01*
X018491Y013796D01*
X018533Y013709D01*
X018560Y013615D01*
X018572Y013519D01*
X018568Y013422D01*
X018550Y013327D01*
X018516Y013236D01*
X018468Y013151D01*
X018442Y013120D01*
X018410Y013094D01*
X018373Y013076D01*
X018333Y013065D01*
X018292Y013062D01*
X018077Y013089D01*
X017867Y013144D01*
X017821Y013164D01*
X017781Y013194D01*
X017748Y013231D01*
X017724Y013275D01*
X017710Y013323D01*
X017707Y013372D01*
X017703Y013435D01*
X017689Y013495D01*
X017235Y014063D01*
X017308Y013972D02*
X018272Y013972D01*
X018397Y013910D02*
X017357Y013910D01*
X017406Y013849D02*
X018455Y013849D01*
X018495Y013787D02*
X017455Y013787D01*
X017504Y013726D02*
X018524Y013726D01*
X018546Y013664D02*
X017554Y013664D01*
X017603Y013603D02*
X018561Y013603D01*
X018569Y013541D02*
X017652Y013541D01*
X017692Y013480D02*
X018570Y013480D01*
X018568Y013418D02*
X017704Y013418D01*
X017708Y013357D02*
X018555Y013357D01*
X018538Y013295D02*
X017718Y013295D01*
X017747Y013234D02*
X018515Y013234D01*
X018480Y013173D02*
X017810Y013173D01*
X017992Y013111D02*
X018431Y013111D01*
X017910Y012619D02*
X016820Y012619D01*
X016871Y012558D02*
X017964Y012558D01*
X018017Y012496D02*
X016922Y012496D01*
X016910Y012496D02*
X019052Y012496D01*
X019015Y012435D02*
X016960Y012435D01*
X016973Y012435D02*
X018071Y012435D01*
X018124Y012373D02*
X017024Y012373D01*
X017009Y012373D02*
X018978Y012373D01*
X018935Y012312D02*
X017059Y012312D01*
X017075Y012312D02*
X018178Y012312D01*
X018232Y012250D02*
X017126Y012250D01*
X017108Y012250D02*
X018886Y012250D01*
X018837Y012189D02*
X017158Y012189D01*
X017177Y012189D02*
X018285Y012189D01*
X018339Y012127D02*
X017228Y012127D01*
X017208Y012127D02*
X018786Y012127D01*
X018723Y012066D02*
X017257Y012066D01*
X017279Y012066D02*
X018393Y012066D01*
X018446Y012004D02*
X017330Y012004D01*
X017307Y012004D02*
X018659Y012004D01*
X018595Y011943D02*
X017356Y011943D01*
X017381Y011943D02*
X018500Y011943D01*
X018493Y011881D02*
X017432Y011881D01*
X017406Y011881D02*
X018522Y011881D01*
X018448Y011820D02*
X017456Y011820D01*
X017483Y011820D02*
X018428Y011820D01*
X018375Y011758D02*
X017505Y011758D01*
X017534Y011758D02*
X018362Y011758D01*
X018302Y011697D02*
X017555Y011697D01*
X017585Y011697D02*
X018296Y011697D01*
X018231Y011635D02*
X017636Y011635D01*
X017604Y011635D02*
X018229Y011635D01*
X018165Y011574D02*
X017687Y011574D01*
X017654Y011574D02*
X018156Y011574D01*
X018100Y011512D02*
X017738Y011512D01*
X017704Y011512D02*
X018083Y011512D01*
X018034Y011451D02*
X017789Y011451D01*
X017753Y011451D02*
X018010Y011451D01*
X017969Y011389D02*
X017841Y011389D01*
X017803Y011389D02*
X017937Y011389D01*
X017903Y011328D02*
X017892Y011328D01*
X017864Y011328D02*
X017852Y011328D01*
X017426Y010774D02*
X016351Y010774D01*
X016398Y010713D02*
X017472Y010713D01*
X017517Y010651D02*
X016445Y010651D01*
X016492Y010590D02*
X017563Y010590D01*
X017608Y010528D02*
X016539Y010528D01*
X016586Y010467D02*
X017654Y010467D01*
X017699Y010405D02*
X016635Y010405D01*
X016616Y010427D02*
X016095Y011110D01*
X015627Y011831D01*
X015217Y012585D01*
X014865Y013369D01*
X014850Y013411D01*
X014825Y013449D01*
X014793Y013481D01*
X014755Y013505D01*
X014713Y013521D01*
X014668Y013526D01*
X014196Y013526D01*
X014668Y014156D01*
X015495Y014156D01*
X015495Y013723D01*
X015506Y013568D01*
X015541Y013417D01*
X015597Y013272D01*
X015674Y013137D01*
X015771Y013015D01*
X017778Y010298D01*
X017818Y010377D01*
X017859Y010435D01*
X017911Y010483D01*
X017972Y010520D01*
X018039Y010544D01*
X018110Y010554D01*
X018181Y010550D01*
X018249Y010532D01*
X018313Y010500D01*
X018369Y010456D01*
X018487Y010337D01*
X018526Y010288D01*
X018556Y010233D01*
X018574Y010172D01*
X018580Y010110D01*
X018575Y010047D01*
X018557Y009987D01*
X018529Y009930D01*
X018490Y009881D01*
X018443Y009839D01*
X018389Y009807D01*
X018330Y009786D01*
X018288Y009771D01*
X018251Y009747D01*
X017660Y009274D01*
X017188Y009826D01*
X017778Y010298D01*
X018251Y009747D01*
X017621Y009235D01*
X017188Y009786D01*
X016616Y010427D01*
X016690Y010344D02*
X017745Y010344D01*
X017801Y010344D02*
X018481Y010344D01*
X018529Y010282D02*
X017759Y010282D01*
X017792Y010282D02*
X016745Y010282D01*
X016800Y010221D02*
X017845Y010221D01*
X017897Y010159D02*
X016855Y010159D01*
X016910Y010098D02*
X017950Y010098D01*
X018003Y010036D02*
X016965Y010036D01*
X017020Y009975D02*
X018055Y009975D01*
X018108Y009913D02*
X017074Y009913D01*
X017129Y009852D02*
X018161Y009852D01*
X018214Y009790D02*
X017184Y009790D01*
X017218Y009790D02*
X018341Y009790D01*
X018229Y009729D02*
X017233Y009729D01*
X017271Y009729D02*
X018228Y009729D01*
X018153Y009667D02*
X017281Y009667D01*
X017323Y009667D02*
X018152Y009667D01*
X018077Y009606D02*
X017330Y009606D01*
X017376Y009606D02*
X018075Y009606D01*
X018002Y009544D02*
X017378Y009544D01*
X017429Y009544D02*
X017998Y009544D01*
X017926Y009483D02*
X017426Y009483D01*
X017482Y009483D02*
X017921Y009483D01*
X017850Y009421D02*
X017475Y009421D01*
X017534Y009421D02*
X017844Y009421D01*
X017775Y009360D02*
X017523Y009360D01*
X017587Y009360D02*
X017767Y009360D01*
X017699Y009298D02*
X017571Y009298D01*
X017640Y009298D02*
X017690Y009298D01*
X017623Y009237D02*
X017619Y009237D01*
X017188Y008930D02*
X016105Y008930D01*
X016046Y008881D02*
X016755Y009471D01*
X017227Y008881D01*
X016519Y008330D01*
X016460Y008288D01*
X016395Y008259D01*
X016325Y008244D01*
X016254Y008242D01*
X016184Y008254D01*
X016117Y008280D01*
X016057Y008318D01*
X016005Y008368D01*
X015964Y008426D01*
X015936Y008492D01*
X015920Y008561D01*
X015919Y008633D01*
X015932Y008703D01*
X015958Y008769D01*
X015996Y008829D01*
X016046Y008881D01*
X016034Y008868D02*
X017211Y008868D01*
X017132Y008807D02*
X015982Y008807D01*
X015948Y008745D02*
X017053Y008745D01*
X016974Y008684D02*
X015928Y008684D01*
X015919Y008622D02*
X016895Y008622D01*
X016816Y008561D02*
X015921Y008561D01*
X015934Y008499D02*
X016736Y008499D01*
X016657Y008438D02*
X015959Y008438D01*
X015999Y008376D02*
X016578Y008376D01*
X016497Y008315D02*
X016063Y008315D01*
X016190Y008253D02*
X016367Y008253D01*
X016178Y008991D02*
X017139Y008991D01*
X017090Y009053D02*
X016252Y009053D01*
X016326Y009114D02*
X017041Y009114D01*
X016991Y009176D02*
X016400Y009176D01*
X016474Y009237D02*
X016942Y009237D01*
X016893Y009298D02*
X016547Y009298D01*
X016621Y009360D02*
X016844Y009360D01*
X016795Y009421D02*
X016695Y009421D01*
X017221Y009852D02*
X018458Y009852D01*
X018516Y009913D02*
X017298Y009913D01*
X017374Y009975D02*
X018552Y009975D01*
X018572Y010036D02*
X017451Y010036D01*
X017528Y010098D02*
X018579Y010098D01*
X018575Y010159D02*
X017605Y010159D01*
X017682Y010221D02*
X018559Y010221D01*
X018419Y010405D02*
X017838Y010405D01*
X017894Y010467D02*
X018355Y010467D01*
X018256Y010528D02*
X017994Y010528D01*
X017381Y010836D02*
X016304Y010836D01*
X016257Y010897D02*
X017336Y010897D01*
X017290Y010959D02*
X016210Y010959D01*
X016163Y011020D02*
X017245Y011020D01*
X017199Y011082D02*
X016116Y011082D01*
X016073Y011143D02*
X017154Y011143D01*
X017108Y011205D02*
X016033Y011205D01*
X015993Y011266D02*
X017063Y011266D01*
X017017Y011328D02*
X015954Y011328D01*
X015914Y011389D02*
X016972Y011389D01*
X016926Y011451D02*
X015874Y011451D01*
X015834Y011512D02*
X016881Y011512D01*
X016836Y011574D02*
X015794Y011574D01*
X015754Y011635D02*
X016790Y011635D01*
X016745Y011697D02*
X015714Y011697D01*
X015675Y011758D02*
X016699Y011758D01*
X016654Y011820D02*
X015635Y011820D01*
X015600Y011881D02*
X016608Y011881D01*
X016563Y011943D02*
X015567Y011943D01*
X015533Y012004D02*
X016517Y012004D01*
X016472Y012066D02*
X015500Y012066D01*
X015466Y012127D02*
X016427Y012127D01*
X016381Y012189D02*
X015433Y012189D01*
X015399Y012250D02*
X016336Y012250D01*
X016290Y012312D02*
X015366Y012312D01*
X015332Y012373D02*
X016245Y012373D01*
X016199Y012435D02*
X015299Y012435D01*
X015265Y012496D02*
X016154Y012496D01*
X016108Y012558D02*
X015232Y012558D01*
X015202Y012619D02*
X016063Y012619D01*
X016017Y012681D02*
X015174Y012681D01*
X015146Y012742D02*
X015972Y012742D01*
X015927Y012804D02*
X015119Y012804D01*
X015091Y012865D02*
X015881Y012865D01*
X015836Y012927D02*
X015064Y012927D01*
X015036Y012988D02*
X015790Y012988D01*
X015743Y013050D02*
X015008Y013050D01*
X014981Y013111D02*
X015695Y013111D01*
X015654Y013173D02*
X014953Y013173D01*
X014926Y013234D02*
X015619Y013234D01*
X015588Y013295D02*
X014898Y013295D01*
X014870Y013357D02*
X015564Y013357D01*
X015540Y013418D02*
X014845Y013418D01*
X014795Y013480D02*
X015526Y013480D01*
X015513Y013541D02*
X014207Y013541D01*
X014253Y013603D02*
X015504Y013603D01*
X015499Y013664D02*
X014299Y013664D01*
X014345Y013726D02*
X015495Y013726D01*
X015495Y013787D02*
X014391Y013787D01*
X014438Y013849D02*
X015495Y013849D01*
X015495Y013910D02*
X014484Y013910D01*
X014530Y013972D02*
X015495Y013972D01*
X015495Y014033D02*
X014576Y014033D01*
X014622Y014095D02*
X015495Y014095D01*
X014274Y012621D02*
X014865Y012030D01*
X016361Y010219D01*
X015771Y009708D01*
X014274Y011479D01*
X014165Y011592D01*
X014040Y011688D01*
X013904Y011765D01*
X013757Y011823D01*
X013604Y011859D01*
X013448Y011873D01*
X013448Y012700D01*
X014078Y012700D01*
X014132Y012695D01*
X014184Y012679D01*
X014232Y012654D01*
X014274Y012621D01*
X014276Y012619D02*
X013448Y012619D01*
X013402Y012653D02*
X013442Y012681D01*
X013487Y012700D01*
X014117Y012700D01*
X014117Y011912D01*
X014110Y011907D01*
X014102Y011904D01*
X014093Y011904D01*
X014085Y011907D01*
X014078Y011912D01*
X013716Y011909D01*
X013357Y011869D01*
X013003Y011790D01*
X012660Y011676D01*
X012616Y011652D01*
X012576Y011621D01*
X012542Y011584D01*
X012515Y011541D01*
X012495Y011495D01*
X012495Y011223D01*
X012274Y011223D01*
X012274Y011463D01*
X012279Y011507D01*
X012290Y011550D01*
X012310Y011589D01*
X012451Y011806D01*
X012618Y012003D01*
X012810Y012176D01*
X013011Y012304D01*
X013198Y012451D01*
X013369Y012617D01*
X013402Y012653D01*
X013371Y012619D02*
X014117Y012619D01*
X014117Y012558D02*
X013308Y012558D01*
X013244Y012496D02*
X014117Y012496D01*
X014117Y012435D02*
X013177Y012435D01*
X013099Y012373D02*
X014117Y012373D01*
X014117Y012312D02*
X013021Y012312D01*
X012927Y012250D02*
X014117Y012250D01*
X014117Y012189D02*
X012830Y012189D01*
X012756Y012127D02*
X014117Y012127D01*
X014117Y012066D02*
X012688Y012066D01*
X012620Y012004D02*
X014117Y012004D01*
X014117Y011943D02*
X012567Y011943D01*
X012515Y011881D02*
X013468Y011881D01*
X013448Y011881D02*
X014988Y011881D01*
X014938Y011943D02*
X013448Y011943D01*
X013448Y012004D02*
X014887Y012004D01*
X014830Y012066D02*
X013448Y012066D01*
X013448Y012127D02*
X014768Y012127D01*
X014707Y012189D02*
X013448Y012189D01*
X013448Y012250D02*
X014645Y012250D01*
X014584Y012312D02*
X013448Y012312D01*
X013448Y012373D02*
X014522Y012373D01*
X014461Y012435D02*
X013448Y012435D01*
X013448Y012496D02*
X014399Y012496D01*
X014338Y012558D02*
X013448Y012558D01*
X013448Y012681D02*
X014179Y012681D01*
X014117Y012681D02*
X013441Y012681D01*
X012700Y012681D02*
X011881Y012681D01*
X011881Y012742D02*
X012700Y012742D01*
X012700Y012804D02*
X011881Y012804D01*
X011881Y012865D02*
X012700Y012865D01*
X012700Y012927D02*
X011885Y012927D01*
X011908Y012988D02*
X012700Y012988D01*
X012700Y013050D02*
X011959Y013050D01*
X011881Y012619D02*
X012700Y012619D01*
X012700Y012558D02*
X011881Y012558D01*
X012462Y011820D02*
X013136Y011820D01*
X012907Y011758D02*
X012419Y011758D01*
X012380Y011697D02*
X012722Y011697D01*
X012594Y011635D02*
X012340Y011635D01*
X012302Y011574D02*
X012535Y011574D01*
X012502Y011512D02*
X012280Y011512D01*
X012274Y011451D02*
X012495Y011451D01*
X012495Y011389D02*
X012274Y011389D01*
X012274Y011328D02*
X012495Y011328D01*
X012495Y011266D02*
X012274Y011266D01*
X012520Y011020D02*
X013274Y011020D01*
X013274Y011034D02*
X013274Y010916D01*
X012957Y010916D01*
X012934Y010913D01*
X012913Y010904D01*
X012894Y010890D01*
X012802Y010798D01*
X012605Y010798D01*
X012605Y010995D01*
X012448Y010956D01*
X012630Y011120D01*
X012646Y011137D01*
X012658Y011157D01*
X012666Y011179D01*
X012668Y011202D01*
X012668Y011424D01*
X012778Y011479D01*
X013251Y011597D01*
X013363Y011632D01*
X013479Y011647D01*
X013596Y011643D01*
X013710Y011620D01*
X013819Y011578D01*
X013920Y011519D01*
X013963Y011481D01*
X013997Y011435D01*
X014020Y011383D01*
X014033Y011328D01*
X014034Y011271D01*
X014024Y011215D01*
X014002Y011163D01*
X013970Y011116D01*
X013929Y011076D01*
X013881Y011046D01*
X013683Y010979D01*
X013479Y010935D01*
X013271Y010916D01*
X013175Y010922D01*
X013082Y010942D01*
X012993Y010977D01*
X012911Y011026D01*
X012838Y011088D01*
X012775Y011161D01*
X012726Y011242D01*
X012690Y011331D01*
X012668Y011424D01*
X012920Y011424D01*
X013274Y011034D01*
X013231Y011082D02*
X012588Y011082D01*
X012650Y011143D02*
X013175Y011143D01*
X013120Y011205D02*
X012668Y011205D01*
X012668Y011266D02*
X013064Y011266D01*
X013008Y011328D02*
X012668Y011328D01*
X012691Y011328D02*
X014033Y011328D01*
X014033Y011266D02*
X012716Y011266D01*
X012749Y011205D02*
X014019Y011205D01*
X013989Y011143D02*
X012790Y011143D01*
X012845Y011082D02*
X013935Y011082D01*
X013805Y011020D02*
X012921Y011020D01*
X012903Y010897D02*
X012605Y010897D01*
X012605Y010836D02*
X012840Y010836D01*
X013040Y010959D02*
X013589Y010959D01*
X013274Y010959D02*
X012605Y010959D01*
X012461Y010959D02*
X012451Y010959D01*
X012668Y011389D02*
X012952Y011389D01*
X012910Y011512D02*
X013927Y011512D01*
X013985Y011451D02*
X012721Y011451D01*
X012676Y011389D02*
X014018Y011389D01*
X014182Y011574D02*
X015242Y011574D01*
X015192Y011635D02*
X014109Y011635D01*
X014025Y011697D02*
X015141Y011697D01*
X015090Y011758D02*
X013916Y011758D01*
X013765Y011820D02*
X015039Y011820D01*
X015293Y011512D02*
X014242Y011512D01*
X014299Y011451D02*
X015344Y011451D01*
X015395Y011389D02*
X014350Y011389D01*
X014402Y011328D02*
X015445Y011328D01*
X015496Y011266D02*
X014454Y011266D01*
X014506Y011205D02*
X015547Y011205D01*
X015598Y011143D02*
X014558Y011143D01*
X014610Y011082D02*
X015649Y011082D01*
X015699Y011020D02*
X014662Y011020D01*
X014714Y010959D02*
X015750Y010959D01*
X015801Y010897D02*
X014766Y010897D01*
X014818Y010836D02*
X015852Y010836D01*
X015903Y010774D02*
X014870Y010774D01*
X014922Y010713D02*
X015953Y010713D01*
X016004Y010651D02*
X014974Y010651D01*
X015026Y010590D02*
X016055Y010590D01*
X016106Y010528D02*
X015077Y010528D01*
X015129Y010467D02*
X016157Y010467D01*
X016207Y010405D02*
X015181Y010405D01*
X015233Y010344D02*
X016258Y010344D01*
X016309Y010282D02*
X015285Y010282D01*
X015337Y010221D02*
X016360Y010221D01*
X016292Y010159D02*
X015389Y010159D01*
X015441Y010098D02*
X016221Y010098D01*
X016150Y010036D02*
X015493Y010036D01*
X015545Y009975D02*
X016079Y009975D01*
X016008Y009913D02*
X015597Y009913D01*
X015649Y009852D02*
X015937Y009852D01*
X015866Y009790D02*
X015701Y009790D01*
X015752Y009729D02*
X015795Y009729D01*
X013827Y011574D02*
X013156Y011574D01*
X013389Y011635D02*
X013634Y011635D01*
X012721Y012435D02*
X012650Y012435D01*
X012700Y014033D02*
X012149Y014033D01*
X012149Y014095D02*
X012700Y014095D01*
X012700Y014156D02*
X012149Y014156D01*
X012149Y014218D02*
X012700Y014218D01*
X012700Y014279D02*
X012149Y014279D01*
X012149Y014341D02*
X012700Y014341D01*
X012700Y014402D02*
X012149Y014402D01*
X012149Y014464D02*
X012700Y014464D01*
X012700Y014525D02*
X012149Y014525D01*
X012149Y014587D02*
X012700Y014587D01*
X012700Y014648D02*
X012149Y014648D01*
X012149Y014710D02*
X012700Y014710D01*
X012719Y014771D02*
X012149Y014771D01*
X012149Y014833D02*
X012767Y014833D01*
X012816Y014894D02*
X012149Y014894D01*
X012149Y014956D02*
X012864Y014956D01*
X012906Y015017D02*
X012149Y015017D01*
X012149Y015079D02*
X012947Y015079D01*
X012988Y015140D02*
X012149Y015140D01*
X012149Y015202D02*
X013027Y015202D01*
X013064Y015263D02*
X012149Y015263D01*
X011440Y015263D02*
X010568Y015263D01*
X010569Y015263D02*
X010511Y015336D01*
X010440Y015397D01*
X010360Y015445D01*
X010272Y015478D01*
X010180Y015495D01*
X007700Y015495D01*
X007653Y015463D01*
X007613Y015424D01*
X007582Y015377D01*
X007374Y015212D01*
X007188Y015023D01*
X006715Y014471D01*
X006164Y014944D01*
X006637Y015534D01*
X007030Y016007D01*
X007083Y016075D01*
X007145Y016133D01*
X007217Y016180D01*
X007295Y016215D01*
X007378Y016236D01*
X007463Y016243D01*
X009904Y016243D01*
X010045Y016216D01*
X010179Y016166D01*
X010305Y016096D01*
X010417Y016008D01*
X010514Y015902D01*
X010593Y015783D01*
X010652Y015652D01*
X010711Y015561D01*
X010784Y015480D01*
X010869Y015411D01*
X010964Y015358D01*
X011066Y015321D01*
X011173Y015301D01*
X011282Y015298D01*
X011440Y015298D01*
X011440Y013999D01*
X010889Y013999D01*
X010889Y014747D01*
X010743Y014958D01*
X010613Y015180D01*
X010569Y015263D01*
X010601Y015202D02*
X011440Y015202D01*
X011440Y015140D02*
X010636Y015140D01*
X010672Y015079D02*
X011440Y015079D01*
X011440Y015017D02*
X010708Y015017D01*
X010744Y014956D02*
X011440Y014956D01*
X011440Y014894D02*
X010787Y014894D01*
X010829Y014833D02*
X011440Y014833D01*
X011440Y014771D02*
X010872Y014771D01*
X010889Y014710D02*
X011440Y014710D01*
X011440Y014648D02*
X010889Y014648D01*
X010889Y014587D02*
X011440Y014587D01*
X011440Y014525D02*
X010889Y014525D01*
X010889Y014464D02*
X011440Y014464D01*
X011440Y014402D02*
X010889Y014402D01*
X010889Y014341D02*
X011440Y014341D01*
X011440Y014279D02*
X010889Y014279D01*
X010889Y014218D02*
X011440Y014218D01*
X011440Y014156D02*
X010889Y014156D01*
X010889Y014095D02*
X011440Y014095D01*
X011440Y014033D02*
X010889Y014033D01*
X010532Y014587D02*
X007857Y014587D01*
X007857Y014648D02*
X010516Y014648D01*
X010500Y014710D02*
X007857Y014710D01*
X007857Y014771D02*
X010483Y014771D01*
X010467Y014833D02*
X007857Y014833D01*
X007857Y014894D02*
X010450Y014894D01*
X010434Y014956D02*
X007857Y014956D01*
X007857Y015017D02*
X010418Y015017D01*
X010409Y015079D02*
X007857Y015079D01*
X007857Y015140D02*
X010384Y015140D01*
X010332Y015202D02*
X007857Y015202D01*
X007588Y015386D02*
X006518Y015386D01*
X006469Y015325D02*
X007516Y015325D01*
X007438Y015263D02*
X006420Y015263D01*
X006371Y015202D02*
X007364Y015202D01*
X007303Y015140D02*
X006321Y015140D01*
X006272Y015079D02*
X007243Y015079D01*
X007181Y015079D02*
X006060Y015079D01*
X006044Y015111D02*
X006084Y015032D01*
X006138Y014963D01*
X006204Y014904D01*
X006755Y014432D01*
X006924Y014713D01*
X007109Y014983D01*
X007180Y015077D01*
X007236Y015180D01*
X007275Y015290D01*
X007297Y015405D01*
X007302Y015523D01*
X007289Y015639D01*
X007258Y015752D01*
X007210Y015859D01*
X007147Y015958D01*
X007070Y016046D01*
X007003Y016094D01*
X006930Y016130D01*
X006851Y016152D01*
X006769Y016160D01*
X006688Y016153D01*
X006608Y016133D01*
X006534Y016099D01*
X006467Y016052D01*
X006408Y015995D01*
X006361Y015928D01*
X006046Y015456D01*
X006021Y015371D01*
X006012Y015284D01*
X006020Y015196D01*
X006044Y015111D01*
X006036Y015140D02*
X007214Y015140D01*
X007243Y015202D02*
X006019Y015202D01*
X006014Y015263D02*
X007265Y015263D01*
X007282Y015325D02*
X006016Y015325D01*
X006025Y015386D02*
X007294Y015386D01*
X007299Y015448D02*
X006044Y015448D01*
X006082Y015509D02*
X007301Y015509D01*
X007296Y015571D02*
X006123Y015571D01*
X006164Y015632D02*
X007290Y015632D01*
X007274Y015694D02*
X006205Y015694D01*
X006246Y015755D02*
X007257Y015755D01*
X007229Y015817D02*
X006287Y015817D01*
X006328Y015878D02*
X007198Y015878D01*
X007159Y015940D02*
X006369Y015940D01*
X006415Y016001D02*
X007109Y016001D01*
X007073Y016063D02*
X010347Y016063D01*
X010423Y016001D02*
X007026Y016001D01*
X007047Y016063D02*
X006481Y016063D01*
X006589Y016124D02*
X006941Y016124D01*
X006974Y015940D02*
X010479Y015940D01*
X010530Y015878D02*
X006923Y015878D01*
X006872Y015817D02*
X010571Y015817D01*
X010606Y015755D02*
X006821Y015755D01*
X006769Y015694D02*
X010634Y015694D01*
X010665Y015632D02*
X006718Y015632D01*
X006667Y015571D02*
X010705Y015571D01*
X010757Y015509D02*
X006617Y015509D01*
X006567Y015448D02*
X007637Y015448D01*
X007183Y015017D02*
X006223Y015017D01*
X006174Y014956D02*
X007131Y014956D01*
X007090Y014956D02*
X006145Y014956D01*
X006095Y015017D02*
X007135Y015017D01*
X007078Y014894D02*
X006222Y014894D01*
X006215Y014894D02*
X007048Y014894D01*
X007025Y014833D02*
X006294Y014833D01*
X006287Y014833D02*
X007006Y014833D01*
X006973Y014771D02*
X006365Y014771D01*
X006359Y014771D02*
X006964Y014771D01*
X006922Y014710D02*
X006431Y014710D01*
X006437Y014710D02*
X006920Y014710D01*
X006885Y014648D02*
X006502Y014648D01*
X006509Y014648D02*
X006867Y014648D01*
X006848Y014587D02*
X006574Y014587D01*
X006581Y014587D02*
X006814Y014587D01*
X006811Y014525D02*
X006646Y014525D01*
X006652Y014525D02*
X006762Y014525D01*
X006774Y014464D02*
X006718Y014464D01*
X006993Y014002D02*
X006809Y013870D01*
X006637Y013723D01*
X005141Y011912D01*
X005731Y011400D01*
X005101Y011952D01*
X004904Y012139D01*
X004733Y012351D01*
X004589Y012582D01*
X004476Y012830D01*
X004396Y013090D01*
X004349Y013358D01*
X004337Y013630D01*
X004360Y013902D01*
X004417Y014168D01*
X004507Y014425D01*
X004629Y014668D01*
X007857Y020023D01*
X008566Y021243D01*
X008881Y021068D01*
X009271Y020843D01*
X008566Y019629D01*
X007620Y019629D01*
X007583Y019568D02*
X008528Y019568D01*
X008566Y019629D02*
X008113Y018907D01*
X007621Y018211D01*
X006183Y016092D01*
X004826Y013920D01*
X004794Y013795D01*
X004776Y013667D01*
X004774Y013537D01*
X004786Y013408D01*
X004776Y013331D01*
X004780Y013254D01*
X004797Y013178D01*
X004827Y013106D01*
X004869Y013040D01*
X004921Y012983D01*
X004983Y012936D01*
X005150Y012876D01*
X005324Y012842D01*
X005501Y012834D01*
X005678Y012852D01*
X005849Y012897D01*
X005967Y012936D01*
X006676Y012542D01*
X005731Y011400D01*
X007227Y013172D01*
X007621Y013645D01*
X007656Y013677D01*
X007695Y013704D01*
X007739Y013723D01*
X007739Y014156D01*
X007306Y014156D01*
X007265Y014150D01*
X007225Y014137D01*
X007188Y014117D01*
X006993Y014002D01*
X006951Y013972D02*
X007739Y013972D01*
X007739Y014033D02*
X007046Y014033D01*
X007150Y014095D02*
X007739Y014095D01*
X007739Y013910D02*
X006865Y013910D01*
X006784Y013849D02*
X007739Y013849D01*
X007739Y013787D02*
X006712Y013787D01*
X006640Y013726D02*
X007739Y013726D01*
X007642Y013664D02*
X006588Y013664D01*
X006537Y013603D02*
X007586Y013603D01*
X007535Y013541D02*
X006486Y013541D01*
X006436Y013480D02*
X007484Y013480D01*
X007433Y013418D02*
X006385Y013418D01*
X006334Y013357D02*
X007381Y013357D01*
X007330Y013295D02*
X006283Y013295D01*
X006232Y013234D02*
X007279Y013234D01*
X007228Y013173D02*
X006182Y013173D01*
X006131Y013111D02*
X007176Y013111D01*
X007124Y013050D02*
X006080Y013050D01*
X006029Y012988D02*
X007072Y012988D01*
X007020Y012927D02*
X005978Y012927D01*
X005984Y012927D02*
X005939Y012927D01*
X005928Y012865D02*
X006968Y012865D01*
X006916Y012804D02*
X005877Y012804D01*
X005826Y012742D02*
X006864Y012742D01*
X006812Y012681D02*
X005775Y012681D01*
X005725Y012619D02*
X006760Y012619D01*
X006708Y012558D02*
X005674Y012558D01*
X005623Y012496D02*
X006656Y012496D01*
X006638Y012496D02*
X004643Y012496D01*
X004681Y012435D02*
X006587Y012435D01*
X006604Y012435D02*
X005572Y012435D01*
X005521Y012373D02*
X006553Y012373D01*
X006536Y012373D02*
X004719Y012373D01*
X004764Y012312D02*
X006485Y012312D01*
X006501Y012312D02*
X005471Y012312D01*
X005420Y012250D02*
X006449Y012250D01*
X006434Y012250D02*
X004814Y012250D01*
X004864Y012189D02*
X006383Y012189D01*
X006397Y012189D02*
X005369Y012189D01*
X005318Y012127D02*
X006345Y012127D01*
X006333Y012127D02*
X004917Y012127D01*
X004982Y012066D02*
X006282Y012066D01*
X006293Y012066D02*
X005267Y012066D01*
X005217Y012004D02*
X006241Y012004D01*
X006231Y012004D02*
X005046Y012004D01*
X005112Y011943D02*
X006180Y011943D01*
X006189Y011943D02*
X005166Y011943D01*
X005177Y011881D02*
X006137Y011881D01*
X006129Y011881D02*
X005182Y011881D01*
X005247Y011820D02*
X006085Y011820D01*
X006078Y011820D02*
X005252Y011820D01*
X005318Y011758D02*
X006033Y011758D01*
X006027Y011758D02*
X005322Y011758D01*
X005389Y011697D02*
X005981Y011697D01*
X005976Y011697D02*
X005393Y011697D01*
X005460Y011635D02*
X005929Y011635D01*
X005925Y011635D02*
X005463Y011635D01*
X005531Y011574D02*
X005877Y011574D01*
X005875Y011574D02*
X005533Y011574D01*
X005602Y011512D02*
X005826Y011512D01*
X005824Y011512D02*
X005603Y011512D01*
X005673Y011451D02*
X005774Y011451D01*
X005773Y011451D02*
X005674Y011451D01*
X005727Y012865D02*
X006095Y012865D01*
X006206Y012804D02*
X004489Y012804D01*
X004466Y012865D02*
X005207Y012865D01*
X005009Y012927D02*
X004447Y012927D01*
X004428Y012988D02*
X004917Y012988D01*
X004863Y013050D02*
X004409Y013050D01*
X004392Y013111D02*
X004825Y013111D01*
X004799Y013173D02*
X004382Y013173D01*
X004371Y013234D02*
X004785Y013234D01*
X004778Y013295D02*
X004360Y013295D01*
X004350Y013357D02*
X004780Y013357D01*
X004785Y013418D02*
X004347Y013418D01*
X004344Y013480D02*
X004779Y013480D01*
X004774Y013541D02*
X004341Y013541D01*
X004338Y013603D02*
X004775Y013603D01*
X004776Y013664D02*
X004340Y013664D01*
X004345Y013726D02*
X004784Y013726D01*
X004793Y013787D02*
X004350Y013787D01*
X004355Y013849D02*
X004808Y013849D01*
X004823Y013910D02*
X004362Y013910D01*
X004375Y013972D02*
X004858Y013972D01*
X004896Y014033D02*
X004388Y014033D01*
X004401Y014095D02*
X004935Y014095D01*
X004973Y014156D02*
X004414Y014156D01*
X004434Y014218D02*
X005012Y014218D01*
X005050Y014279D02*
X004456Y014279D01*
X004477Y014341D02*
X005088Y014341D01*
X005127Y014402D02*
X004499Y014402D01*
X004526Y014464D02*
X005165Y014464D01*
X005204Y014525D02*
X004557Y014525D01*
X004588Y014587D02*
X005242Y014587D01*
X005281Y014648D02*
X004619Y014648D01*
X004654Y014710D02*
X005319Y014710D01*
X005357Y014771D02*
X004691Y014771D01*
X004728Y014833D02*
X005396Y014833D01*
X005434Y014894D02*
X004765Y014894D01*
X004802Y014956D02*
X005473Y014956D01*
X005511Y015017D02*
X004839Y015017D01*
X004876Y015079D02*
X005549Y015079D01*
X005588Y015140D02*
X004913Y015140D01*
X004951Y015202D02*
X005626Y015202D01*
X005665Y015263D02*
X004988Y015263D01*
X005025Y015325D02*
X005703Y015325D01*
X005741Y015386D02*
X005062Y015386D01*
X005099Y015448D02*
X005780Y015448D01*
X005818Y015509D02*
X005136Y015509D01*
X005173Y015571D02*
X005857Y015571D01*
X005895Y015632D02*
X005210Y015632D01*
X005247Y015694D02*
X005933Y015694D01*
X005972Y015755D02*
X005284Y015755D01*
X005321Y015817D02*
X006010Y015817D01*
X006049Y015878D02*
X005358Y015878D01*
X005395Y015940D02*
X006087Y015940D01*
X006126Y016001D02*
X005433Y016001D01*
X005470Y016063D02*
X006164Y016063D01*
X006204Y016124D02*
X005507Y016124D01*
X005544Y016186D02*
X006246Y016186D01*
X006288Y016247D02*
X005581Y016247D01*
X005618Y016309D02*
X006329Y016309D01*
X006371Y016370D02*
X005655Y016370D01*
X005692Y016432D02*
X006413Y016432D01*
X006455Y016493D02*
X005729Y016493D01*
X005766Y016555D02*
X006496Y016555D01*
X006538Y016616D02*
X005803Y016616D01*
X005840Y016678D02*
X006580Y016678D01*
X006621Y016739D02*
X005877Y016739D01*
X005915Y016801D02*
X006663Y016801D01*
X006705Y016862D02*
X005952Y016862D01*
X005989Y016924D02*
X006747Y016924D01*
X006788Y016985D02*
X006026Y016985D01*
X006063Y017047D02*
X006830Y017047D01*
X006872Y017108D02*
X006100Y017108D01*
X006137Y017170D02*
X006914Y017170D01*
X006955Y017231D02*
X006174Y017231D01*
X006211Y017293D02*
X006997Y017293D01*
X007039Y017354D02*
X006248Y017354D01*
X006285Y017415D02*
X007081Y017415D01*
X007122Y017477D02*
X006322Y017477D01*
X006359Y017538D02*
X007164Y017538D01*
X007206Y017600D02*
X006397Y017600D01*
X006434Y017661D02*
X007248Y017661D01*
X007289Y017723D02*
X006471Y017723D01*
X006508Y017784D02*
X007331Y017784D01*
X007373Y017846D02*
X006545Y017846D01*
X006582Y017907D02*
X007415Y017907D01*
X007456Y017969D02*
X006619Y017969D01*
X006656Y018030D02*
X007498Y018030D01*
X007540Y018092D02*
X006693Y018092D01*
X006730Y018153D02*
X007582Y018153D01*
X007623Y018215D02*
X006767Y018215D01*
X006804Y018276D02*
X007667Y018276D01*
X007710Y018338D02*
X006841Y018338D01*
X006878Y018399D02*
X007754Y018399D01*
X007798Y018461D02*
X006916Y018461D01*
X006953Y018522D02*
X007841Y018522D01*
X007885Y018584D02*
X006990Y018584D01*
X007027Y018645D02*
X007928Y018645D01*
X007972Y018707D02*
X007064Y018707D01*
X007101Y018768D02*
X008015Y018768D01*
X008059Y018830D02*
X007138Y018830D01*
X007175Y018891D02*
X008102Y018891D01*
X008142Y018953D02*
X007212Y018953D01*
X007249Y019014D02*
X008181Y019014D01*
X008219Y019076D02*
X007286Y019076D01*
X007323Y019137D02*
X008258Y019137D01*
X008296Y019199D02*
X007360Y019199D01*
X007398Y019260D02*
X008335Y019260D01*
X008373Y019322D02*
X007435Y019322D01*
X007472Y019383D02*
X008412Y019383D01*
X008450Y019445D02*
X007509Y019445D01*
X007546Y019506D02*
X008489Y019506D01*
X008602Y019691D02*
X007657Y019691D01*
X007694Y019752D02*
X008637Y019752D01*
X008673Y019814D02*
X007731Y019814D01*
X007768Y019875D02*
X008709Y019875D01*
X008745Y019937D02*
X007805Y019937D01*
X007842Y019998D02*
X008780Y019998D01*
X008816Y020060D02*
X007879Y020060D01*
X007914Y020121D02*
X008852Y020121D01*
X008887Y020183D02*
X007950Y020183D01*
X007986Y020244D02*
X008923Y020244D01*
X008959Y020306D02*
X008022Y020306D01*
X008057Y020367D02*
X008995Y020367D01*
X009030Y020429D02*
X008093Y020429D01*
X008129Y020490D02*
X009066Y020490D01*
X009102Y020552D02*
X008164Y020552D01*
X008200Y020613D02*
X009137Y020613D01*
X009173Y020675D02*
X008236Y020675D01*
X008271Y020736D02*
X009209Y020736D01*
X009244Y020798D02*
X008307Y020798D01*
X008343Y020859D02*
X009243Y020859D01*
X009136Y020921D02*
X008379Y020921D01*
X008414Y020982D02*
X009030Y020982D01*
X008923Y021044D02*
X008450Y021044D01*
X008486Y021105D02*
X008814Y021105D01*
X008703Y021167D02*
X008521Y021167D01*
X008557Y021228D02*
X008593Y021228D01*
X010170Y019998D02*
X010696Y019998D01*
X010586Y020060D02*
X010205Y020060D01*
X010241Y020121D02*
X010475Y020121D01*
X010364Y020183D02*
X010277Y020183D01*
X010298Y020219D02*
X011007Y019826D01*
X010298Y018605D01*
X010247Y018511D01*
X010212Y018410D01*
X010194Y018304D01*
X010194Y018197D01*
X010212Y018092D01*
X007937Y018092D01*
X007974Y018116D01*
X008015Y018133D01*
X008365Y018232D01*
X008702Y018371D01*
X009021Y018546D01*
X009318Y018756D01*
X009589Y018999D01*
X010298Y020219D01*
X010134Y019937D02*
X010807Y019937D01*
X010918Y019875D02*
X010098Y019875D01*
X010063Y019814D02*
X011000Y019814D01*
X010964Y019752D02*
X010027Y019752D01*
X009991Y019691D02*
X010928Y019691D01*
X010893Y019629D02*
X009955Y019629D01*
X009920Y019568D02*
X010857Y019568D01*
X010821Y019506D02*
X009884Y019506D01*
X009848Y019445D02*
X010786Y019445D01*
X010750Y019383D02*
X009813Y019383D01*
X009777Y019322D02*
X010714Y019322D01*
X010678Y019260D02*
X009741Y019260D01*
X009705Y019199D02*
X010643Y019199D01*
X010607Y019137D02*
X009670Y019137D01*
X009634Y019076D02*
X010571Y019076D01*
X010536Y019014D02*
X009598Y019014D01*
X009538Y018953D02*
X010500Y018953D01*
X010464Y018891D02*
X009469Y018891D01*
X009400Y018830D02*
X010429Y018830D01*
X010393Y018768D02*
X009331Y018768D01*
X009248Y018707D02*
X010357Y018707D01*
X010321Y018645D02*
X009161Y018645D01*
X009074Y018584D02*
X010286Y018584D01*
X010253Y018522D02*
X008977Y018522D01*
X008866Y018461D02*
X010230Y018461D01*
X010210Y018399D02*
X008754Y018399D01*
X008622Y018338D02*
X010200Y018338D01*
X010194Y018276D02*
X008472Y018276D01*
X008304Y018215D02*
X010194Y018215D01*
X010202Y018153D02*
X008087Y018153D01*
X007937Y018092D02*
X007906Y018061D01*
X007882Y018024D01*
X007865Y017984D01*
X007857Y017940D01*
X007857Y017897D01*
X007857Y017149D01*
X009274Y017149D01*
X010298Y017897D01*
X010247Y017991D01*
X010212Y018092D01*
X010233Y018030D02*
X007886Y018030D01*
X007862Y017969D02*
X010259Y017969D01*
X010220Y017927D02*
X010180Y017936D01*
X007857Y017936D01*
X007857Y017149D01*
X009196Y017149D01*
X009424Y017129D01*
X009647Y017079D01*
X009862Y017000D01*
X010065Y016894D01*
X010252Y016762D01*
X010420Y016607D01*
X010566Y016431D01*
X010687Y016237D01*
X010782Y016029D01*
X010849Y015810D01*
X010856Y015781D01*
X010869Y015754D01*
X010888Y015730D01*
X010911Y015711D01*
X010938Y015698D01*
X010967Y015692D01*
X011400Y015692D01*
X011400Y016204D01*
X011399Y016235D01*
X011392Y016266D01*
X011379Y016295D01*
X011361Y016322D01*
X010988Y016798D01*
X010646Y017297D01*
X010337Y017818D01*
X010318Y017854D01*
X010291Y017885D01*
X010258Y017910D01*
X010220Y017927D01*
X010262Y017907D02*
X007857Y017907D01*
X010292Y017907D01*
X010322Y017846D02*
X007857Y017846D01*
X010229Y017846D01*
X010145Y017784D02*
X007857Y017784D01*
X010357Y017784D01*
X010394Y017723D02*
X007857Y017723D01*
X010061Y017723D01*
X009976Y017661D02*
X007857Y017661D01*
X010430Y017661D01*
X010466Y017600D02*
X007857Y017600D01*
X009892Y017600D01*
X009808Y017538D02*
X007857Y017538D01*
X010503Y017538D01*
X010539Y017477D02*
X007857Y017477D01*
X009724Y017477D01*
X009640Y017415D02*
X007857Y017415D01*
X010576Y017415D01*
X010612Y017354D02*
X007857Y017354D01*
X009556Y017354D01*
X009472Y017293D02*
X007857Y017293D01*
X010649Y017293D01*
X010691Y017231D02*
X007857Y017231D01*
X009387Y017231D01*
X009303Y017170D02*
X007857Y017170D01*
X010733Y017170D01*
X010775Y017108D02*
X009517Y017108D01*
X009736Y017047D02*
X010817Y017047D01*
X010859Y016985D02*
X009891Y016985D01*
X010009Y016924D02*
X010901Y016924D01*
X010944Y016862D02*
X010110Y016862D01*
X010197Y016801D02*
X010986Y016801D01*
X011034Y016739D02*
X010277Y016739D01*
X010343Y016678D02*
X011082Y016678D01*
X011130Y016616D02*
X010410Y016616D01*
X010463Y016555D02*
X011178Y016555D01*
X011227Y016493D02*
X010514Y016493D01*
X010565Y016432D02*
X011275Y016432D01*
X011323Y016370D02*
X010604Y016370D01*
X010642Y016309D02*
X011370Y016309D01*
X011396Y016247D02*
X010681Y016247D01*
X010711Y016186D02*
X011400Y016186D01*
X011400Y016124D02*
X010739Y016124D01*
X010767Y016063D02*
X011400Y016063D01*
X011400Y016001D02*
X010791Y016001D01*
X010810Y015940D02*
X011400Y015940D01*
X011400Y015878D02*
X010828Y015878D01*
X010847Y015817D02*
X011400Y015817D01*
X011400Y015755D02*
X010868Y015755D01*
X010959Y015694D02*
X011400Y015694D01*
X011055Y015325D02*
X010519Y015325D01*
X010453Y015386D02*
X010914Y015386D01*
X010824Y015448D02*
X010354Y015448D01*
X010255Y016124D02*
X007136Y016124D01*
X007229Y016186D02*
X010127Y016186D01*
X010654Y011451D02*
X010747Y011451D01*
X010911Y011389D02*
X009553Y011389D01*
X009535Y011205D02*
X010827Y011205D01*
X010778Y011143D02*
X009562Y011143D01*
X009615Y011082D02*
X010713Y011082D01*
X010618Y011020D02*
X009767Y011020D01*
X010158Y010959D02*
X010420Y010959D01*
X013306Y016124D02*
X016453Y016124D01*
X016359Y016186D02*
X013435Y016186D01*
X016634Y016124D02*
X017007Y016124D01*
X017761Y014525D02*
X017833Y014525D01*
X017882Y014464D02*
X017691Y014464D01*
X017621Y014402D02*
X017931Y014402D01*
X017980Y014341D02*
X017552Y014341D01*
X017482Y014279D02*
X018029Y014279D01*
X018078Y014218D02*
X017412Y014218D01*
X017342Y014156D02*
X018127Y014156D01*
X017803Y012742D02*
X016718Y012742D01*
X016769Y012681D02*
X017856Y012681D01*
X017273Y012742D02*
X019173Y012742D01*
X019146Y012681D02*
X017150Y012681D01*
X017027Y012619D02*
X019119Y012619D01*
X019090Y012558D02*
X016904Y012558D01*
X015213Y020798D02*
X014319Y020798D01*
X014419Y020859D02*
X015178Y020859D01*
X015144Y020921D02*
X014520Y020921D01*
X014621Y020982D02*
X015109Y020982D01*
X015074Y021044D02*
X014721Y021044D01*
X014822Y021105D02*
X015039Y021105D01*
X015004Y021167D02*
X014922Y021167D01*
X014944Y026676D02*
X014235Y027109D01*
X014944Y028330D01*
X015035Y028466D01*
X015145Y028586D01*
X015273Y028689D01*
X015414Y028771D01*
X015566Y028832D01*
X015726Y028868D01*
X015889Y028881D01*
X019235Y028841D01*
X019235Y028172D01*
X018605Y028172D01*
X015928Y028211D01*
X015891Y028211D01*
X015855Y028202D01*
X015822Y028186D01*
X015793Y028162D01*
X015771Y028133D01*
X015652Y027936D01*
X014944Y026676D01*
X014958Y026701D02*
X014903Y026701D01*
X014992Y026762D02*
X014803Y026762D01*
X014702Y026824D02*
X015027Y026824D01*
X015061Y026885D02*
X014601Y026885D01*
X014501Y026947D02*
X015096Y026947D01*
X015131Y027008D02*
X014400Y027008D01*
X014300Y027070D02*
X015165Y027070D01*
X015200Y027131D02*
X014248Y027131D01*
X014284Y027193D02*
X015234Y027193D01*
X015269Y027254D02*
X014319Y027254D01*
X014355Y027316D02*
X015304Y027316D01*
X015338Y027377D02*
X014391Y027377D01*
X014427Y027439D02*
X015373Y027439D01*
X015407Y027500D02*
X014462Y027500D01*
X014498Y027562D02*
X015442Y027562D01*
X015477Y027623D02*
X014534Y027623D01*
X014569Y027685D02*
X015511Y027685D01*
X015546Y027746D02*
X014605Y027746D01*
X014641Y027808D02*
X015580Y027808D01*
X015615Y027869D02*
X014676Y027869D01*
X014712Y027931D02*
X015650Y027931D01*
X015686Y027992D02*
X014748Y027992D01*
X014784Y028054D02*
X015723Y028054D01*
X015760Y028115D02*
X014819Y028115D01*
X014855Y028177D02*
X015811Y028177D01*
X015659Y028853D02*
X018245Y028853D01*
X017975Y029314D02*
X014471Y029274D01*
X014414Y029276D01*
X014357Y029267D01*
X014304Y029246D01*
X014255Y029216D01*
X014213Y029176D01*
X014180Y029130D01*
X014156Y029078D01*
X013290Y027621D01*
X012582Y028054D01*
X013548Y028054D01*
X013584Y028115D02*
X012617Y028115D01*
X012582Y028054D02*
X013290Y029274D01*
X013381Y029435D01*
X013493Y029581D01*
X013624Y029710D01*
X013772Y029820D01*
X013935Y029907D01*
X014107Y029971D01*
X014288Y030010D01*
X014471Y030023D01*
X018763Y030023D01*
X018763Y029314D01*
X017975Y029314D01*
X018297Y028177D02*
X019235Y028177D01*
X019235Y028238D02*
X014891Y028238D01*
X014926Y028300D02*
X019235Y028300D01*
X019235Y028361D02*
X014965Y028361D01*
X015006Y028423D02*
X019235Y028423D01*
X019235Y028484D02*
X015052Y028484D01*
X015108Y028546D02*
X019235Y028546D01*
X019235Y028607D02*
X015171Y028607D01*
X015247Y028669D02*
X019235Y028669D01*
X019235Y028730D02*
X015343Y028730D01*
X015465Y028792D02*
X019235Y028792D01*
X019524Y029222D02*
X020376Y029222D01*
X020398Y029161D02*
X019585Y029161D01*
X019647Y029099D02*
X020420Y029099D01*
X020442Y029038D02*
X019708Y029038D01*
X019432Y029314D01*
X019393Y030023D01*
X020062Y030101D01*
X020456Y028999D01*
X020474Y028973D01*
X020487Y028944D01*
X020494Y028913D01*
X020495Y028881D01*
X020456Y027975D01*
X019786Y027975D01*
X019786Y028841D01*
X019789Y028886D01*
X019781Y028930D01*
X019765Y028971D01*
X019740Y029008D01*
X019708Y029038D01*
X019761Y028976D02*
X020471Y028976D01*
X020493Y028915D02*
X019784Y028915D01*
X019787Y028853D02*
X020494Y028853D01*
X020491Y028792D02*
X019786Y028792D01*
X019786Y028730D02*
X020488Y028730D01*
X020486Y028669D02*
X019786Y028669D01*
X019786Y028607D02*
X020483Y028607D01*
X020480Y028546D02*
X019786Y028546D01*
X019786Y028484D02*
X020478Y028484D01*
X020475Y028423D02*
X019786Y028423D01*
X019786Y028361D02*
X020472Y028361D01*
X020470Y028300D02*
X019786Y028300D01*
X019786Y028238D02*
X020467Y028238D01*
X020464Y028177D02*
X019786Y028177D01*
X019786Y028115D02*
X020462Y028115D01*
X020459Y028054D02*
X019786Y028054D01*
X019786Y027992D02*
X020456Y027992D01*
X020354Y029284D02*
X019462Y029284D01*
X019430Y029345D02*
X020332Y029345D01*
X020310Y029406D02*
X019427Y029406D01*
X019423Y029468D02*
X020288Y029468D01*
X020266Y029529D02*
X019420Y029529D01*
X019417Y029591D02*
X020244Y029591D01*
X020222Y029652D02*
X019413Y029652D01*
X019410Y029714D02*
X020200Y029714D01*
X020178Y029775D02*
X019406Y029775D01*
X019403Y029837D02*
X020156Y029837D01*
X020134Y029898D02*
X019399Y029898D01*
X019396Y029960D02*
X020112Y029960D01*
X020090Y030021D02*
X019393Y030021D01*
X019906Y030083D02*
X020068Y030083D01*
X018763Y030021D02*
X014456Y030021D01*
X014078Y029960D02*
X018763Y029960D01*
X018763Y029898D02*
X013918Y029898D01*
X013804Y029837D02*
X018763Y029837D01*
X018763Y029775D02*
X013712Y029775D01*
X013629Y029714D02*
X018763Y029714D01*
X018763Y029652D02*
X013565Y029652D01*
X013502Y029591D02*
X018763Y029591D01*
X018763Y029529D02*
X013453Y029529D01*
X013406Y029468D02*
X018763Y029468D01*
X018763Y029406D02*
X013364Y029406D01*
X013330Y029345D02*
X018763Y029345D01*
X015275Y029284D02*
X013295Y029284D01*
X013260Y029222D02*
X014265Y029222D01*
X014202Y029161D02*
X013224Y029161D01*
X013188Y029099D02*
X014166Y029099D01*
X014133Y029038D02*
X013153Y029038D01*
X013117Y028976D02*
X014096Y028976D01*
X014059Y028915D02*
X013081Y028915D01*
X013046Y028853D02*
X014023Y028853D01*
X013986Y028792D02*
X013010Y028792D01*
X012974Y028730D02*
X013950Y028730D01*
X013913Y028669D02*
X012938Y028669D01*
X012903Y028607D02*
X013877Y028607D01*
X013840Y028546D02*
X012867Y028546D01*
X012831Y028484D02*
X013803Y028484D01*
X013767Y028423D02*
X012796Y028423D01*
X012760Y028361D02*
X013730Y028361D01*
X013694Y028300D02*
X012724Y028300D01*
X012688Y028238D02*
X013657Y028238D01*
X013621Y028177D02*
X012653Y028177D01*
X012683Y027992D02*
X013511Y027992D01*
X013474Y027931D02*
X012783Y027931D01*
X012884Y027869D02*
X013438Y027869D01*
X013401Y027808D02*
X012985Y027808D01*
X013085Y027746D02*
X013365Y027746D01*
X013328Y027685D02*
X013186Y027685D01*
X013287Y027623D02*
X013292Y027623D01*
X011007Y028015D02*
X010298Y029235D01*
X010208Y029396D01*
X010096Y029542D01*
X009964Y029671D01*
X009816Y029780D01*
X009654Y029868D01*
X009481Y029931D01*
X009301Y029970D01*
X009117Y029983D01*
X004826Y029983D01*
X004826Y029274D01*
X005613Y029274D01*
X009117Y029235D01*
X009174Y029237D01*
X009231Y029227D01*
X009284Y029207D01*
X009333Y029176D01*
X009375Y029137D01*
X009408Y029090D01*
X009432Y029038D01*
X010296Y027586D01*
X010467Y027685D01*
X011007Y028015D01*
X010970Y027992D02*
X010054Y027992D01*
X010091Y027931D02*
X010869Y027931D01*
X010769Y027869D02*
X010127Y027869D01*
X010164Y027808D02*
X010668Y027808D01*
X010568Y027746D02*
X010200Y027746D01*
X010237Y027685D02*
X010467Y027685D01*
X010361Y027623D02*
X010273Y027623D01*
X010017Y028054D02*
X010984Y028054D01*
X010948Y028115D02*
X009981Y028115D01*
X009944Y028177D02*
X010913Y028177D01*
X010877Y028238D02*
X009908Y028238D01*
X009871Y028300D02*
X010841Y028300D01*
X010806Y028361D02*
X009835Y028361D01*
X009798Y028423D02*
X010770Y028423D01*
X010734Y028484D02*
X009761Y028484D01*
X009725Y028546D02*
X010698Y028546D01*
X010663Y028607D02*
X009688Y028607D01*
X009652Y028669D02*
X010627Y028669D01*
X010591Y028730D02*
X009615Y028730D01*
X009579Y028792D02*
X010556Y028792D01*
X010520Y028853D02*
X009542Y028853D01*
X009506Y028915D02*
X010484Y028915D01*
X010449Y028976D02*
X009469Y028976D01*
X009432Y029038D02*
X010413Y029038D01*
X010377Y029099D02*
X009402Y029099D01*
X009350Y029161D02*
X010341Y029161D01*
X010306Y029222D02*
X009244Y029222D01*
X009348Y029960D02*
X004826Y029960D01*
X004826Y029898D02*
X009571Y029898D01*
X009711Y029837D02*
X004826Y029837D01*
X004826Y029775D02*
X009823Y029775D01*
X009906Y029714D02*
X004826Y029714D01*
X004826Y029652D02*
X009983Y029652D01*
X010046Y029591D02*
X004826Y029591D01*
X004826Y029529D02*
X010105Y029529D01*
X010152Y029468D02*
X004826Y029468D01*
X004826Y029406D02*
X010200Y029406D01*
X010236Y029345D02*
X004826Y029345D01*
X004826Y029284D02*
X010271Y029284D01*
X009139Y027439D02*
X008193Y027439D01*
X008159Y027500D02*
X009103Y027500D01*
X009068Y027562D02*
X008124Y027562D01*
X008090Y027623D02*
X009032Y027623D01*
X008996Y027685D02*
X008055Y027685D01*
X008020Y027746D02*
X008960Y027746D01*
X008925Y027808D02*
X007986Y027808D01*
X007951Y027869D02*
X008889Y027869D01*
X008853Y027931D02*
X007915Y027931D01*
X007936Y027897D02*
X007818Y028093D01*
X007795Y028123D01*
X007767Y028146D01*
X007733Y028163D01*
X007697Y028172D01*
X007660Y028172D01*
X004983Y028133D01*
X004353Y028133D01*
X004353Y028802D01*
X007700Y028802D01*
X007860Y028795D01*
X008018Y028764D01*
X008169Y028709D01*
X008311Y028633D01*
X008439Y028536D01*
X008551Y028421D01*
X008645Y028290D01*
X009353Y027070D01*
X008401Y027070D01*
X008366Y027131D02*
X009318Y027131D01*
X009353Y027070D02*
X008645Y026637D01*
X007936Y027897D01*
X007879Y027992D02*
X008818Y027992D01*
X008782Y028054D02*
X007842Y028054D01*
X007801Y028115D02*
X008746Y028115D01*
X008711Y028177D02*
X004353Y028177D01*
X004353Y028238D02*
X008675Y028238D01*
X008638Y028300D02*
X004353Y028300D01*
X004353Y028361D02*
X008594Y028361D01*
X008549Y028423D02*
X004353Y028423D01*
X004353Y028484D02*
X008489Y028484D01*
X008426Y028546D02*
X004353Y028546D01*
X004353Y028607D02*
X008345Y028607D01*
X008245Y028669D02*
X004353Y028669D01*
X004353Y028730D02*
X008112Y028730D01*
X007878Y028792D02*
X004353Y028792D01*
X004048Y029161D02*
X003205Y029161D01*
X003227Y029222D02*
X004095Y029222D01*
X004142Y029284D02*
X003248Y029284D01*
X003270Y029345D02*
X004189Y029345D01*
X004196Y029353D02*
X003802Y028841D01*
X003802Y027897D01*
X003093Y027897D01*
X003093Y028841D01*
X003095Y028873D01*
X003102Y028904D01*
X003115Y028933D01*
X003133Y028960D01*
X003526Y030062D01*
X004196Y030062D01*
X004196Y029353D01*
X004196Y029406D02*
X003292Y029406D01*
X003314Y029468D02*
X004196Y029468D01*
X004196Y029529D02*
X003336Y029529D01*
X003358Y029591D02*
X004196Y029591D01*
X004196Y029652D02*
X003380Y029652D01*
X003402Y029714D02*
X004196Y029714D01*
X004196Y029775D02*
X003424Y029775D01*
X003446Y029837D02*
X004196Y029837D01*
X004196Y029898D02*
X003468Y029898D01*
X003490Y029960D02*
X004196Y029960D01*
X004196Y030021D02*
X003512Y030021D01*
X003183Y029099D02*
X004000Y029099D01*
X003953Y029038D02*
X003161Y029038D01*
X003139Y028976D02*
X003906Y028976D01*
X003858Y028915D02*
X003106Y028915D01*
X003094Y028853D02*
X003811Y028853D01*
X003802Y028792D02*
X003093Y028792D01*
X003093Y028730D02*
X003802Y028730D01*
X003802Y028669D02*
X003093Y028669D01*
X003093Y028607D02*
X003802Y028607D01*
X003802Y028546D02*
X003093Y028546D01*
X003093Y028484D02*
X003802Y028484D01*
X003802Y028423D02*
X003093Y028423D01*
X003093Y028361D02*
X003802Y028361D01*
X003802Y028300D02*
X003093Y028300D01*
X003093Y028238D02*
X003802Y028238D01*
X003802Y028177D02*
X003093Y028177D01*
X003093Y028115D02*
X003802Y028115D01*
X003802Y028054D02*
X003093Y028054D01*
X003093Y027992D02*
X003802Y027992D01*
X003802Y027931D02*
X003093Y027931D01*
X008228Y027377D02*
X009175Y027377D01*
X009210Y027316D02*
X008263Y027316D01*
X008297Y027254D02*
X009246Y027254D01*
X009282Y027193D02*
X008332Y027193D01*
X008436Y027008D02*
X009253Y027008D01*
X009152Y026947D02*
X008470Y026947D01*
X008505Y026885D02*
X009051Y026885D01*
X008951Y026824D02*
X008539Y026824D01*
X008574Y026762D02*
X008850Y026762D01*
X008750Y026701D02*
X008608Y026701D01*
X008643Y026639D02*
X008649Y026639D01*
X005771Y014511D02*
X006361Y014038D01*
X005889Y013487D01*
X005870Y013461D01*
X005857Y013432D01*
X005850Y013401D01*
X005849Y013369D01*
X005839Y013334D01*
X005822Y013302D01*
X005799Y013274D01*
X005771Y013251D01*
X005698Y013185D01*
X005614Y013134D01*
X005523Y013099D01*
X005427Y013081D01*
X005329Y013081D01*
X005232Y013098D01*
X005141Y013133D01*
X005108Y013146D01*
X005079Y013165D01*
X005055Y013189D01*
X005035Y013219D01*
X005023Y013251D01*
X005006Y013487D01*
X005023Y013723D01*
X005029Y013768D01*
X005044Y013810D01*
X005068Y013848D01*
X005100Y013880D01*
X005138Y013905D01*
X005180Y013920D01*
X005241Y013934D01*
X005298Y013960D01*
X005771Y014511D01*
X005730Y014464D02*
X005829Y014464D01*
X005906Y014402D02*
X005678Y014402D01*
X005625Y014341D02*
X005983Y014341D01*
X006060Y014279D02*
X005572Y014279D01*
X005520Y014218D02*
X006137Y014218D01*
X006213Y014156D02*
X005467Y014156D01*
X005414Y014095D02*
X006290Y014095D01*
X006357Y014033D02*
X005361Y014033D01*
X005309Y013972D02*
X006304Y013972D01*
X006252Y013910D02*
X005154Y013910D01*
X005069Y013849D02*
X006199Y013849D01*
X006146Y013787D02*
X005036Y013787D01*
X005023Y013726D02*
X006093Y013726D01*
X006041Y013664D02*
X005019Y013664D01*
X005014Y013603D02*
X005988Y013603D01*
X005935Y013541D02*
X005010Y013541D01*
X005007Y013480D02*
X005884Y013480D01*
X005854Y013418D02*
X005011Y013418D01*
X005015Y013357D02*
X005846Y013357D01*
X005816Y013295D02*
X005019Y013295D01*
X005029Y013234D02*
X005752Y013234D01*
X005677Y013173D02*
X005071Y013173D01*
X005198Y013111D02*
X005554Y013111D01*
X006316Y012742D02*
X004516Y012742D01*
X004544Y012681D02*
X006427Y012681D01*
X006538Y012619D02*
X004572Y012619D01*
X004604Y012558D02*
X006648Y012558D01*
D29*
X005613Y013369D03*
X005219Y013290D03*
X005219Y013684D03*
X006164Y015298D03*
X006400Y015652D03*
X006676Y015967D03*
X008487Y019983D03*
X008330Y020416D03*
X008802Y020495D03*
X008605Y020928D03*
X010062Y019393D03*
X010219Y018960D03*
X010534Y019471D03*
X010337Y019904D03*
X012897Y019708D03*
X013330Y019629D03*
X013211Y019156D03*
X013645Y019117D03*
X014589Y020652D03*
X014904Y020141D03*
X015023Y020613D03*
X015337Y020062D03*
X016873Y015967D03*
X017149Y015692D03*
X017385Y015377D03*
X018325Y013703D03*
X018334Y013302D03*
X017946Y013370D03*
X018133Y010377D03*
X018369Y010101D03*
X017975Y010023D03*
X016519Y008526D03*
X016125Y008487D03*
X016243Y008841D03*
X020259Y010101D03*
X020574Y010377D03*
X020574Y009786D03*
X020613Y015495D03*
X020613Y015889D03*
X020259Y015692D03*
X014865Y027030D03*
X014668Y027463D03*
X015180Y027582D03*
X015023Y028015D03*
X013526Y028526D03*
X013211Y027975D03*
X013054Y028408D03*
X013369Y028960D03*
X010534Y028330D03*
X010377Y027897D03*
X010023Y028487D03*
X010219Y028920D03*
X008881Y027385D03*
X008723Y026952D03*
X008448Y027463D03*
X008566Y027897D03*
X003054Y015967D03*
X003369Y015652D03*
X003054Y015337D03*
X003015Y010377D03*
X003330Y010101D03*
X003015Y009826D03*
X005180Y010101D03*
X005534Y010456D03*
X005652Y010023D03*
X007109Y008566D03*
X007385Y008841D03*
X007503Y008487D03*
X005062Y004944D03*
D30*
X009009Y008790D02*
X009196Y008644D01*
X008999Y005967D02*
X008891Y005966D01*
X008783Y005970D01*
X008676Y005980D01*
X008569Y005994D01*
X008463Y006014D01*
X008358Y006038D01*
X008255Y006068D01*
X008153Y006103D01*
X008052Y006143D01*
X007954Y006188D01*
X007859Y006237D01*
X007765Y006291D01*
X007675Y006349D01*
X007587Y006412D01*
X007503Y006479D01*
X006558Y007267D01*
X006872Y006086D02*
X006797Y006038D01*
X006720Y005993D01*
X006641Y005952D01*
X006560Y005915D01*
X006477Y005881D01*
X006393Y005851D01*
X006308Y005825D01*
X006221Y005803D01*
X006134Y005785D01*
X006046Y005771D01*
X005731Y006912D02*
X003734Y006920D01*
X003251Y006400D02*
X003221Y006393D01*
X003193Y006382D01*
X003166Y006367D01*
X003142Y006350D01*
X003120Y006329D01*
X003100Y006306D01*
X003084Y006280D01*
X003071Y006253D01*
X003062Y006224D01*
X003056Y006194D01*
X003054Y006164D01*
X003054Y004904D01*
X003251Y006401D02*
X003339Y006415D01*
X003427Y006425D01*
X003516Y006431D01*
X003605Y006433D01*
X003694Y006431D01*
X003783Y006425D01*
X003871Y006415D01*
X003959Y006401D01*
X003960Y006400D02*
X004020Y006391D01*
X004080Y006386D01*
X004141Y006384D01*
X004201Y006386D01*
X004262Y006392D01*
X004321Y006402D01*
X004380Y006416D01*
X004438Y006433D01*
X004495Y006454D01*
X004551Y006479D01*
X004787Y007936D02*
X004908Y007935D01*
X005029Y007928D01*
X005149Y007915D01*
X005269Y007897D01*
X005388Y007873D01*
X005506Y007844D01*
X005622Y007809D01*
X005736Y007769D01*
X005848Y007724D01*
X005958Y007673D01*
X006066Y007617D01*
X006171Y007556D01*
X006273Y007491D01*
X006371Y007421D01*
X006467Y007346D01*
X006558Y007267D01*
X007582Y006715D02*
X004589Y009235D01*
X004944Y009235D02*
X007700Y006912D01*
X007897Y007070D02*
X005219Y009353D01*
X010908Y009204D02*
X010904Y009005D01*
X010893Y008805D01*
X010875Y008607D01*
X010849Y008409D01*
X010652Y008526D02*
X010711Y009200D01*
X010711Y009432D01*
X010908Y009432D02*
X010908Y009204D01*
X011105Y009432D02*
X011302Y009432D01*
X011499Y009432D02*
X011499Y009042D01*
X011696Y009294D02*
X011696Y009432D01*
X011696Y009294D02*
X011676Y008093D01*
X011952Y007936D02*
X011893Y009184D01*
X011893Y009432D01*
X012089Y009432D02*
X012089Y009074D01*
X012306Y009393D02*
X012286Y009432D01*
X012483Y009432D01*
X012483Y008475D01*
X012680Y008979D02*
X012680Y009432D01*
X013133Y009983D02*
X013526Y009983D01*
X013605Y008132D02*
X013701Y008139D01*
X013796Y008151D01*
X013891Y008167D01*
X013985Y008187D01*
X014078Y008211D01*
X014462Y008320D01*
X013999Y008487D02*
X014025Y008532D01*
X014054Y008575D01*
X014086Y008617D01*
X014120Y008657D01*
X014156Y008694D01*
X014195Y008729D01*
X014235Y008762D01*
X014235Y008763D02*
X014632Y009063D01*
X013054Y008054D02*
X013008Y008104D01*
X012964Y008157D01*
X012924Y008211D01*
X012886Y008268D01*
X012851Y008327D01*
X012819Y008387D01*
X012790Y008449D01*
X012765Y008512D01*
X012742Y008576D01*
X012723Y008642D01*
X012708Y008708D01*
X012696Y008775D01*
X012687Y008843D01*
X012682Y008911D01*
X012680Y008979D01*
X012089Y009074D02*
X012084Y009005D01*
X012083Y008935D01*
X012086Y008866D01*
X012092Y008797D01*
X012103Y008728D01*
X012117Y008660D01*
X012135Y008593D01*
X012157Y008527D01*
X012182Y008462D01*
X012211Y008399D01*
X012243Y008337D01*
X012279Y008278D01*
X012318Y008220D01*
X012360Y008165D01*
X012405Y008112D01*
X012453Y008062D01*
X012503Y008014D01*
X012557Y007970D01*
X012612Y007928D01*
X012670Y007890D01*
X012730Y007855D01*
X012792Y007823D01*
X012855Y007795D01*
X012920Y007770D01*
X012986Y007749D01*
X013054Y007731D01*
X013122Y007718D01*
X013191Y007708D01*
X013260Y007702D01*
X013329Y007700D01*
X013448Y007897D02*
X015967Y007897D01*
X015771Y008172D02*
X015249Y008320D01*
X015420Y009063D02*
X015967Y009235D01*
X015928Y007226D02*
X016025Y007225D01*
X016121Y007229D01*
X016216Y007237D01*
X016312Y007249D01*
X016406Y007267D01*
X016500Y007289D01*
X016592Y007315D01*
X016683Y007346D01*
X016773Y007381D01*
X016860Y007421D01*
X016946Y007465D01*
X017029Y007512D01*
X017110Y007564D01*
X017189Y007620D01*
X017188Y007621D02*
X017503Y007857D01*
X017267Y007936D02*
X019038Y009432D01*
X018723Y009432D02*
X017149Y008133D01*
X017030Y008290D02*
X018566Y009589D01*
X018526Y008093D02*
X019826Y007582D01*
X019393Y006755D02*
X019393Y006282D01*
X019629Y005613D02*
X016755Y005613D01*
X016204Y005613D02*
X016184Y005615D01*
X016164Y005620D01*
X016145Y005629D01*
X016128Y005641D01*
X016114Y005655D01*
X016102Y005672D01*
X016093Y005691D01*
X016088Y005711D01*
X016086Y005731D01*
X016086Y006322D01*
X016479Y006282D02*
X016480Y006320D01*
X016477Y006359D01*
X016471Y006397D01*
X016461Y006434D01*
X016448Y006471D01*
X016431Y006505D01*
X016411Y006538D01*
X016388Y006569D01*
X016362Y006598D01*
X016333Y006624D01*
X016302Y006647D01*
X016269Y006667D01*
X016235Y006684D01*
X016198Y006697D01*
X016161Y006707D01*
X016123Y006713D01*
X016084Y006716D01*
X016046Y006715D01*
X015889Y006519D02*
X012857Y006519D01*
X012936Y006322D02*
X015731Y006322D01*
X015751Y006320D01*
X015771Y006315D01*
X015790Y006306D01*
X015807Y006294D01*
X015821Y006280D01*
X015833Y006263D01*
X015842Y006244D01*
X015847Y006224D01*
X015849Y006204D01*
X015849Y005574D01*
X015850Y005574D02*
X015849Y005540D01*
X015853Y005507D01*
X015860Y005474D01*
X015871Y005442D01*
X015885Y005412D01*
X015903Y005383D01*
X015924Y005357D01*
X015948Y005333D01*
X015974Y005312D01*
X016003Y005294D01*
X016033Y005280D01*
X016065Y005269D01*
X016098Y005262D01*
X016131Y005258D01*
X016165Y005259D01*
X016479Y006282D02*
X016479Y003605D01*
X016479Y003606D02*
X016474Y003579D01*
X016473Y003551D01*
X016475Y003524D01*
X016480Y003497D01*
X016489Y003471D01*
X016500Y003446D01*
X016515Y003423D01*
X016532Y003402D01*
X016552Y003383D01*
X016574Y003366D01*
X016597Y003353D01*
X016623Y003342D01*
X016649Y003334D01*
X016676Y003330D01*
X017621Y003330D01*
X017621Y003841D01*
X017621Y003330D02*
X019314Y003330D01*
X019314Y003841D01*
X019314Y003330D02*
X020298Y003330D01*
X020326Y003332D01*
X020354Y003337D01*
X020382Y003345D01*
X020408Y003357D01*
X020432Y003372D01*
X020454Y003389D01*
X020475Y003410D01*
X020492Y003432D01*
X020507Y003456D01*
X020519Y003482D01*
X020527Y003510D01*
X020532Y003538D01*
X020534Y003566D01*
X020534Y005810D01*
X018723Y005810D01*
X018694Y005806D01*
X018665Y005806D01*
X018636Y005810D01*
X018608Y005817D01*
X018581Y005828D01*
X018555Y005841D01*
X018531Y005858D01*
X018510Y005878D01*
X018491Y005900D01*
X018475Y005925D01*
X018463Y005951D01*
X018453Y005978D01*
X018447Y006007D01*
X018448Y006007D02*
X018408Y006282D01*
X018527Y008092D02*
X018471Y008112D01*
X018415Y008129D01*
X018358Y008141D01*
X018300Y008150D01*
X018241Y008155D01*
X018182Y008157D01*
X018124Y008155D01*
X018065Y008149D01*
X018007Y008139D01*
X017950Y008126D01*
X017894Y008109D01*
X017839Y008089D01*
X017785Y008065D01*
X017733Y008038D01*
X017683Y008008D01*
X017634Y007974D01*
X017588Y007938D01*
X017545Y007898D01*
X017504Y007856D01*
X016755Y005259D02*
X016896Y005223D01*
X017040Y005194D01*
X017184Y005171D01*
X017329Y005154D01*
X017475Y005144D01*
X017621Y005141D01*
X018054Y005141D01*
X018408Y004314D02*
X018408Y003841D01*
X019747Y005141D02*
X019747Y005495D01*
X019745Y005515D01*
X019740Y005535D01*
X019731Y005554D01*
X019719Y005571D01*
X019705Y005585D01*
X019688Y005597D01*
X019669Y005606D01*
X019649Y005611D01*
X019629Y005613D01*
X020180Y006282D02*
X020416Y006282D01*
X020436Y006280D01*
X020456Y006275D01*
X020475Y006266D01*
X020492Y006254D01*
X020506Y006240D01*
X020518Y006223D01*
X020527Y006204D01*
X020532Y006184D01*
X020534Y006164D01*
X020534Y005810D01*
X020101Y004314D02*
X020101Y003841D01*
X018054Y007582D02*
X016873Y007149D01*
X017621Y006755D02*
X017621Y006282D01*
X016086Y006322D02*
X016084Y006348D01*
X016079Y006373D01*
X016071Y006397D01*
X016060Y006420D01*
X016045Y006442D01*
X016028Y006461D01*
X016009Y006478D01*
X015988Y006493D01*
X015964Y006504D01*
X015940Y006512D01*
X015915Y006517D01*
X015889Y006519D01*
X015928Y007227D02*
X014235Y007188D01*
X014274Y006940D02*
X014234Y006938D01*
X014193Y006940D01*
X014153Y006946D01*
X014113Y006956D01*
X014074Y006970D01*
X014037Y006986D01*
X014002Y007007D01*
X013968Y007030D01*
X013937Y007057D01*
X013909Y007086D01*
X013883Y007118D01*
X013861Y007152D01*
X013841Y007188D01*
X011047Y007345D02*
X011044Y007424D01*
X011044Y007502D01*
X011047Y007581D01*
X010731Y007464D02*
X010732Y007509D01*
X010737Y007554D01*
X010746Y007598D01*
X010758Y007642D01*
X010773Y007684D01*
X010792Y007726D01*
X010815Y007765D01*
X010840Y007803D01*
X010868Y007838D01*
X010899Y007871D01*
X010932Y007902D01*
X010968Y007929D01*
X011006Y007954D01*
X011046Y007975D01*
X010692Y008015D02*
X010659Y007975D01*
X010629Y007932D01*
X010602Y007888D01*
X010577Y007842D01*
X010556Y007794D01*
X010537Y007746D01*
X010522Y007696D01*
X010510Y007646D01*
X010500Y007594D01*
X010495Y007543D01*
X010259Y008133D02*
X009471Y008015D01*
X009289Y007914D01*
X011045Y007346D02*
X011021Y007265D01*
X010992Y007185D01*
X010960Y007107D01*
X010924Y007030D01*
X010884Y006955D01*
X010841Y006882D01*
X010794Y006811D01*
X010744Y006743D01*
X010691Y006677D01*
X009708Y006912D02*
X009713Y006964D01*
X009720Y007015D01*
X009730Y007066D01*
X009744Y007116D01*
X009760Y007165D01*
X009779Y007213D01*
X009802Y007260D01*
X009826Y007306D01*
X009944Y006676D02*
X009996Y006691D01*
X010046Y006710D01*
X010095Y006733D01*
X010142Y006759D01*
X010187Y006788D01*
X010230Y006820D01*
X010271Y006856D01*
X010308Y006894D01*
X010344Y006935D01*
X010376Y006978D01*
X010404Y007023D01*
X010430Y007071D01*
X010452Y007120D01*
X010471Y007170D01*
X010486Y007222D01*
X010497Y007274D01*
X010504Y007328D01*
X010508Y007381D01*
X010507Y007435D01*
X010503Y007489D01*
X010495Y007542D01*
X011558Y007699D02*
X011584Y007752D01*
X011608Y007806D01*
X011628Y007862D01*
X011645Y007919D01*
X011659Y007976D01*
X011669Y008034D01*
X011676Y008093D01*
X011558Y007700D02*
X011530Y007601D01*
X012030Y007582D02*
X012192Y007605D01*
X012424Y007306D01*
X012684Y007562D02*
X012818Y007503D01*
X012621Y007030D02*
X012631Y006993D01*
X012645Y006956D01*
X012662Y006921D01*
X012683Y006888D01*
X012706Y006858D01*
X012733Y006829D01*
X012762Y006803D01*
X012794Y006780D01*
X012827Y006761D01*
X012863Y006744D01*
X012899Y006732D01*
X012937Y006722D01*
X012976Y006717D01*
X013015Y006715D01*
X012857Y006518D02*
X012826Y006516D01*
X012796Y006511D01*
X012766Y006503D01*
X012737Y006491D01*
X012710Y006477D01*
X012684Y006459D01*
X012660Y006439D01*
X012739Y006244D02*
X012715Y006224D01*
X012689Y006206D01*
X012662Y006192D01*
X012633Y006180D01*
X012603Y006172D01*
X012573Y006167D01*
X012542Y006165D01*
X012542Y006164D02*
X010810Y006164D01*
X010789Y006166D01*
X010768Y006171D01*
X010748Y006180D01*
X010730Y006192D01*
X010715Y006207D01*
X010702Y006224D01*
X010692Y006243D01*
X009944Y006676D02*
X009884Y006658D01*
X009826Y006636D01*
X009826Y006637D02*
X008920Y006637D01*
X008841Y006400D02*
X009629Y006400D01*
X009589Y006164D02*
X008920Y006164D01*
X008999Y005967D02*
X014078Y005967D01*
X013960Y005771D02*
X008802Y005771D01*
X008763Y005574D02*
X011834Y005574D01*
X011834Y005573D02*
X011860Y005574D01*
X011886Y005570D01*
X011912Y005563D01*
X011936Y005552D01*
X011958Y005538D01*
X011978Y005521D01*
X011995Y005501D01*
X012009Y005479D01*
X012020Y005455D01*
X012027Y005429D01*
X012031Y005403D01*
X012030Y005377D01*
X012030Y004471D01*
X012030Y004472D02*
X012031Y004453D01*
X012028Y004434D01*
X012021Y004416D01*
X012012Y004399D01*
X012000Y004384D01*
X011985Y004372D01*
X011968Y004363D01*
X011950Y004356D01*
X011931Y004353D01*
X011912Y004354D01*
X011912Y004353D02*
X010928Y004353D01*
X010928Y004097D02*
X010660Y004089D01*
X010456Y003960D01*
X009865Y003960D01*
X009786Y003606D02*
X009744Y003608D01*
X009701Y003613D01*
X009660Y003622D01*
X009619Y003634D01*
X009580Y003649D01*
X009541Y003668D01*
X009505Y003690D01*
X009470Y003715D01*
X009438Y003742D01*
X009408Y003772D01*
X009381Y003805D01*
X009356Y003839D01*
X009334Y003876D01*
X009316Y003914D01*
X009300Y003954D01*
X009288Y003994D01*
X009280Y004036D01*
X009275Y004078D01*
X009274Y004078D02*
X009274Y005023D01*
X009707Y005023D02*
X009714Y004993D01*
X009718Y004963D01*
X009719Y004933D01*
X009716Y004903D01*
X009709Y004873D01*
X009699Y004845D01*
X009686Y004817D01*
X009669Y004792D01*
X009650Y004768D01*
X009628Y004747D01*
X009629Y004747D02*
X009605Y004731D01*
X009584Y004713D01*
X009565Y004693D01*
X009548Y004671D01*
X009534Y004646D01*
X009523Y004621D01*
X009515Y004594D01*
X009510Y004566D01*
X009509Y004538D01*
X009511Y004510D01*
X009511Y004511D02*
X009511Y004353D01*
X008841Y003880D02*
X008865Y003829D01*
X008891Y003779D01*
X008921Y003731D01*
X008954Y003684D01*
X008989Y003640D01*
X009028Y003598D01*
X009068Y003559D01*
X009112Y003522D01*
X009157Y003488D01*
X009205Y003457D01*
X009254Y003429D01*
X009305Y003405D01*
X009357Y003383D01*
X009411Y003365D01*
X009466Y003350D01*
X009521Y003339D01*
X009577Y003331D01*
X009634Y003327D01*
X009691Y003326D01*
X009747Y003329D01*
X009747Y003330D02*
X011952Y003330D01*
X011989Y003332D01*
X012026Y003338D01*
X012061Y003347D01*
X012096Y003361D01*
X012129Y003377D01*
X012160Y003398D01*
X012189Y003421D01*
X012215Y003447D01*
X012238Y003476D01*
X012259Y003507D01*
X012275Y003540D01*
X012289Y003575D01*
X012298Y003610D01*
X012304Y003647D01*
X012306Y003684D01*
X012306Y005141D01*
X012308Y005174D01*
X012313Y005207D01*
X012322Y005240D01*
X012334Y005271D01*
X012349Y005301D01*
X012367Y005329D01*
X012389Y005354D01*
X012412Y005378D01*
X012439Y005399D01*
X012467Y005417D01*
X012497Y005432D01*
X012528Y005443D01*
X012560Y005452D01*
X012593Y005457D01*
X012627Y005458D01*
X012660Y005456D01*
X013802Y005456D01*
X014117Y005613D02*
X014115Y005635D01*
X014111Y005657D01*
X014103Y005678D01*
X014092Y005698D01*
X014079Y005716D01*
X014063Y005732D01*
X014045Y005745D01*
X014025Y005756D01*
X014004Y005764D01*
X013982Y005768D01*
X013960Y005770D01*
X014078Y005967D02*
X014106Y005965D01*
X014134Y005960D01*
X014162Y005952D01*
X014188Y005940D01*
X014212Y005925D01*
X014234Y005908D01*
X014255Y005887D01*
X014272Y005865D01*
X014287Y005841D01*
X014299Y005815D01*
X014307Y005787D01*
X014312Y005759D01*
X014314Y005731D01*
X014314Y004865D01*
X014471Y004353D02*
X014510Y004355D01*
X014548Y004361D01*
X014585Y004370D01*
X014622Y004383D01*
X014657Y004400D01*
X014690Y004419D01*
X014721Y004442D01*
X014750Y004468D01*
X014776Y004497D01*
X014799Y004528D01*
X014818Y004561D01*
X014835Y004596D01*
X014848Y004633D01*
X014857Y004670D01*
X014863Y004708D01*
X014865Y004747D01*
X014865Y005771D01*
X014550Y006046D02*
X014550Y004668D01*
X014471Y004353D02*
X013369Y004353D01*
X013369Y004865D02*
X013920Y004865D01*
X014078Y004629D02*
X014106Y004631D01*
X014134Y004636D01*
X014162Y004644D01*
X014188Y004656D01*
X014212Y004671D01*
X014234Y004688D01*
X014255Y004709D01*
X014272Y004731D01*
X014287Y004755D01*
X014299Y004781D01*
X014307Y004809D01*
X014312Y004837D01*
X014314Y004865D01*
X014117Y005062D02*
X014117Y005613D01*
X014117Y005062D02*
X014115Y005036D01*
X014110Y005011D01*
X014102Y004987D01*
X014091Y004963D01*
X014076Y004942D01*
X014059Y004923D01*
X014040Y004906D01*
X014018Y004891D01*
X013995Y004880D01*
X013971Y004872D01*
X013946Y004867D01*
X013920Y004865D01*
X013369Y005121D02*
X012818Y005101D01*
X012739Y006242D02*
X012763Y006262D01*
X012789Y006280D01*
X012816Y006294D01*
X012845Y006306D01*
X012875Y006314D01*
X012905Y006319D01*
X012936Y006321D01*
X012424Y006361D02*
X011282Y006361D01*
X011249Y006363D01*
X011217Y006368D01*
X011185Y006377D01*
X011155Y006390D01*
X011126Y006406D01*
X011100Y006425D01*
X011075Y006447D01*
X011054Y006472D01*
X011035Y006498D01*
X011019Y006527D01*
X011007Y006558D01*
X011530Y006814D02*
X011873Y007149D01*
X012192Y006818D01*
X012621Y007031D02*
X012600Y007075D01*
X012577Y007118D01*
X012552Y007159D01*
X012523Y007199D01*
X012492Y007237D01*
X012459Y007273D01*
X012424Y007306D01*
X012660Y006440D02*
X012636Y006419D01*
X012609Y006401D01*
X012581Y006386D01*
X012551Y006374D01*
X012520Y006366D01*
X012488Y006361D01*
X012456Y006359D01*
X012424Y006361D01*
X013133Y007463D02*
X015928Y007463D01*
X015180Y006046D02*
X015180Y004156D01*
X015180Y004157D02*
X015181Y004123D01*
X015177Y004090D01*
X015170Y004058D01*
X015160Y004027D01*
X015146Y003997D01*
X015128Y003968D01*
X015108Y003942D01*
X015085Y003918D01*
X015059Y003897D01*
X015031Y003879D01*
X015001Y003865D01*
X014970Y003853D01*
X014938Y003846D01*
X014905Y003842D01*
X014078Y004629D02*
X013724Y004624D01*
X013369Y004609D01*
X011597Y004865D02*
X010928Y004865D01*
X010219Y004393D02*
X009826Y004393D01*
X009511Y004353D02*
X009508Y004318D01*
X009509Y004282D01*
X009513Y004247D01*
X009521Y004213D01*
X009533Y004179D01*
X009547Y004147D01*
X009565Y004117D01*
X009586Y004088D01*
X009610Y004062D01*
X009636Y004038D01*
X009664Y004017D01*
X009695Y003999D01*
X009727Y003984D01*
X009761Y003973D01*
X009795Y003965D01*
X009830Y003960D01*
X009865Y003959D01*
X009747Y008291D02*
X009929Y008323D01*
X010113Y008350D01*
X010298Y008370D01*
X010322Y008374D01*
X010345Y008381D01*
X010367Y008391D01*
X010387Y008404D01*
X010405Y008420D01*
X010421Y008438D01*
X010434Y008458D01*
X010444Y008480D01*
X010451Y008503D01*
X010455Y008527D01*
X010652Y008526D02*
X010649Y008488D01*
X010641Y008451D01*
X010631Y008414D01*
X010617Y008379D01*
X010600Y008345D01*
X010580Y008312D01*
X010557Y008282D01*
X010531Y008254D01*
X010503Y008228D01*
X010473Y008205D01*
X010440Y008185D01*
X010406Y008168D01*
X010371Y008154D01*
X010334Y008144D01*
X010297Y008136D01*
X010259Y008133D01*
X010691Y008014D02*
X010721Y008059D01*
X010748Y008105D01*
X010772Y008153D01*
X010793Y008202D01*
X010812Y008252D01*
X010827Y008303D01*
X010839Y008355D01*
X010849Y008408D01*
X011047Y007975D02*
X011094Y008000D01*
X011139Y008028D01*
X011182Y008059D01*
X011223Y008093D01*
X011261Y008130D01*
X011297Y008170D01*
X011330Y008211D01*
X011360Y008255D01*
X011388Y008301D01*
X011411Y008349D01*
X011432Y008398D01*
X011449Y008448D01*
X011463Y008500D01*
X011473Y008552D01*
X011480Y008605D01*
X010102Y008684D02*
X010066Y008713D01*
X010032Y008745D01*
X010001Y008779D01*
X009973Y008816D01*
X009948Y008854D01*
X009926Y008895D01*
X009907Y008937D01*
X009891Y008981D01*
X009879Y009025D01*
X009870Y009071D01*
X009865Y009117D01*
X009865Y009629D01*
X010188Y009708D02*
X010149Y009310D01*
X010176Y009196D01*
X012877Y009290D02*
X012878Y009361D01*
X012877Y009432D01*
X013448Y010180D02*
X013499Y010185D01*
X013550Y010186D01*
X013601Y010183D01*
X013652Y010177D01*
X013702Y010167D01*
X013751Y010154D01*
X013800Y010136D01*
X013847Y010116D01*
X013892Y010092D01*
X013935Y010064D01*
X013976Y010034D01*
X014015Y010000D01*
X014051Y009964D01*
X014085Y009925D01*
X014115Y009884D01*
X014143Y009841D01*
X014167Y009796D01*
X014187Y009749D01*
X014205Y009701D01*
X014218Y009651D01*
X014228Y009601D01*
X014234Y009550D01*
X014550Y010613D02*
X014476Y010646D01*
X014401Y010676D01*
X014324Y010702D01*
X014246Y010724D01*
X014167Y010742D01*
X014087Y010757D01*
X014007Y010767D01*
X013926Y010774D01*
X013845Y010777D01*
X013764Y010776D01*
X013684Y010771D01*
X013133Y010771D01*
X013133Y010574D02*
X013526Y010574D01*
X013526Y010377D02*
X013133Y010377D01*
X013526Y009983D02*
X013565Y009984D01*
X013603Y009981D01*
X013641Y009975D01*
X013678Y009965D01*
X013714Y009951D01*
X013749Y009935D01*
X013781Y009915D01*
X013812Y009892D01*
X013841Y009866D01*
X013867Y009837D01*
X013890Y009806D01*
X013910Y009774D01*
X013926Y009739D01*
X013940Y009703D01*
X013950Y009666D01*
X013956Y009628D01*
X013959Y009590D01*
X014628Y009826D02*
X014584Y009881D01*
X014538Y009935D01*
X014488Y009986D01*
X014436Y010034D01*
X014381Y010079D01*
X014325Y010122D01*
X014266Y010162D01*
X014205Y010198D01*
X014142Y010232D01*
X014078Y010262D01*
X014012Y010288D01*
X013945Y010312D01*
X013877Y010332D01*
X013808Y010348D01*
X013738Y010361D01*
X013668Y010370D01*
X013597Y010375D01*
X013526Y010377D01*
X013527Y010574D02*
X013613Y010576D01*
X013700Y010574D01*
X013787Y010568D01*
X013873Y010557D01*
X013958Y010543D01*
X014043Y010524D01*
X014127Y010501D01*
X014209Y010474D01*
X014290Y010443D01*
X014370Y010408D01*
X014447Y010369D01*
X014523Y010327D01*
X014596Y010281D01*
X014668Y010231D01*
X014736Y010178D01*
X014802Y010122D01*
X014865Y010062D01*
X014865Y009668D02*
X014908Y009670D01*
X014951Y009677D01*
X014992Y009686D01*
X015033Y009700D01*
X015073Y009716D01*
X015111Y009737D01*
X015147Y009760D01*
X015180Y009786D01*
X014865Y009669D02*
X014833Y009673D01*
X014801Y009680D01*
X014770Y009692D01*
X014740Y009707D01*
X014713Y009725D01*
X014688Y009747D01*
X014665Y009771D01*
X014646Y009797D01*
X014630Y009826D01*
X013999Y008487D02*
X013970Y008461D01*
X013939Y008437D01*
X013906Y008416D01*
X013871Y008399D01*
X013835Y008384D01*
X013798Y008373D01*
X013760Y008365D01*
X013721Y008361D01*
X013682Y008360D01*
X013644Y008363D01*
X013605Y008368D01*
X013447Y007896D02*
X013404Y007896D01*
X013360Y007900D01*
X013317Y007908D01*
X013275Y007919D01*
X013234Y007933D01*
X013194Y007951D01*
X013156Y007972D01*
X013119Y007997D01*
X013085Y008024D01*
X013054Y008054D01*
X011952Y007936D02*
X011960Y007863D01*
X011972Y007791D01*
X011988Y007720D01*
X012008Y007650D01*
X012031Y007581D01*
X012818Y007502D02*
X012870Y007488D01*
X012922Y007478D01*
X012974Y007469D01*
X013027Y007464D01*
X013080Y007462D01*
X013133Y007463D01*
X013605Y008133D02*
X013557Y008132D01*
X013508Y008135D01*
X013461Y008141D01*
X013413Y008151D01*
X013367Y008165D01*
X013322Y008181D01*
X013278Y008201D01*
X013236Y008225D01*
X013195Y008251D01*
X013157Y008280D01*
X013121Y008313D01*
X013087Y008347D01*
X013056Y008384D01*
X013028Y008424D01*
X013003Y008465D01*
X012981Y008508D01*
X012963Y008552D01*
X012947Y008598D01*
X012935Y008645D01*
X013132Y008802D02*
X013133Y008762D01*
X013138Y008722D01*
X013146Y008682D01*
X013158Y008644D01*
X013174Y008606D01*
X013193Y008571D01*
X013215Y008537D01*
X013241Y008506D01*
X013269Y008477D01*
X013301Y008452D01*
X013334Y008429D01*
X013369Y008409D01*
X013406Y008393D01*
X013445Y008381D01*
X013484Y008372D01*
X013524Y008367D01*
X013565Y008366D01*
X013605Y008369D01*
X012936Y008645D02*
X012912Y008772D01*
X012894Y008901D01*
X012882Y009030D01*
X012876Y009160D01*
X012877Y009290D01*
X010456Y009983D02*
X010337Y009983D01*
X009904Y010377D02*
X009929Y010410D01*
X009957Y010441D01*
X009988Y010469D01*
X010021Y010494D01*
X010057Y010516D01*
X010094Y010535D01*
X010133Y010550D01*
X010173Y010562D01*
X010214Y010570D01*
X010256Y010573D01*
X010298Y010574D01*
X010456Y010574D01*
X010455Y010180D02*
X010429Y010177D01*
X010403Y010177D01*
X010377Y010180D01*
X010298Y010377D02*
X010267Y010378D01*
X010236Y010375D01*
X010206Y010368D01*
X010177Y010357D01*
X010149Y010344D01*
X010124Y010327D01*
X010100Y010307D01*
X010079Y010284D01*
X010061Y010259D01*
X010062Y010259D02*
X009471Y009550D01*
X009461Y009535D01*
X009454Y009518D01*
X009450Y009500D01*
X009450Y009482D01*
X009454Y009464D01*
X009461Y009447D01*
X009471Y009432D01*
X009195Y009511D02*
X009180Y009497D01*
X009166Y009481D01*
X009156Y009463D01*
X009149Y009443D01*
X009145Y009422D01*
X009145Y009402D01*
X009149Y009381D01*
X009156Y009361D01*
X009166Y009343D01*
X009180Y009327D01*
X009195Y009313D01*
X009196Y009314D02*
X009314Y009196D01*
X009196Y009511D02*
X009904Y010377D01*
X010101Y010771D02*
X009384Y010616D01*
X009393Y010574D01*
X008999Y010101D01*
X008473Y009530D02*
X007385Y008841D01*
X011479Y008605D02*
X011494Y008823D01*
X011499Y009042D01*
X010456Y010377D02*
X010298Y010377D01*
X010456Y010771D02*
X010101Y010771D01*
X003881Y010180D02*
X003786Y010408D01*
X003701Y010640D01*
X003627Y010875D01*
X003564Y011113D01*
X003511Y011354D01*
X003468Y011598D01*
X003437Y011842D01*
X003416Y012088D01*
X003407Y012335D01*
X003408Y012582D01*
X003408Y013920D01*
X003723Y013802D02*
X003723Y011834D01*
X003999Y011912D02*
X003999Y013802D01*
X004274Y015613D02*
X004274Y027660D01*
X004038Y027660D01*
X004038Y028841D01*
X004038Y028842D02*
X004043Y028863D01*
X004052Y028884D01*
X004063Y028903D01*
X004078Y028920D01*
X004095Y028935D01*
X004114Y028946D01*
X004135Y028955D01*
X004156Y028960D01*
X004511Y028290D02*
X004669Y028370D01*
X004511Y028290D02*
X004511Y015652D01*
X004038Y015928D02*
X004078Y027424D01*
X003409Y027424D01*
X004157Y028959D02*
X004260Y029005D01*
X004362Y029056D01*
X004461Y029112D01*
X004557Y029172D01*
X004650Y029238D01*
X004739Y029307D01*
X004826Y029381D01*
X004908Y029459D01*
X004987Y029541D01*
X005061Y029627D01*
X008211Y008841D02*
X007542Y007817D01*
X008054Y007936D02*
X008503Y008188D01*
X007424Y006282D02*
X007501Y006219D01*
X007582Y006159D01*
X007665Y006103D01*
X007751Y006051D01*
X007839Y006004D01*
X007929Y005960D01*
X008021Y005921D01*
X008115Y005886D01*
X008210Y005856D01*
X008306Y005830D01*
X008404Y005809D01*
X008503Y005792D01*
X008602Y005780D01*
X008702Y005773D01*
X008802Y005770D01*
X009274Y006912D02*
X009550Y007463D01*
X009943Y006440D02*
X010004Y006457D01*
X010064Y006478D01*
X010122Y006503D01*
X010179Y006531D01*
X010234Y006563D01*
X010287Y006597D01*
X010337Y006635D01*
X010386Y006676D01*
X010431Y006720D01*
X010474Y006766D01*
X010514Y006815D01*
X010552Y006867D01*
X010585Y006920D01*
X010616Y006976D01*
X010643Y007033D01*
X010667Y007092D01*
X010687Y007152D01*
X010703Y007213D01*
X010716Y007275D01*
X010725Y007337D01*
X010730Y007400D01*
X010731Y007464D01*
X010180Y008645D02*
X010162Y008647D01*
X010144Y008652D01*
X010128Y008660D01*
X010113Y008671D01*
X010101Y008684D01*
X009746Y008290D02*
X009723Y008287D01*
X009699Y008287D01*
X009675Y008290D01*
X009652Y008296D01*
X009630Y008305D01*
X009609Y008316D01*
X009589Y008330D01*
X009944Y006440D02*
X009882Y006426D01*
X009819Y006415D01*
X009756Y006407D01*
X009692Y006403D01*
X009629Y006401D01*
X009826Y007306D02*
X009841Y007348D01*
X009853Y007391D01*
X009862Y007434D01*
X009867Y007479D01*
X009869Y007523D01*
X009867Y007567D01*
X009862Y007612D01*
X009853Y007655D01*
X009841Y007698D01*
X009826Y007740D01*
X010691Y006676D02*
X010642Y006621D01*
X010590Y006568D01*
X010536Y006518D01*
X010479Y006471D01*
X010420Y006427D01*
X010359Y006386D01*
X010295Y006349D01*
X010230Y006314D01*
X010163Y006283D01*
X010095Y006255D01*
X010025Y006231D01*
X009954Y006211D01*
X009882Y006194D01*
X009810Y006181D01*
X009736Y006172D01*
X009663Y006166D01*
X009589Y006164D01*
X008783Y007311D02*
X008211Y007424D01*
X007385Y006046D02*
X007457Y005986D01*
X007531Y005930D01*
X007608Y005877D01*
X007688Y005828D01*
X007770Y005783D01*
X007854Y005742D01*
X007940Y005706D01*
X008027Y005673D01*
X008116Y005645D01*
X008207Y005621D01*
X008298Y005602D01*
X008390Y005587D01*
X008483Y005577D01*
X008576Y005571D01*
X008670Y005570D01*
X008763Y005574D01*
X008841Y006401D02*
X008765Y006403D01*
X008690Y006409D01*
X008614Y006418D01*
X008540Y006431D01*
X008466Y006448D01*
X008393Y006468D01*
X008321Y006492D01*
X008250Y006520D01*
X008181Y006551D01*
X008114Y006585D01*
X008048Y006623D01*
X007984Y006664D01*
X007922Y006708D01*
X007863Y006755D01*
X007806Y006805D01*
X007751Y006857D01*
X007700Y006913D01*
X007897Y007070D02*
X007948Y007020D01*
X008001Y006973D01*
X008057Y006928D01*
X008114Y006886D01*
X008174Y006848D01*
X008236Y006812D01*
X008299Y006779D01*
X008364Y006750D01*
X008431Y006724D01*
X008498Y006701D01*
X008567Y006681D01*
X008637Y006665D01*
X008707Y006653D01*
X008778Y006644D01*
X008849Y006639D01*
X008920Y006637D01*
X008920Y006164D02*
X008827Y006166D01*
X008735Y006173D01*
X008643Y006184D01*
X008551Y006200D01*
X008461Y006220D01*
X008371Y006245D01*
X008283Y006274D01*
X008196Y006307D01*
X008111Y006345D01*
X008028Y006386D01*
X007947Y006432D01*
X007869Y006481D01*
X007793Y006534D01*
X007719Y006591D01*
X007649Y006651D01*
X007581Y006715D01*
X009629Y008999D02*
X009623Y009051D01*
X009615Y009102D01*
X009603Y009152D01*
X009589Y009202D01*
X009571Y009251D01*
X009550Y009298D01*
X009527Y009344D01*
X009500Y009389D01*
X009471Y009432D01*
X005220Y009353D02*
X005099Y009461D01*
X004983Y009575D01*
X004873Y009694D01*
X004768Y009818D01*
X004669Y009947D01*
X004576Y010080D01*
X004490Y010217D01*
X004410Y010358D01*
X004337Y010503D01*
X004271Y010651D01*
X004211Y010802D01*
X004159Y010955D01*
X004114Y011111D01*
X004076Y011269D01*
X004045Y011428D01*
X004022Y011589D01*
X004007Y011750D01*
X003999Y011912D01*
X003408Y013920D02*
X003410Y014020D01*
X003418Y014120D01*
X003430Y014220D01*
X003446Y014319D01*
X003468Y014417D01*
X003494Y014513D01*
X003525Y014609D01*
X003560Y014703D01*
X003600Y014795D01*
X003644Y014885D01*
X003693Y014973D01*
X003745Y015058D01*
X003802Y015141D01*
X003803Y015140D02*
X003842Y015198D01*
X003878Y015258D01*
X003910Y015320D01*
X003939Y015383D01*
X003965Y015448D01*
X003987Y015514D01*
X004005Y015582D01*
X004020Y015650D01*
X004030Y015719D01*
X004037Y015788D01*
X004040Y015858D01*
X004039Y015928D01*
X003841Y014629D02*
X003805Y014494D01*
X003776Y014357D01*
X003753Y014220D01*
X003736Y014081D01*
X003726Y013942D01*
X003723Y013802D01*
X003881Y010180D02*
X003932Y010073D01*
X003988Y009967D01*
X004048Y009864D01*
X004113Y009764D01*
X004182Y009668D01*
X004255Y009574D01*
X004333Y009484D01*
X004415Y009397D01*
X004501Y009314D01*
X004590Y009236D01*
X004786Y007936D02*
X003634Y007920D01*
X010456Y008526D02*
X010478Y008841D01*
X010485Y009156D01*
X010478Y009471D01*
X010456Y009786D01*
X019668Y013684D02*
X019622Y013980D01*
X019562Y014275D01*
X019490Y014566D01*
X019404Y014854D01*
X019306Y015137D01*
X019196Y015416D01*
X019274Y016007D02*
X019904Y013841D01*
X019904Y011991D01*
X020180Y011873D02*
X020180Y013881D01*
X020141Y014038D02*
X019550Y016007D01*
X019511Y016125D01*
X019511Y027542D01*
X020259Y027542D01*
X019550Y027739D02*
X019274Y027739D01*
X019274Y016007D01*
X019038Y016361D02*
X019038Y028330D01*
X018920Y028408D01*
X019550Y028841D02*
X019548Y028862D01*
X019543Y028883D01*
X019534Y028903D01*
X019522Y028921D01*
X019507Y028936D01*
X019490Y028949D01*
X019471Y028959D01*
X019471Y028960D02*
X018645Y029314D01*
X018369Y029668D01*
X019550Y028841D02*
X019550Y027739D01*
X019039Y016361D02*
X019034Y016264D01*
X019035Y016167D01*
X019039Y016071D01*
X019048Y015975D01*
X019062Y015879D01*
X019080Y015784D01*
X019103Y015690D01*
X019130Y015597D01*
X019161Y015506D01*
X019196Y015416D01*
X020141Y014039D02*
X020155Y014009D01*
X020166Y013978D01*
X020174Y013946D01*
X020178Y013914D01*
X020180Y013881D01*
X019668Y013684D02*
X019668Y012188D01*
X013960Y009589D02*
X013960Y009275D01*
X015928Y007463D02*
X016031Y007466D01*
X016134Y007473D01*
X016237Y007486D01*
X016339Y007503D01*
X016440Y007525D01*
X016540Y007553D01*
X016638Y007585D01*
X016735Y007621D01*
X016829Y007663D01*
X016922Y007709D01*
X017012Y007759D01*
X017100Y007814D01*
X017185Y007873D01*
X017267Y007936D01*
X017030Y008290D02*
X016970Y008241D01*
X016908Y008195D01*
X016844Y008152D01*
X016778Y008112D01*
X016710Y008075D01*
X016641Y008042D01*
X016570Y008011D01*
X016497Y007985D01*
X016424Y007961D01*
X016349Y007941D01*
X016274Y007925D01*
X016198Y007912D01*
X016121Y007903D01*
X016044Y007898D01*
X015967Y007896D01*
X015928Y006991D02*
X016049Y006991D01*
X016169Y006997D01*
X016289Y007008D01*
X016408Y007025D01*
X016526Y007048D01*
X016644Y007076D01*
X016759Y007109D01*
X016873Y007148D01*
X017149Y008133D02*
X017074Y008075D01*
X016997Y008021D01*
X016917Y007971D01*
X016835Y007925D01*
X016751Y007882D01*
X016664Y007844D01*
X016576Y007811D01*
X016486Y007781D01*
X016395Y007756D01*
X016303Y007736D01*
X016210Y007720D01*
X016117Y007709D01*
X016023Y007702D01*
X015928Y007700D01*
X015888Y006716D02*
X016046Y006716D01*
X019038Y009432D02*
X019154Y009535D01*
X019264Y009643D01*
X019370Y009756D01*
X019469Y009874D01*
X019563Y009996D01*
X019651Y010123D01*
X019733Y010254D01*
X019808Y010389D01*
X019877Y010528D01*
X019939Y010669D01*
X019994Y010813D01*
X020042Y010960D01*
X020084Y011109D01*
X020117Y011260D01*
X020144Y011412D01*
X020163Y011565D01*
X020175Y011719D01*
X020180Y011873D01*
X011105Y009125D02*
X011111Y008806D01*
X011125Y008487D01*
X013133Y010180D02*
X013237Y010176D01*
X013343Y010176D01*
X013447Y010180D01*
X018566Y009589D02*
X018675Y009686D01*
X018780Y009789D01*
X018880Y009896D01*
X018975Y010007D01*
X019065Y010123D01*
X019149Y010243D01*
X019227Y010366D01*
X019299Y010494D01*
X019366Y010624D01*
X019426Y010757D01*
X019480Y010893D01*
X019528Y011032D01*
X019569Y011172D01*
X019603Y011315D01*
X019631Y011458D01*
X019652Y011603D01*
X019666Y011749D01*
X019674Y011895D01*
X019674Y012042D01*
X019668Y012188D01*
X019904Y011991D02*
X019902Y011837D01*
X019894Y011684D01*
X019878Y011531D01*
X019856Y011380D01*
X019826Y011229D01*
X019789Y011080D01*
X019745Y010933D01*
X019694Y010789D01*
X019636Y010647D01*
X019572Y010507D01*
X019501Y010371D01*
X019424Y010239D01*
X019341Y010110D01*
X019251Y009985D01*
X019156Y009865D01*
X019056Y009749D01*
X018950Y009638D01*
X018839Y009532D01*
X018723Y009432D01*
X015928Y006991D02*
X015376Y006994D01*
X014825Y006976D01*
X014274Y006940D01*
X010928Y003585D02*
X010547Y003578D01*
X010166Y003585D01*
X009786Y003605D01*
X006282Y004038D02*
X005574Y003684D01*
X005133Y003570D02*
X004700Y003570D01*
X004663Y003572D01*
X004627Y003578D01*
X004591Y003587D01*
X004557Y003601D01*
X004524Y003617D01*
X004494Y003638D01*
X004465Y003661D01*
X004439Y003687D01*
X004416Y003716D01*
X004396Y003747D01*
X004380Y003780D01*
X004367Y003814D01*
X004358Y003850D01*
X004353Y003886D01*
X004351Y003923D01*
X004353Y003960D01*
X003330Y004235D02*
X003290Y004272D01*
X003254Y004311D01*
X003220Y004352D01*
X003188Y004396D01*
X003160Y004441D01*
X003135Y004488D01*
X003113Y004537D01*
X003094Y004587D01*
X003079Y004639D01*
X003067Y004691D01*
X003058Y004744D01*
X003053Y004797D01*
X003052Y004851D01*
X003054Y004904D01*
X003330Y004235D02*
X003634Y003920D01*
X004353Y003960D02*
X004361Y004016D01*
X004365Y004073D01*
X004366Y004130D01*
X004362Y004187D01*
X004354Y004244D01*
X004343Y004300D01*
X004328Y004355D01*
X004309Y004409D01*
X004287Y004461D01*
X004261Y004512D01*
X004232Y004561D01*
X004199Y004608D01*
X004164Y004653D01*
X004125Y004695D01*
X004084Y004734D01*
X004040Y004771D01*
X003993Y004804D01*
X003945Y004834D01*
X003895Y004861D01*
X003842Y004884D01*
X003789Y004904D01*
X003734Y004920D01*
X004983Y003015D02*
X005023Y003015D01*
X004983Y001715D02*
X002503Y001755D01*
X009196Y008645D02*
X009590Y008330D01*
X004944Y009235D02*
X004822Y009345D01*
X004706Y009461D01*
X004595Y009582D01*
X004490Y009708D01*
X004390Y009839D01*
X004297Y009974D01*
X004211Y010114D01*
X004131Y010257D01*
X004057Y010404D01*
X003991Y010555D01*
X003932Y010708D01*
X003880Y010864D01*
X003835Y011022D01*
X003798Y011182D01*
X003768Y011343D01*
X003745Y011506D01*
X003731Y011669D01*
X003724Y011833D01*
X013133Y009786D02*
X013144Y009294D01*
X013133Y008802D01*
X015219Y006715D02*
X015889Y006715D01*
X014905Y003841D02*
X013369Y003841D01*
X013330Y007700D02*
X015928Y007700D01*
X003999Y013802D02*
X004001Y013916D01*
X004009Y014030D01*
X004021Y014144D01*
X004038Y014257D01*
X004059Y014369D01*
X004086Y014480D01*
X004117Y014589D01*
X004193Y014733D01*
X004262Y014880D01*
X004325Y015030D01*
X004381Y015182D01*
X004431Y015337D01*
X004474Y015494D01*
X004511Y015652D01*
X004275Y015613D02*
X004220Y015442D01*
X004158Y015273D01*
X004089Y015107D01*
X004013Y014944D01*
X003931Y014784D01*
X003842Y014628D01*
X005456Y006676D02*
X005362Y006675D01*
X005269Y006670D01*
X005176Y006661D01*
X005083Y006648D01*
X004992Y006630D01*
X004901Y006608D01*
X004811Y006582D01*
X004723Y006552D01*
X004636Y006517D01*
X004550Y006479D01*
X005133Y003569D02*
X005190Y003570D01*
X005248Y003575D01*
X005305Y003584D01*
X005361Y003597D01*
X005416Y003613D01*
X005470Y003633D01*
X005523Y003656D01*
X005574Y003683D01*
X007424Y006283D02*
X007329Y006361D01*
X007231Y006434D01*
X007128Y006503D01*
X007023Y006566D01*
X006915Y006625D01*
X006804Y006678D01*
X006691Y006727D01*
X006576Y006769D01*
X006459Y006807D01*
X006340Y006839D01*
X006220Y006865D01*
X006099Y006886D01*
X005977Y006900D01*
X005854Y006910D01*
X005731Y006913D01*
X006085Y006637D02*
X006188Y006624D01*
X006290Y006606D01*
X006391Y006583D01*
X006491Y006556D01*
X006590Y006524D01*
X006687Y006487D01*
X006783Y006447D01*
X006876Y006402D01*
X006967Y006352D01*
X007056Y006299D01*
X007142Y006242D01*
X007226Y006180D01*
X007307Y006115D01*
X007385Y006047D01*
X006086Y006636D02*
X005771Y006663D01*
X005456Y006676D01*
X011105Y009124D02*
X011105Y009432D01*
X013015Y006715D02*
X015219Y006715D01*
D31*
X015180Y006046D03*
X014865Y005771D03*
X014550Y006046D03*
X013802Y005456D03*
X014550Y004668D03*
X016164Y005259D03*
X016204Y005613D03*
X016755Y005613D03*
X016755Y005259D03*
X017621Y006755D03*
X018408Y004314D03*
X019393Y006755D03*
X020101Y004314D03*
X015967Y009235D03*
X015771Y008172D03*
X015180Y009786D03*
X014865Y010062D03*
X014550Y010613D03*
X014235Y009550D03*
X013960Y009274D03*
X013841Y007188D03*
X014235Y007188D03*
X012684Y007562D03*
X012483Y008475D03*
X011873Y007149D03*
X011046Y007582D03*
X011125Y008487D03*
X010180Y008645D03*
X010176Y009196D03*
X009629Y008999D03*
X009314Y009196D03*
X008999Y010101D03*
X008211Y008841D03*
X008054Y007936D03*
X008211Y007424D03*
X007542Y007818D03*
X006873Y006086D03*
X009274Y006912D03*
X009708Y006912D03*
X009550Y007463D03*
X009826Y007739D03*
X010692Y006243D03*
X011007Y006558D03*
X011597Y004865D03*
X012818Y005101D03*
X009826Y004393D03*
X009708Y005023D03*
X009274Y005023D03*
D32*
X008487Y004038D02*
X006282Y004038D01*
X006755Y004038D01*
X006794Y004040D01*
X006832Y004046D01*
X006869Y004055D01*
X006906Y004068D01*
X006941Y004085D01*
X006974Y004104D01*
X007005Y004127D01*
X007034Y004153D01*
X007060Y004182D01*
X007083Y004213D01*
X007102Y004246D01*
X007119Y004281D01*
X007132Y004318D01*
X007141Y004355D01*
X007147Y004393D01*
X007149Y004432D01*
X007149Y004865D01*
X007150Y004925D01*
X007147Y004984D01*
X007140Y005043D01*
X007130Y005101D01*
X007115Y005158D01*
X007097Y005214D01*
X007075Y005269D01*
X007049Y005323D01*
X007020Y005374D01*
X006987Y005424D01*
X006951Y005471D01*
X006913Y005516D01*
X006871Y005558D01*
X006826Y005597D01*
X006779Y005633D01*
X006730Y005665D01*
X006679Y005695D01*
X006626Y005721D01*
X006571Y005743D01*
X006514Y005762D01*
X006457Y005777D01*
X006399Y005788D01*
X006340Y005795D01*
X006281Y005798D01*
X006222Y005797D01*
X006163Y005792D01*
X006104Y005783D01*
X006046Y005771D01*
X006164Y004944D02*
X006187Y004937D01*
X006211Y004934D01*
X006235Y004934D01*
X006259Y004937D01*
X006282Y004944D01*
X006164Y004944D02*
X005062Y004944D01*
X005023Y004196D01*
X005023Y003015D02*
X006282Y003133D01*
X004983Y003015D02*
X004983Y001715D01*
X005063Y004944D02*
X005039Y005113D01*
X005008Y005280D01*
X004968Y005446D01*
X004921Y005610D01*
X004866Y005771D01*
D33*
X009866Y009629D02*
X009870Y009664D01*
X009877Y009699D01*
X009889Y009733D01*
X009904Y009766D01*
X009923Y009797D01*
X009944Y009825D01*
X010219Y009865D02*
X010225Y009886D01*
X010234Y009906D01*
X010246Y009925D01*
X010260Y009942D01*
X010277Y009956D01*
X010296Y009968D01*
X010316Y009977D01*
X010337Y009983D01*
X010219Y010141D02*
X010238Y010155D01*
X010259Y010166D01*
X010282Y010175D01*
X010305Y010181D01*
X010329Y010184D01*
X010353Y010183D01*
X010377Y010180D01*
X011794Y010377D02*
X011818Y010404D01*
X010220Y010140D02*
X010146Y010065D01*
X010076Y009988D01*
X010008Y009908D01*
X009944Y009825D01*
X010188Y009708D02*
X010219Y009865D01*
D34*
X008841Y003881D02*
X009314Y002750D01*
X008842Y003881D02*
X008822Y003909D01*
X008800Y003935D01*
X008775Y003959D01*
X008748Y003980D01*
X008719Y003998D01*
X008688Y004014D01*
X008656Y004026D01*
X008623Y004035D01*
X008589Y004041D01*
X008555Y004044D01*
X008521Y004043D01*
X008487Y004039D01*
X015771Y002463D02*
X015810Y002463D01*
X015810Y001715D01*
X017542Y001715D01*
X017542Y001755D01*
D35*
X010928Y005121D02*
X010219Y005180D01*
X009944Y005298D01*
X009708Y005337D02*
X009156Y005337D01*
X009117Y005335D01*
X009079Y005329D01*
X009042Y005320D01*
X009005Y005307D01*
X008970Y005291D01*
X008937Y005271D01*
X008906Y005248D01*
X008877Y005222D01*
X008851Y005193D01*
X008828Y005162D01*
X008808Y005129D01*
X008791Y005094D01*
X008778Y005058D01*
X008769Y005020D01*
X008763Y004982D01*
X008761Y004943D01*
X008763Y004904D01*
X008763Y004078D01*
X008841Y003881D01*
X009707Y005338D02*
X009748Y005339D01*
X009788Y005337D01*
X009828Y005332D01*
X009867Y005324D01*
X009906Y005313D01*
X009944Y005298D01*
D36*
X011165Y014353D02*
X011203Y015101D01*
X012385Y015101D02*
X012424Y014353D01*
D37*
X013526Y014274D02*
X013526Y013566D01*
X014196Y013526D01*
X014250Y013532D01*
X014303Y013545D01*
X014353Y013566D01*
X014513Y013634D01*
X014679Y013683D01*
X014849Y013713D01*
X015023Y013723D01*
X015495Y013723D01*
X015495Y014196D01*
X015023Y014196D01*
X014904Y014211D01*
X014786Y014235D01*
X014453Y014274D01*
X014117Y014274D01*
X013526Y014274D01*
X013526Y014270D02*
X014487Y014270D01*
X014799Y014233D02*
X013526Y014233D01*
X013526Y014195D02*
X015495Y014195D01*
X015495Y014157D02*
X013526Y014157D01*
X013526Y014119D02*
X015495Y014119D01*
X015495Y014081D02*
X013526Y014081D01*
X013526Y014043D02*
X015495Y014043D01*
X015495Y014005D02*
X013526Y014005D01*
X013526Y013967D02*
X015495Y013967D01*
X015495Y013930D02*
X013526Y013930D01*
X013526Y013892D02*
X015495Y013892D01*
X015495Y013854D02*
X013526Y013854D01*
X013526Y013816D02*
X015495Y013816D01*
X015495Y013778D02*
X013526Y013778D01*
X013526Y013740D02*
X015495Y013740D01*
X014787Y013702D02*
X013526Y013702D01*
X013526Y013664D02*
X014615Y013664D01*
X014495Y013627D02*
X013526Y013627D01*
X013526Y013589D02*
X014407Y013589D01*
X014317Y013551D02*
X013781Y013551D01*
X010062Y013566D02*
X009393Y013526D01*
X009338Y013532D01*
X009286Y013545D01*
X009235Y013566D01*
X009077Y013644D01*
X008912Y013703D01*
X008741Y013743D01*
X008566Y013763D01*
X008133Y013763D01*
X008133Y014156D01*
X008566Y014156D01*
X008685Y014192D01*
X008802Y014235D01*
X009136Y014274D01*
X009471Y014274D01*
X010062Y014274D01*
X010062Y013566D01*
X010062Y013589D02*
X009189Y013589D01*
X009112Y013627D02*
X010062Y013627D01*
X010062Y013664D02*
X009020Y013664D01*
X008914Y013702D02*
X010062Y013702D01*
X010062Y013740D02*
X008752Y013740D01*
X008567Y014157D02*
X010062Y014157D01*
X010062Y014195D02*
X008693Y014195D01*
X008795Y014233D02*
X010062Y014233D01*
X010062Y014270D02*
X009101Y014270D01*
X009272Y013551D02*
X009807Y013551D01*
X010062Y013778D02*
X008133Y013778D01*
X008133Y013816D02*
X010062Y013816D01*
X010062Y013854D02*
X008133Y013854D01*
X008133Y013892D02*
X010062Y013892D01*
X010062Y013930D02*
X008133Y013930D01*
X008133Y013967D02*
X010062Y013967D01*
X010062Y014005D02*
X008133Y014005D01*
X008133Y014043D02*
X010062Y014043D01*
X010062Y014081D02*
X008133Y014081D01*
X008133Y014119D02*
X010062Y014119D01*
D38*
X003409Y027424D02*
X003488Y028370D01*
X020101Y028408D02*
X020259Y027542D01*
D39*
X020259Y027424D01*
X002975Y023802D02*
X002832Y023175D01*
X002714Y022543D01*
X002622Y021907D01*
X002556Y021267D01*
X002516Y020626D01*
X002503Y019983D01*
X002503Y015652D01*
X003369Y015652D01*
X003054Y015967D01*
X003054Y015337D01*
X003369Y015652D01*
X002503Y015652D02*
X002503Y010101D01*
X003330Y010101D01*
X003015Y009826D01*
X003015Y010377D01*
X003330Y010101D01*
X002503Y010101D02*
X002503Y001755D01*
X012306Y001755D01*
X017542Y001755D01*
X021086Y001755D01*
X021086Y010101D01*
X020259Y010101D01*
X020574Y009786D01*
X020574Y010377D01*
X020259Y010101D01*
X021086Y010101D02*
X021086Y015692D01*
X020259Y015692D01*
X020613Y015889D01*
X020613Y015495D02*
X020259Y015692D01*
X021086Y015692D02*
X021086Y019117D01*
X018133Y010377D02*
X018369Y010101D01*
X017975Y010023D01*
X018133Y010377D01*
X020771Y022542D02*
X020587Y023509D01*
X020444Y024481D01*
X020342Y025460D01*
X020280Y026441D01*
X020259Y027424D01*
X020770Y022543D02*
X020897Y021865D01*
X020992Y021182D01*
X021055Y020496D01*
X021087Y019807D01*
X021085Y019117D01*
X005534Y010456D02*
X005652Y010023D01*
X005180Y010101D01*
X005534Y010456D01*
X003330Y026400D02*
X003409Y027424D01*
X003329Y026401D02*
X003305Y025876D01*
X003257Y025352D01*
X003186Y024832D01*
X003092Y024315D01*
X002975Y023802D01*
D40*
X015771Y002463D02*
X015771Y001834D01*
D41*
X012306Y001755D02*
X012306Y002650D01*
X012314Y002650D01*
M02*
