G75*
G70*
%OFA0B0*%
%FSLAX24Y24*%
%IPPOS*%
%LPD*%
%AMOC8*
5,1,8,0,0,1.08239X$1,22.5*
%
%ADD10C,0.0000*%
%ADD11C,0.0004*%
%ADD12R,0.1378X0.0787*%
%ADD13R,0.0787X0.1378*%
D10*
X001952Y001243D02*
X001952Y029865D01*
X021637Y029865D01*
X021637Y001243D01*
X001952Y001243D01*
D11*
X010479Y017078D02*
X011778Y016408D01*
X013117Y017078D01*
X012172Y018731D01*
X015164Y020463D01*
X016109Y018810D01*
X017526Y019597D01*
X017763Y022904D01*
X017487Y026211D01*
X016109Y026999D01*
X015164Y025345D01*
X012172Y027078D01*
X013117Y028731D01*
X011778Y029479D01*
X010440Y028692D01*
X011385Y027038D01*
X008393Y025306D01*
X007408Y026999D01*
X006030Y026211D01*
X005755Y022904D01*
X006030Y019597D01*
X007408Y018889D01*
X008353Y020503D01*
X011424Y018731D01*
X010479Y017078D01*
D12*
G36*
X013270Y019170D02*
X013958Y017977D01*
X013278Y017584D01*
X012590Y018777D01*
X013270Y019170D01*
G37*
G36*
X014963Y020154D02*
X015651Y018961D01*
X014971Y018568D01*
X014283Y019761D01*
X014963Y020154D01*
G37*
G36*
X010278Y028186D02*
X010966Y026993D01*
X010286Y026600D01*
X009598Y027793D01*
X010278Y028186D01*
G37*
G36*
X008625Y027241D02*
X009313Y026048D01*
X008633Y025655D01*
X007945Y026848D01*
X008625Y027241D01*
G37*
D13*
G36*
X013278Y028225D02*
X013958Y027832D01*
X013270Y026639D01*
X012590Y027032D01*
X013278Y028225D01*
G37*
G36*
X014932Y027280D02*
X015612Y026887D01*
X014924Y025694D01*
X014244Y026087D01*
X014932Y027280D01*
G37*
G36*
X010286Y019170D02*
X010966Y018777D01*
X010278Y017584D01*
X009598Y017977D01*
X010286Y019170D01*
G37*
G36*
X008554Y020193D02*
X009234Y019800D01*
X008546Y018607D01*
X007866Y019000D01*
X008554Y020193D01*
G37*
M02*
