<?xml version="1.0" encoding="UTF-8" standalone="no"?>
<!-- Created with Inkscape (http://www.inkscape.org/) -->

<svg
   xmlns:dc="http://purl.org/dc/elements/1.1/"
   xmlns:cc="http://creativecommons.org/ns#"
   xmlns:rdf="http://www.w3.org/1999/02/22-rdf-syntax-ns#"
   xmlns:svg="http://www.w3.org/2000/svg"
   xmlns="http://www.w3.org/2000/svg"
   xmlns:sodipodi="http://sodipodi.sourceforge.net/DTD/sodipodi-0.dtd"
   xmlns:inkscape="http://www.inkscape.org/namespaces/inkscape"
   id="svg2985"
   version="1.1"
   inkscape:version="0.48.2 r9819"
   width="155"
   height="246.25"
   xml:space="preserve"
   sodipodi:docname="LT3465Breakout_cream.eps"><metadata
     id="metadata2991"><rdf:RDF><cc:Work
         rdf:about=""><dc:format>image/svg+xml</dc:format><dc:type
           rdf:resource="http://purl.org/dc/dcmitype/StillImage" /><dc:title></dc:title></cc:Work></rdf:RDF></metadata><defs
     id="defs2989" /><sodipodi:namedview
     pagecolor="#ffffff"
     bordercolor="#666666"
     borderopacity="1"
     objecttolerance="10"
     gridtolerance="10"
     guidetolerance="10"
     inkscape:pageopacity="0"
     inkscape:pageshadow="2"
     inkscape:window-width="875"
     inkscape:window-height="663"
     id="namedview2987"
     showgrid="false"
     inkscape:zoom="1.3381188"
     inkscape:cx="77.5"
     inkscape:cy="123.125"
     inkscape:window-x="0"
     inkscape:window-y="0"
     inkscape:window-maximized="0"
     inkscape:current-layer="g2993" /><g
     id="g2993"
     inkscape:groupmode="layer"
     inkscape:label="ink_ext_XXXXXX"
     transform="matrix(1.25,0,0,-1.25,0,246.25)"><g
       id="g3384"><path
         d="m 57.141,52.1801 9.45703,0 0,5.78906 -9.45703,0 0,-5.78906 z"
         style="fill:#000000;fill-opacity:1;fill-rule:nonzero;stroke:none"
         id="path2997"
         inkscape:connector-curvature="0" /><path
         d="m 51.816,54.998638 0.832031,0 0,0.151999 -0.832031,0 0,-0.151999 z"
         style="fill:#000000;fill-opacity:1;fill-rule:nonzero;stroke:none"
         id="path2999"
         inkscape:connector-curvature="0" /><path
         d="m 51.816,56.416537 0.832031,0 0,0.152001 -0.832031,0 0,-0.152001 z"
         style="fill:#000000;fill-opacity:1;fill-rule:nonzero;stroke:none"
         id="path3001"
         inkscape:connector-curvature="0" /><path
         d="m 51.816,57.830333 0.832031,0 0,0.1522 -0.832031,0 0,-0.1522 z"
         style="fill:#000000;fill-opacity:1;fill-rule:nonzero;stroke:none"
         id="path3003"
         inkscape:connector-curvature="0" /><path
         d="m 51.816,59.248638 0.832031,0 0,0.152 -0.832031,0 0,-0.152 z"
         style="fill:#000000;fill-opacity:1;fill-rule:nonzero;stroke:none"
         id="path3005"
         inkscape:connector-curvature="0" /><path
         d="m 51.816,53.580333 0.832031,0 0,0.1522 -0.832031,0 0,-0.1522 z"
         style="fill:#000000;fill-opacity:1;fill-rule:nonzero;stroke:none"
         id="path3007"
         inkscape:connector-curvature="0" /><path
         d="m 51.816,52.162333 0.832031,0 0,0.1522 -0.832031,0 0,-0.1522 z"
         style="fill:#000000;fill-opacity:1;fill-rule:nonzero;stroke:none"
         id="path3009"
         inkscape:connector-curvature="0" /><path
         d="m 51.816,50.744433 0.832031,0 0,0.1522 -0.832031,0 0,-0.1522 z"
         style="fill:#000000;fill-opacity:1;fill-rule:nonzero;stroke:none"
         id="path3011"
         inkscape:connector-curvature="0" /><path
         d="m 71.0941,54.998638 0.832031,0 0,0.151999 -0.832031,0 0,-0.151999 z"
         style="fill:#000000;fill-opacity:1;fill-rule:nonzero;stroke:none"
         id="path3013"
         inkscape:connector-curvature="0" /><path
         d="m 71.0941,56.416537 0.832031,0 0,0.152001 -0.832031,0 0,-0.152001 z"
         style="fill:#000000;fill-opacity:1;fill-rule:nonzero;stroke:none"
         id="path3015"
         inkscape:connector-curvature="0" /><path
         d="m 71.0941,57.830333 0.832031,0 0,0.1522 -0.832031,0 0,-0.1522 z"
         style="fill:#000000;fill-opacity:1;fill-rule:nonzero;stroke:none"
         id="path3017"
         inkscape:connector-curvature="0" /><path
         d="m 71.0941,59.248638 0.832031,0 0,0.152 -0.832031,0 0,-0.152 z"
         style="fill:#000000;fill-opacity:1;fill-rule:nonzero;stroke:none"
         id="path3019"
         inkscape:connector-curvature="0" /><path
         d="m 71.0941,53.580333 0.832031,0 0,0.1522 -0.832031,0 0,-0.1522 z"
         style="fill:#000000;fill-opacity:1;fill-rule:nonzero;stroke:none"
         id="path3021"
         inkscape:connector-curvature="0" /><path
         d="m 71.0941,52.162333 0.832031,0 0,0.1522 -0.832031,0 0,-0.1522 z"
         style="fill:#000000;fill-opacity:1;fill-rule:nonzero;stroke:none"
         id="path3023"
         inkscape:connector-curvature="0" /><path
         d="m 71.0941,50.744433 0.832031,0 0,0.1522 -0.832031,0 0,-0.1522 z"
         style="fill:#000000;fill-opacity:1;fill-rule:nonzero;stroke:none"
         id="path3025"
         inkscape:connector-curvature="0" /><path
         d="m 54.017738,47.8559 0.1216,0 0,0.832031 -0.1216,0 0,-0.832031 z"
         style="fill:#000000;fill-opacity:1;fill-rule:nonzero;stroke:none"
         id="path3027"
         inkscape:connector-curvature="0" /><path
         d="m 55.435637,47.8559 0.1216,0 0,0.832031 -0.1216,0 0,-0.832031 z"
         style="fill:#000000;fill-opacity:1;fill-rule:nonzero;stroke:none"
         id="path3029"
         inkscape:connector-curvature="0" /><path
         d="m 56.85089,47.8559 0.123201,0 0,0.832031 -0.123201,0 0,-0.832031 z"
         style="fill:#000000;fill-opacity:1;fill-rule:nonzero;stroke:none"
         id="path3031"
         inkscape:connector-curvature="0" /><path
         d="m 58.267738,47.8559 0.1216,0 0,0.832031 -0.1216,0 0,-0.832031 z"
         style="fill:#000000;fill-opacity:1;fill-rule:nonzero;stroke:none"
         id="path3033"
         inkscape:connector-curvature="0" /><path
         d="m 59.685637,47.8559 0.1216,0 0,0.832031 -0.1216,0 0,-0.832031 z"
         style="fill:#000000;fill-opacity:1;fill-rule:nonzero;stroke:none"
         id="path3035"
         inkscape:connector-curvature="0" /><path
         d="m 61.103637,47.8559 0.1216,0 0,0.832031 -0.1216,0 0,-0.832031 z"
         style="fill:#000000;fill-opacity:1;fill-rule:nonzero;stroke:none"
         id="path3037"
         inkscape:connector-curvature="0" /><path
         d="m 62.521637,47.8559 0.1216,0 0,0.832031 -0.1216,0 0,-0.832031 z"
         style="fill:#000000;fill-opacity:1;fill-rule:nonzero;stroke:none"
         id="path3039"
         inkscape:connector-curvature="0" /><path
         d="m 63.939637,47.8559 0.121601,0 0,0.832031 -0.1216,0 0,-0.832031 z"
         style="fill:#000000;fill-opacity:1;fill-rule:nonzero;stroke:none"
         id="path3041"
         inkscape:connector-curvature="0" /><path
         d="m 65.354906,47.8559 0.12336,0 0,0.832031 -0.12336,0 0,-0.832031 z"
         style="fill:#000000;fill-opacity:1;fill-rule:nonzero;stroke:none"
         id="path3043"
         inkscape:connector-curvature="0" /><path
         d="m 66.771637,47.8559 0.1216,0 0,0.832031 -0.1216,0 0,-0.832031 z"
         style="fill:#000000;fill-opacity:1;fill-rule:nonzero;stroke:none"
         id="path3045"
         inkscape:connector-curvature="0" /><path
         d="m 68.189637,47.8559 0.1216,0 0,0.832031 -0.1216,0 0,-0.832031 z"
         style="fill:#000000;fill-opacity:1;fill-rule:nonzero;stroke:none"
         id="path3047"
         inkscape:connector-curvature="0" /><path
         d="m 69.607653,47.8559 0.12176,0 0,0.832031 -0.12176,0 0,-0.832031 z"
         style="fill:#000000;fill-opacity:1;fill-rule:nonzero;stroke:none"
         id="path3049"
         inkscape:connector-curvature="0" /><path
         d="m 54.017738,61.4609 0.1216,0 0,0.832031 -0.1216,0 0,-0.832031 z"
         style="fill:#000000;fill-opacity:1;fill-rule:nonzero;stroke:none"
         id="path3051"
         inkscape:connector-curvature="0" /><path
         d="m 55.435637,61.4609 0.1216,0 0,0.832031 -0.1216,0 0,-0.832031 z"
         style="fill:#000000;fill-opacity:1;fill-rule:nonzero;stroke:none"
         id="path3053"
         inkscape:connector-curvature="0" /><path
         d="m 56.85089,61.4609 0.123201,0 0,0.832031 -0.123201,0 0,-0.832031 z"
         style="fill:#000000;fill-opacity:1;fill-rule:nonzero;stroke:none"
         id="path3055"
         inkscape:connector-curvature="0" /><path
         d="m 58.267738,61.4609 0.1216,0 0,0.832031 -0.1216,0 0,-0.832031 z"
         style="fill:#000000;fill-opacity:1;fill-rule:nonzero;stroke:none"
         id="path3057"
         inkscape:connector-curvature="0" /><path
         d="m 59.685637,61.4609 0.1216,0 0,0.832031 -0.1216,0 0,-0.832031 z"
         style="fill:#000000;fill-opacity:1;fill-rule:nonzero;stroke:none"
         id="path3059"
         inkscape:connector-curvature="0" /><path
         d="m 61.103637,61.4609 0.1216,0 0,0.832031 -0.1216,0 0,-0.832031 z"
         style="fill:#000000;fill-opacity:1;fill-rule:nonzero;stroke:none"
         id="path3061"
         inkscape:connector-curvature="0" /><path
         d="m 62.521637,61.4609 0.1216,0 0,0.832031 -0.1216,0 0,-0.832031 z"
         style="fill:#000000;fill-opacity:1;fill-rule:nonzero;stroke:none"
         id="path3063"
         inkscape:connector-curvature="0" /><path
         d="m 63.939637,61.4609 0.121601,0 0,0.832031 -0.1216,0 0,-0.832031 z"
         style="fill:#000000;fill-opacity:1;fill-rule:nonzero;stroke:none"
         id="path3065"
         inkscape:connector-curvature="0" /><path
         d="m 65.354906,61.4609 0.12336,0 0,0.832031 -0.12336,0 0,-0.832031 z"
         style="fill:#000000;fill-opacity:1;fill-rule:nonzero;stroke:none"
         id="path3067"
         inkscape:connector-curvature="0" /><path
         d="m 66.771637,61.4609 0.1216,0 0,0.832031 -0.1216,0 0,-0.832031 z"
         style="fill:#000000;fill-opacity:1;fill-rule:nonzero;stroke:none"
         id="path3069"
         inkscape:connector-curvature="0" /><path
         d="m 68.189637,61.4609 0.1216,0 0,0.832031 -0.1216,0 0,-0.832031 z"
         style="fill:#000000;fill-opacity:1;fill-rule:nonzero;stroke:none"
         id="path3071"
         inkscape:connector-curvature="0" /><path
         d="m 69.607653,61.4609 0.12176,0 0,0.832031 -0.12176,0 0,-0.832031 z"
         style="fill:#000000;fill-opacity:1;fill-rule:nonzero;stroke:none"
         id="path3073"
         inkscape:connector-curvature="0" /><path
         d="m 58.8711,28.316 2.20273,0 0,2.20703 -2.20273,0 0,-2.20703 z"
         style="fill:#000000;fill-opacity:1;fill-rule:nonzero;stroke:none"
         id="path3075"
         inkscape:connector-curvature="0" /><path
         d="m 58.8711,33.9879 2.20273,0 0,2.20313 -2.20273,0 0,-2.20313 z"
         style="fill:#000000;fill-opacity:1;fill-rule:nonzero;stroke:none"
         id="path3077"
         inkscape:connector-curvature="0" /><path
         d="m 44.9801,54.484 1.8871,2.2539 -2.8121,2.3601 -1.891,-2.25"
         style="fill:#000000;fill-opacity:1;fill-rule:nonzero;stroke:none"
         id="path3079"
         inkscape:connector-curvature="0" /><path
         d="m 38.4219,46.668 1.8871,2.2539 -2.8129,2.359 -1.8871,-2.25"
         style="fill:#000000;fill-opacity:1;fill-rule:nonzero;stroke:none"
         id="path3081"
         inkscape:connector-curvature="0" /><path
         d="m 63.6289,28.348 2.20313,0 0,2.20313 -2.20313,0 0,-2.20313 z"
         style="fill:#000000;fill-opacity:1;fill-rule:nonzero;stroke:none"
         id="path3083"
         inkscape:connector-curvature="0" /><path
         d="m 63.6289,34.016 2.20313,0 0,2.20313 -2.20313,0 0,-2.20313 z"
         style="fill:#000000;fill-opacity:1;fill-rule:nonzero;stroke:none"
         id="path3085"
         inkscape:connector-curvature="0" /><path
         d="m 40.0551,34.5512 -1.4223,-1.6922 1.691,-1.4141 1.4184,1.6879"
         style="fill:#000000;fill-opacity:1;fill-rule:nonzero;stroke:none"
         id="path3087"
         inkscape:connector-curvature="0" /><path
         d="m 43.6988,38.8949 -1.4218,-1.6918 1.6921,-1.4179 1.418,1.6918"
         style="fill:#000000;fill-opacity:1;fill-rule:nonzero;stroke:none"
         id="path3089"
         inkscape:connector-curvature="0" /><path
         d="m 85.6449,39.1641 2.20313,0 0,2.20703 -2.20313,0 0,-2.20703 z"
         style="fill:#000000;fill-opacity:1;fill-rule:nonzero;stroke:none"
         id="path3091"
         inkscape:connector-curvature="0" /><path
         d="m 79.973,39.1641 2.20313,0 0,2.20703 -2.20313,0 0,-2.20703 z"
         style="fill:#000000;fill-opacity:1;fill-rule:nonzero;stroke:none"
         id="path3093"
         inkscape:connector-curvature="0" /><path
         d="m 41.9531,42.102 1.418,1.6871 -1.6871,1.4179 -1.4219,-1.6871"
         style="fill:#000000;fill-opacity:1;fill-rule:nonzero;stroke:none"
         id="path3095"
         inkscape:connector-curvature="0" /><path
         d="m 38.309,37.7578 1.418,1.691 -1.6879,1.4141 -1.4219,-1.6867"
         style="fill:#000000;fill-opacity:1;fill-rule:nonzero;stroke:none"
         id="path3097"
         inkscape:connector-curvature="0" /><path
         d="m 86.875,44.5121 2.20313,0 0,2.20273 -2.20313,0 0,-2.20273 z"
         style="fill:#000000;fill-opacity:1;fill-rule:nonzero;stroke:none"
         id="path3099"
         inkscape:connector-curvature="0" /><path
         d="m 81.2031,44.5121 2.20703,0 0,2.20273 -2.20703,0 0,-2.20273 z"
         style="fill:#000000;fill-opacity:1;fill-rule:nonzero;stroke:none"
         id="path3101"
         inkscape:connector-curvature="0" /><path
         d="m 54.9449,11.625392 1.37891,0 0,0.1582 -1.37891,0 0,-0.1582 z"
         style="fill:#000000;fill-opacity:1;fill-rule:nonzero;stroke:none"
         id="path3103"
         inkscape:connector-curvature="0" /><path
         d="m 54.9449,9.7824221 1.37891,0 0,0.1581998 -1.37891,0 0,-0.1581998 z"
         style="fill:#000000;fill-opacity:1;fill-rule:nonzero;stroke:none"
         id="path3105"
         inkscape:connector-curvature="0" /><path
         d="m 54.9449,7.9382821 1.37891,0 0,0.1581998 -1.37891,0 0,-0.1581998 z"
         style="fill:#000000;fill-opacity:1;fill-rule:nonzero;stroke:none"
         id="path3107"
         inkscape:connector-curvature="0" /><path
         d="m 54.9449,6.0984421 1.37891,0 0,0.1581998 -1.37891,0 0,-0.1581998 z"
         style="fill:#000000;fill-opacity:1;fill-rule:nonzero;stroke:none"
         id="path3109"
         inkscape:connector-curvature="0" /><path
         d="m 54.9449,13.465192 1.37891,0 0,0.1582 -1.37891,0 0,-0.1582 z"
         style="fill:#000000;fill-opacity:1;fill-rule:nonzero;stroke:none"
         id="path3111"
         inkscape:connector-curvature="0" /><path
         d="m 54.9449,15.309392 1.37891,0 0,0.1582 -1.37891,0 0,-0.1582 z"
         style="fill:#000000;fill-opacity:1;fill-rule:nonzero;stroke:none"
         id="path3113"
         inkscape:connector-curvature="0" /><path
         d="m 54.9449,17.153492 1.37891,0 0,0.1582 -1.37891,0 0,-0.1582 z"
         style="fill:#000000;fill-opacity:1;fill-rule:nonzero;stroke:none"
         id="path3115"
         inkscape:connector-curvature="0" /><path
         d="m 72.516,11.625392 1.38281,0 0,0.1582 -1.38281,0 0,-0.1582 z"
         style="fill:#000000;fill-opacity:1;fill-rule:nonzero;stroke:none"
         id="path3117"
         inkscape:connector-curvature="0" /><path
         d="m 72.516,9.7824221 1.38281,0 0,0.1581998 -1.38281,0 0,-0.1581998 z"
         style="fill:#000000;fill-opacity:1;fill-rule:nonzero;stroke:none"
         id="path3119"
         inkscape:connector-curvature="0" /><path
         d="m 72.516,7.9382821 1.38281,0 0,0.1581998 -1.38281,0 0,-0.1581998 z"
         style="fill:#000000;fill-opacity:1;fill-rule:nonzero;stroke:none"
         id="path3121"
         inkscape:connector-curvature="0" /><path
         d="m 72.516,6.0984421 1.38281,0 0,0.1581998 -1.38281,0 0,-0.1581998 z"
         style="fill:#000000;fill-opacity:1;fill-rule:nonzero;stroke:none"
         id="path3123"
         inkscape:connector-curvature="0" /><path
         d="m 72.516,13.465192 1.38281,0 0,0.1582 -1.38281,0 0,-0.1582 z"
         style="fill:#000000;fill-opacity:1;fill-rule:nonzero;stroke:none"
         id="path3125"
         inkscape:connector-curvature="0" /><path
         d="m 72.516,15.309392 1.38281,0 0,0.1582 -1.38281,0 0,-0.1582 z"
         style="fill:#000000;fill-opacity:1;fill-rule:nonzero;stroke:none"
         id="path3127"
         inkscape:connector-curvature="0" /><path
         d="m 72.516,17.153492 1.38281,0 0,0.1582 -1.38281,0 0,-0.1582 z"
         style="fill:#000000;fill-opacity:1;fill-rule:nonzero;stroke:none"
         id="path3129"
         inkscape:connector-curvature="0" /><path
         d="m 45.9379,78.7461 2.93828,0 0,3.67578 -2.93828,0 0,-3.67578 z"
         style="fill:#000000;fill-opacity:1;fill-rule:nonzero;stroke:none"
         id="path3131"
         inkscape:connector-curvature="0" /><path
         d="m 45.9379,67.125 2.93828,0 0,3.67617 -2.93828,0 0,-3.67617 z"
         style="fill:#000000;fill-opacity:1;fill-rule:nonzero;stroke:none"
         id="path3133"
         inkscape:connector-curvature="0" /><path
         d="m 55.875,81.8672 2.93789,0 0,3.67188 -2.93789,0 0,-3.67188 z"
         style="fill:#000000;fill-opacity:1;fill-rule:nonzero;stroke:none"
         id="path3135"
         inkscape:connector-curvature="0" /><path
         d="m 55.875,70.2422 2.93789,0 0,3.67578 -2.93789,0 0,-3.67578 z"
         style="fill:#000000;fill-opacity:1;fill-rule:nonzero;stroke:none"
         id="path3137"
         inkscape:connector-curvature="0" /><path
         d="m 64.9379,81.8672 2.93828,0 0,3.67188 -2.93828,0 0,-3.67188 z"
         style="fill:#000000;fill-opacity:1;fill-rule:nonzero;stroke:none"
         id="path3139"
         inkscape:connector-curvature="0" /><path
         d="m 64.9379,70.2422 2.93828,0 0,3.67578 -2.93828,0 0,-3.67578 z"
         style="fill:#000000;fill-opacity:1;fill-rule:nonzero;stroke:none"
         id="path3141"
         inkscape:connector-curvature="0" /><path
         d="m 74.859,78.7461 2.93789,0 0,3.67578 -2.93789,0 0,-3.67578 z"
         style="fill:#000000;fill-opacity:1;fill-rule:nonzero;stroke:none"
         id="path3143"
         inkscape:connector-curvature="0" /><path
         d="m 74.859,67.125 2.93789,0 0,3.67617 -2.93789,0 0,-3.67617 z"
         style="fill:#000000;fill-opacity:1;fill-rule:nonzero;stroke:none"
         id="path3145"
         inkscape:connector-curvature="0" /><path
         d="m 34.098,52.7148 7.0821,8.4454 -3.0942,2.5937 -7.082,-8.4379"
         style="fill:#000000;fill-opacity:1;fill-rule:nonzero;stroke:none"
         id="path3147"
         inkscape:connector-curvature="0" /><path
         d="m 19.332,65.1051 7.0821,8.4461 -3.0981,2.5968 -7.082,-8.4449"
         style="fill:#000000;fill-opacity:1;fill-rule:nonzero;stroke:none"
         id="path3149"
         inkscape:connector-curvature="0" /><path
         d="m 36.234,85.3789 11.0199,0 0,4.03906 -11.0199,0 0,-4.03906 z"
         style="fill:#000000;fill-opacity:1;fill-rule:nonzero;stroke:none"
         id="path3151"
         inkscape:connector-curvature="0" /><path
         d="m 36.234,104.652 11.0199,0 0,4.03906 -11.0199,0 0,-4.03906 z"
         style="fill:#000000;fill-opacity:1;fill-rule:nonzero;stroke:none"
         id="path3153"
         inkscape:connector-curvature="0" /><path
         d="m 76.2031,85.3672 11.0199,0 0,4.03867 -11.0199,0 0,-4.03867 z"
         style="fill:#000000;fill-opacity:1;fill-rule:nonzero;stroke:none"
         id="path3155"
         inkscape:connector-curvature="0" /><path
         d="m 76.2031,104.645 11.0199,0 0,4.04297 -11.0199,0 0,-4.04297 z"
         style="fill:#000000;fill-opacity:1;fill-rule:nonzero;stroke:none"
         id="path3157"
         inkscape:connector-curvature="0" /><path
         d="m 82.2699,61.4301 7.0821,-8.4422 3.0929,2.598 -7.082,8.4411"
         style="fill:#000000;fill-opacity:1;fill-rule:nonzero;stroke:none"
         id="path3159"
         inkscape:connector-curvature="0" /><path
         d="m 97.0352,73.8199 7.0818,-8.441 3.094,2.5981 -7.082,8.441"
         style="fill:#000000;fill-opacity:1;fill-rule:nonzero;stroke:none"
         id="path3161"
         inkscape:connector-curvature="0" /><path
         d="m 30.1559,79.766 2.20313,0 0,2.20703 -2.20313,0 0,-2.20703 z"
         style="fill:#000000;fill-opacity:1;fill-rule:nonzero;stroke:none"
         id="path3163"
         inkscape:connector-curvature="0" /><path
         d="m 35.8281,79.766 2.20273,0 0,2.20703 -2.20273,0 0,-2.20703 z"
         style="fill:#000000;fill-opacity:1;fill-rule:nonzero;stroke:none"
         id="path3165"
         inkscape:connector-curvature="0" /><path
         d="m 56.516,87.984 2.20313,0 0,2.20703 -2.20313,0 0,-2.20703 z"
         style="fill:#000000;fill-opacity:1;fill-rule:nonzero;stroke:none"
         id="path3167"
         inkscape:connector-curvature="0" /><path
         d="m 56.516,93.6559 2.20313,0 0,2.20313 -2.20313,0 0,-2.20313 z"
         style="fill:#000000;fill-opacity:1;fill-rule:nonzero;stroke:none"
         id="path3169"
         inkscape:connector-curvature="0" /><path
         d="m 65.023,93.6559 2.20313,0 0,2.20313 -2.20313,0 0,-2.20313 z"
         style="fill:#000000;fill-opacity:1;fill-rule:nonzero;stroke:none"
         id="path3171"
         inkscape:connector-curvature="0" /><path
         d="m 65.023,87.984 2.20313,0 0,2.20703 -2.20313,0 0,-2.20703 z"
         style="fill:#000000;fill-opacity:1;fill-rule:nonzero;stroke:none"
         id="path3173"
         inkscape:connector-curvature="0" /><path
         d="m 85.7148,79.766 2.20313,0 0,2.20313 -2.20313,0 0,-2.20313 z"
         style="fill:#000000;fill-opacity:1;fill-rule:nonzero;stroke:none"
         id="path3175"
         inkscape:connector-curvature="0" /><path
         d="m 91.3828,79.766 2.20313,0 0,2.20313 -2.20313,0 0,-2.20313 z"
         style="fill:#000000;fill-opacity:1;fill-rule:nonzero;stroke:none"
         id="path3177"
         inkscape:connector-curvature="0" /><path
         d="m 8.91797,182.422 3.30508,0 0,4.41016 -3.30508,0 0,-4.41016 z"
         style="fill:#000000;fill-opacity:1;fill-rule:nonzero;stroke:none"
         id="path3179"
         inkscape:connector-curvature="0" /><path
         d="m 0.414063,182.422 3.30508,0 0,4.41016 -3.30508,0 0,-4.41016 z"
         style="fill:#000000;fill-opacity:1;fill-rule:nonzero;stroke:none"
         id="path3181"
         inkscape:connector-curvature="0" /><path
         d="m 11.7379,191.473 3.30508,0 0,4.40586 -3.30508,0 0,-4.40586 z"
         style="fill:#000000;fill-opacity:1;fill-rule:nonzero;stroke:none"
         id="path3183"
         inkscape:connector-curvature="0" /><path
         d="m 3.23398,191.473 3.30508,0 0,4.40586 -3.30508,0 0,-4.40586 z"
         style="fill:#000000;fill-opacity:1;fill-rule:nonzero;stroke:none"
         id="path3185"
         inkscape:connector-curvature="0" /><path
         d="m 108.695,191.766 3.30508,0 0,4.41016 -3.30508,0 0,-4.41016 z"
         style="fill:#000000;fill-opacity:1;fill-rule:nonzero;stroke:none"
         id="path3187"
         inkscape:connector-curvature="0" /><path
         d="m 117.199,191.766 3.30508,0 0,4.41016 -3.30508,0 0,-4.41016 z"
         style="fill:#000000;fill-opacity:1;fill-rule:nonzero;stroke:none"
         id="path3189"
         inkscape:connector-curvature="0" /><path
         d="m 111.523,182.699 3.30508,0 0,4.40625 -3.30508,0 0,-4.40625 z"
         style="fill:#000000;fill-opacity:1;fill-rule:nonzero;stroke:none"
         id="path3191"
         inkscape:connector-curvature="0" /><path
         d="m 120.023,182.699 3.30508,0 0,4.40625 -3.30508,0 0,-4.40625 z"
         style="fill:#000000;fill-opacity:1;fill-rule:nonzero;stroke:none"
         id="path3193"
         inkscape:connector-curvature="0" /><path
         d="m 23.5629,44.6129 2.5351,-2.125 2.8321,3.3793 -2.5321,2.125"
         style="fill:#000000;fill-opacity:1;fill-rule:nonzero;stroke:none"
         id="path3195"
         inkscape:connector-curvature="0" /><path
         d="m 17.0512,50.082 2.5308,-2.125 2.8321,3.375 -2.5313,2.125"
         style="fill:#000000;fill-opacity:1;fill-rule:nonzero;stroke:none"
         id="path3197"
         inkscape:connector-curvature="0" /><path
         d="m 18.543,84.1371 -2.125,-2.532 3.3789,-2.8321 2.125,2.5321"
         style="fill:#000000;fill-opacity:1;fill-rule:nonzero;stroke:none"
         id="path3199"
         inkscape:connector-curvature="0" /><path
         d="m 24.0121,90.652 -2.125,-2.5348 3.375,-2.832 2.125,2.5347"
         style="fill:#000000;fill-opacity:1;fill-rule:nonzero;stroke:none"
         id="path3201"
         inkscape:connector-curvature="0" /><path
         d="m 101.719,81.402 2.125,-2.5348 3.379,2.8316 -2.125,2.5352"
         style="fill:#000000;fill-opacity:1;fill-rule:nonzero;stroke:none"
         id="path3203"
         inkscape:connector-curvature="0" /><path
         d="m 96.2539,87.9102 2.125,-2.5274 3.3791,2.832 -2.1252,2.5313"
         style="fill:#000000;fill-opacity:1;fill-rule:nonzero;stroke:none"
         id="path3205"
         inkscape:connector-curvature="0" /><path
         d="m 97.5469,47.7969 -2.5309,-2.125 2.832,-3.375 2.531,2.125"
         style="fill:#000000;fill-opacity:1;fill-rule:nonzero;stroke:none"
         id="path3207"
         inkscape:connector-curvature="0" /><path
         d="m 104.063,53.266 -2.532,-2.125 2.828,-3.3789 2.536,2.125"
         style="fill:#000000;fill-opacity:1;fill-rule:nonzero;stroke:none"
         id="path3209"
         inkscape:connector-curvature="0" /><path
         d="m 117.66,15.9961 2.94102,0 0,2.75781 -2.94102,0 0,-2.75781 z"
         style="fill:#000000;fill-opacity:1;fill-rule:nonzero;stroke:none"
         id="path3211"
         inkscape:connector-curvature="0" /><path
         d="m 114.914,6.91406 2.20313,0 0,2.20703 -2.20313,0 0,-2.20703 z"
         style="fill:#000000;fill-opacity:1;fill-rule:nonzero;stroke:none"
         id="path3213"
         inkscape:connector-curvature="0" /><path
         d="m 120.582,6.91406 2.20313,0 0,2.20703 -2.20313,0 0,-2.20703 z"
         style="fill:#000000;fill-opacity:1;fill-rule:nonzero;stroke:none"
         id="path3215"
         inkscape:connector-curvature="0" /><path
         d="m 105.473,15.9961 2.93789,0 0,2.75781 -2.93789,0 0,-2.75781 z"
         style="fill:#000000;fill-opacity:1;fill-rule:nonzero;stroke:none"
         id="path3217"
         inkscape:connector-curvature="0" /><path
         d="m 102.723,6.91406 2.20313,0 0,2.20703 -2.20313,0 0,-2.20703 z"
         style="fill:#000000;fill-opacity:1;fill-rule:nonzero;stroke:none"
         id="path3219"
         inkscape:connector-curvature="0" /><path
         d="m 108.391,6.91406 2.20313,0 0,2.20703 -2.20313,0 0,-2.20703 z"
         style="fill:#000000;fill-opacity:1;fill-rule:nonzero;stroke:none"
         id="path3221"
         inkscape:connector-curvature="0" /><path
         d="m 105.473,33.5699 2.93789,0 0,2.7582 -2.93789,0 0,-2.7582 z"
         style="fill:#000000;fill-opacity:1;fill-rule:nonzero;stroke:none"
         id="path3223"
         inkscape:connector-curvature="0" /><path
         d="m 102.723,24.4922 2.20313,0 0,2.20273 -2.20313,0 0,-2.20273 z"
         style="fill:#000000;fill-opacity:1;fill-rule:nonzero;stroke:none"
         id="path3225"
         inkscape:connector-curvature="0" /><path
         d="m 108.391,24.4922 2.20313,0 0,2.20273 -2.20313,0 0,-2.20273 z"
         style="fill:#000000;fill-opacity:1;fill-rule:nonzero;stroke:none"
         id="path3227"
         inkscape:connector-curvature="0" /><path
         d="m 118.227,33.5699 2.94102,0 0,2.7582 -2.94102,0 0,-2.7582 z"
         style="fill:#000000;fill-opacity:1;fill-rule:nonzero;stroke:none"
         id="path3229"
         inkscape:connector-curvature="0" /><path
         d="m 115.477,24.4922 2.20313,0 0,2.20273 -2.20313,0 0,-2.20273 z"
         style="fill:#000000;fill-opacity:1;fill-rule:nonzero;stroke:none"
         id="path3231"
         inkscape:connector-curvature="0" /><path
         d="m 121.145,24.4922 2.20313,0 0,2.20273 -2.20313,0 0,-2.20273 z"
         style="fill:#000000;fill-opacity:1;fill-rule:nonzero;stroke:none"
         id="path3233"
         inkscape:connector-curvature="0" /><path
         d="m 49.4301,10.8828 2.20703,0 0,2.20703 -2.20703,0 0,-2.20703 z"
         style="fill:#000000;fill-opacity:1;fill-rule:nonzero;stroke:none"
         id="path3235"
         inkscape:connector-curvature="0" /><path
         d="m 49.4301,16.5551 2.20703,0 0,2.20273 -2.20703,0 0,-2.20273 z"
         style="fill:#000000;fill-opacity:1;fill-rule:nonzero;stroke:none"
         id="path3237"
         inkscape:connector-curvature="0" /><path
         d="m 20.0738,8.56719 4.22734,0 0,1.7418 -4.22734,0 0,-1.7418 z"
         style="fill:#000000;fill-opacity:1;fill-rule:nonzero;stroke:none"
         id="path3239"
         inkscape:connector-curvature="0" /><path
         d="m 20.0738,15.0859 4.22734,0 0,1.74219 -4.22734,0 0,-1.74219 z"
         style="fill:#000000;fill-opacity:1;fill-rule:nonzero;stroke:none"
         id="path3241"
         inkscape:connector-curvature="0" /><path
         d="m 20.0738,2.04688 4.22734,0 0,1.74219 -4.22734,0 0,-1.74219 z"
         style="fill:#000000;fill-opacity:1;fill-rule:nonzero;stroke:none"
         id="path3243"
         inkscape:connector-curvature="0" /><path
         d="m 36.316,6.45313 3.48789,0 0,5.96875 -3.48789,0 0,-5.96875 z"
         style="fill:#000000;fill-opacity:1;fill-rule:nonzero;stroke:none"
         id="path3245"
         inkscape:connector-curvature="0" /><path
         d="m 10.9102,8.91797 4.40977,0 0,3.30508 -4.40977,0 0,-3.30508 z"
         style="fill:#000000;fill-opacity:1;fill-rule:nonzero;stroke:none"
         id="path3247"
         inkscape:connector-curvature="0" /><path
         d="m 10.9102,0.414063 4.40977,0 0,3.30508 -4.40977,0 0,-3.30508 z"
         style="fill:#000000;fill-opacity:1;fill-rule:nonzero;stroke:none"
         id="path3249"
         inkscape:connector-curvature="0" /><path
         d="m 18.832,19.707 3.30508,0 0,4.40586 -3.30508,0 0,-4.40586 z"
         style="fill:#000000;fill-opacity:1;fill-rule:nonzero;stroke:none"
         id="path3251"
         inkscape:connector-curvature="0" /><path
         d="m 10.3281,19.707 3.30469,0 0,4.40586 -3.30469,0 0,-4.40586 z"
         style="fill:#000000;fill-opacity:1;fill-rule:nonzero;stroke:none"
         id="path3253"
         inkscape:connector-curvature="0" /></g></g></svg>