G75*
G70*
%OFA0B0*%
%FSLAX24Y24*%
%IPPOS*%
%LPD*%
%AMOC8*
5,1,8,0,0,1.08239X$1,22.5*
%
%ADD10C,0.0000*%
%ADD11C,0.0004*%
%ADD12R,0.1418X0.0827*%
%ADD13R,0.0827X0.1418*%
%ADD14C,0.0780*%
%ADD15C,0.0985*%
D10*
X001952Y001385D02*
X001952Y030747D01*
X001954Y030769D01*
X001959Y030791D01*
X001967Y030811D01*
X001979Y030830D01*
X001994Y030847D01*
X002011Y030862D01*
X002030Y030874D01*
X002050Y030882D01*
X002072Y030887D01*
X002094Y030889D01*
X009960Y030889D01*
X009982Y030887D01*
X010004Y030882D01*
X010024Y030874D01*
X010043Y030862D01*
X010060Y030848D01*
X010074Y030831D01*
X010086Y030812D01*
X010095Y030792D01*
X010094Y030792D02*
X010456Y029708D01*
X013093Y029708D01*
X013413Y030773D01*
X013421Y030794D01*
X013432Y030814D01*
X013446Y030833D01*
X013462Y030849D01*
X013481Y030863D01*
X013501Y030873D01*
X013523Y030881D01*
X013545Y030886D01*
X013568Y030888D01*
X013568Y030889D02*
X021474Y030889D01*
X021474Y030888D02*
X021497Y030886D01*
X021520Y030881D01*
X021541Y030873D01*
X021562Y030862D01*
X021580Y030848D01*
X021596Y030832D01*
X021610Y030814D01*
X021621Y030793D01*
X021629Y030772D01*
X021634Y030749D01*
X021636Y030726D01*
X021637Y030726D02*
X021637Y001405D01*
X021636Y001405D02*
X021634Y001382D01*
X021629Y001359D01*
X021621Y001338D01*
X021610Y001317D01*
X021596Y001299D01*
X021580Y001283D01*
X021562Y001269D01*
X021541Y001258D01*
X021520Y001250D01*
X021497Y001245D01*
X021474Y001243D01*
X002094Y001243D01*
X002072Y001245D01*
X002050Y001250D01*
X002030Y001258D01*
X002011Y001270D01*
X001994Y001285D01*
X001979Y001302D01*
X001967Y001321D01*
X001959Y001341D01*
X001954Y001363D01*
X001952Y001385D01*
D11*
X010479Y018101D02*
X011778Y017432D01*
X013117Y018101D01*
X012172Y019755D01*
X015164Y021487D01*
X016109Y019834D01*
X017526Y020621D01*
X017763Y023928D01*
X017487Y027235D01*
X016109Y028023D01*
X015164Y026369D01*
X012172Y028101D01*
X013117Y029755D01*
X011778Y030503D01*
X010440Y029715D01*
X011385Y028062D01*
X008393Y026330D01*
X007408Y028023D01*
X006030Y027235D01*
X005755Y023928D01*
X006030Y020621D01*
X007408Y019912D01*
X008353Y021526D01*
X011424Y019755D01*
X010479Y018101D01*
D12*
G36*
X013277Y020220D02*
X013986Y018993D01*
X013271Y018580D01*
X012562Y019807D01*
X013277Y020220D01*
G37*
G36*
X014970Y021205D02*
X015679Y019978D01*
X014964Y019565D01*
X014255Y020792D01*
X014970Y021205D01*
G37*
G36*
X010285Y029236D02*
X010994Y028009D01*
X010279Y027596D01*
X009570Y028823D01*
X010285Y029236D01*
G37*
G36*
X008632Y028291D02*
X009341Y027064D01*
X008626Y026651D01*
X007917Y027878D01*
X008632Y028291D01*
G37*
D13*
G36*
X013271Y029276D02*
X013986Y028863D01*
X013277Y027636D01*
X012562Y028049D01*
X013271Y029276D01*
G37*
G36*
X014925Y028331D02*
X015640Y027918D01*
X014931Y026691D01*
X014216Y027104D01*
X014925Y028331D01*
G37*
G36*
X010279Y020220D02*
X010994Y019807D01*
X010285Y018580D01*
X009570Y018993D01*
X010279Y020220D01*
G37*
G36*
X008547Y021244D02*
X009262Y020831D01*
X008553Y019604D01*
X007838Y020017D01*
X008547Y021244D01*
G37*
D14*
X003734Y008920D03*
X003634Y007920D03*
X003734Y006920D03*
X003634Y005920D03*
X003734Y004920D03*
X003634Y003920D03*
X009314Y002750D03*
X010314Y002650D03*
X011314Y002750D03*
X012314Y002650D03*
D15*
X015771Y002463D03*
X015771Y003723D03*
M02*
