G75*
G70*
%OFA0B0*%
%FSLAX24Y24*%
%IPPOS*%
%LPD*%
%AMOC8*
5,1,8,0,0,1.08239X$1,22.5*
%
%ADD10C,0.0000*%
%ADD11C,0.0100*%
%ADD12C,0.0020*%
%ADD13C,0.0050*%
%ADD14C,0.0060*%
%ADD15C,0.0010*%
%ADD16C,0.0120*%
%ADD17C,0.0004*%
D10*
X001952Y001243D02*
X001952Y029865D01*
X021637Y029865D01*
X021637Y001243D01*
X001952Y001243D01*
D11*
X002542Y002621D02*
X003054Y002897D01*
X002542Y003133D01*
X002542Y002621D01*
D12*
X017670Y007001D02*
X017780Y007001D01*
X017817Y007038D01*
X017817Y007074D01*
X017780Y007111D01*
X017670Y007111D01*
X017670Y007001D02*
X017670Y007221D01*
X017780Y007221D01*
X017817Y007185D01*
X017817Y007148D01*
X017780Y007111D01*
X017891Y007001D02*
X018038Y007001D01*
X018112Y007038D02*
X018149Y007001D01*
X018222Y007001D01*
X018259Y007038D01*
X018259Y007221D01*
X018333Y007221D02*
X018333Y007001D01*
X018480Y007001D01*
X018407Y007111D02*
X018333Y007111D01*
X018333Y007221D02*
X018480Y007221D01*
X018112Y007221D02*
X018112Y007038D01*
X017891Y007001D02*
X017891Y007221D01*
X019363Y007148D02*
X019437Y007221D01*
X019510Y007148D01*
X019510Y007001D01*
X019584Y007001D02*
X019584Y007221D01*
X019658Y007148D01*
X019731Y007221D01*
X019731Y007001D01*
X019805Y007001D02*
X019915Y007001D01*
X019952Y007038D01*
X019952Y007074D01*
X019915Y007111D01*
X019805Y007111D01*
X019805Y007001D02*
X019805Y007221D01*
X019915Y007221D01*
X019952Y007185D01*
X019952Y007148D01*
X019915Y007111D01*
X020026Y007111D02*
X020100Y007111D01*
X020026Y007001D02*
X020173Y007001D01*
X020247Y007001D02*
X020247Y007221D01*
X020357Y007221D01*
X020394Y007185D01*
X020394Y007111D01*
X020357Y007074D01*
X020247Y007074D01*
X020321Y007074D02*
X020394Y007001D01*
X020173Y007221D02*
X020026Y007221D01*
X020026Y007001D01*
X019510Y007111D02*
X019363Y007111D01*
X019363Y007148D02*
X019363Y007001D01*
X019355Y002300D02*
X019282Y002300D01*
X019245Y002263D01*
X019245Y002116D01*
X019282Y002080D01*
X019355Y002080D01*
X019392Y002116D01*
X019392Y002190D01*
X019319Y002190D01*
X019392Y002263D02*
X019355Y002300D01*
X019466Y002300D02*
X019576Y002300D01*
X019613Y002263D01*
X019613Y002190D01*
X019576Y002153D01*
X019466Y002153D01*
X019466Y002080D02*
X019466Y002300D01*
X019540Y002153D02*
X019613Y002080D01*
X019687Y002080D02*
X019834Y002080D01*
X019908Y002080D02*
X020055Y002080D01*
X020129Y002080D02*
X020129Y002300D01*
X020276Y002080D01*
X020276Y002300D01*
X020055Y002300D02*
X019908Y002300D01*
X019908Y002080D01*
X019908Y002190D02*
X019981Y002190D01*
X019834Y002300D02*
X019687Y002300D01*
X019687Y002080D01*
X019687Y002190D02*
X019760Y002190D01*
X018338Y002263D02*
X018301Y002300D01*
X018191Y002300D01*
X018191Y002080D01*
X018301Y002080D01*
X018338Y002116D01*
X018338Y002263D01*
X018117Y002300D02*
X017970Y002300D01*
X017970Y002080D01*
X018117Y002080D01*
X018043Y002190D02*
X017970Y002190D01*
X017896Y002190D02*
X017859Y002153D01*
X017749Y002153D01*
X017749Y002080D02*
X017749Y002300D01*
X017859Y002300D01*
X017896Y002263D01*
X017896Y002190D01*
X017822Y002153D02*
X017896Y002080D01*
D13*
X017936Y002778D02*
X018093Y002778D01*
X018605Y003133D02*
X018605Y004274D01*
X018448Y004274D01*
X018440Y004133D02*
X018481Y004100D01*
X018520Y004063D01*
X018556Y004024D01*
X018589Y003982D01*
X018618Y003938D01*
X018645Y003891D01*
X018668Y003844D01*
X018688Y003794D01*
X018704Y003743D01*
X018716Y003691D01*
X018724Y003639D01*
X018729Y003586D01*
X018730Y003533D01*
X018727Y003480D01*
X018720Y003427D01*
X018709Y003375D01*
X018695Y003323D01*
X018677Y003273D01*
X018655Y003225D01*
X018630Y003178D01*
X018602Y003133D01*
X019117Y003133D02*
X019117Y004274D01*
X019353Y004274D01*
X020133Y004133D02*
X020174Y004100D01*
X020213Y004063D01*
X020249Y004024D01*
X020282Y003982D01*
X020311Y003938D01*
X020338Y003891D01*
X020361Y003844D01*
X020381Y003794D01*
X020397Y003743D01*
X020409Y003691D01*
X020417Y003639D01*
X020422Y003586D01*
X020423Y003533D01*
X020420Y003480D01*
X020413Y003427D01*
X020402Y003375D01*
X020388Y003323D01*
X020370Y003273D01*
X020348Y003225D01*
X020323Y003178D01*
X020295Y003133D01*
X020298Y003133D02*
X020298Y004274D01*
X020141Y004274D01*
X019365Y004149D02*
X019321Y004123D01*
X019279Y004093D01*
X019240Y004061D01*
X019202Y004026D01*
X019168Y003988D01*
X019136Y003948D01*
X019107Y003906D01*
X019081Y003862D01*
X019059Y003816D01*
X019039Y003769D01*
X019024Y003720D01*
X019012Y003670D01*
X019003Y003620D01*
X018998Y003569D01*
X018997Y003518D01*
X019000Y003467D01*
X019006Y003416D01*
X019016Y003366D01*
X019029Y003316D01*
X019046Y003268D01*
X019066Y003221D01*
X019090Y003176D01*
X019117Y003132D01*
X019629Y002778D02*
X019786Y002778D01*
X017424Y003132D02*
X017397Y003176D01*
X017373Y003221D01*
X017353Y003268D01*
X017336Y003316D01*
X017323Y003366D01*
X017313Y003416D01*
X017307Y003467D01*
X017304Y003518D01*
X017305Y003569D01*
X017310Y003620D01*
X017319Y003670D01*
X017331Y003720D01*
X017346Y003769D01*
X017366Y003816D01*
X017388Y003862D01*
X017414Y003906D01*
X017443Y003948D01*
X017475Y003988D01*
X017509Y004026D01*
X017547Y004061D01*
X017586Y004093D01*
X017628Y004123D01*
X017672Y004149D01*
X017660Y004274D02*
X017424Y004274D01*
X017424Y003133D01*
X017936Y005219D02*
X018093Y005219D01*
X018605Y005574D02*
X018605Y006715D01*
X018448Y006715D01*
X018440Y006574D02*
X018481Y006541D01*
X018520Y006504D01*
X018556Y006465D01*
X018589Y006423D01*
X018618Y006379D01*
X018645Y006332D01*
X018668Y006285D01*
X018688Y006235D01*
X018704Y006184D01*
X018716Y006132D01*
X018724Y006080D01*
X018729Y006027D01*
X018730Y005974D01*
X018727Y005921D01*
X018720Y005868D01*
X018709Y005816D01*
X018695Y005764D01*
X018677Y005714D01*
X018655Y005666D01*
X018630Y005619D01*
X018602Y005574D01*
X019196Y005574D02*
X019196Y006715D01*
X019432Y006715D01*
X020212Y006574D02*
X020253Y006541D01*
X020292Y006504D01*
X020328Y006465D01*
X020361Y006423D01*
X020390Y006379D01*
X020417Y006332D01*
X020440Y006285D01*
X020460Y006235D01*
X020476Y006184D01*
X020488Y006132D01*
X020496Y006080D01*
X020501Y006027D01*
X020502Y005974D01*
X020499Y005921D01*
X020492Y005868D01*
X020481Y005816D01*
X020467Y005764D01*
X020449Y005714D01*
X020427Y005666D01*
X020402Y005619D01*
X020374Y005574D01*
X020377Y005574D02*
X020377Y006715D01*
X020219Y006715D01*
X019443Y006590D02*
X019399Y006564D01*
X019357Y006534D01*
X019318Y006502D01*
X019280Y006467D01*
X019246Y006429D01*
X019214Y006389D01*
X019185Y006347D01*
X019159Y006303D01*
X019137Y006257D01*
X019117Y006210D01*
X019102Y006161D01*
X019090Y006111D01*
X019081Y006061D01*
X019076Y006010D01*
X019075Y005959D01*
X019078Y005908D01*
X019084Y005857D01*
X019094Y005807D01*
X019107Y005757D01*
X019124Y005709D01*
X019144Y005662D01*
X019168Y005617D01*
X019195Y005573D01*
X019708Y005219D02*
X019865Y005219D01*
X017424Y005573D02*
X017397Y005617D01*
X017373Y005662D01*
X017353Y005709D01*
X017336Y005757D01*
X017323Y005807D01*
X017313Y005857D01*
X017307Y005908D01*
X017304Y005959D01*
X017305Y006010D01*
X017310Y006061D01*
X017319Y006111D01*
X017331Y006161D01*
X017346Y006210D01*
X017366Y006257D01*
X017388Y006303D01*
X017414Y006347D01*
X017443Y006389D01*
X017475Y006429D01*
X017509Y006467D01*
X017547Y006502D01*
X017586Y006534D01*
X017628Y006564D01*
X017672Y006590D01*
X017660Y006715D02*
X017424Y006715D01*
X017424Y005574D01*
X016064Y008592D02*
X015988Y008683D01*
X016064Y008592D02*
X016486Y008947D01*
X016844Y008888D01*
X018051Y009900D01*
X018055Y010263D01*
X018477Y010617D01*
X018401Y010707D01*
X016731Y012698D02*
X016655Y012788D01*
X016232Y012434D01*
X015874Y012493D01*
X014668Y011481D01*
X014664Y011118D01*
X014242Y010764D01*
X014318Y010673D01*
X014353Y011204D02*
X014196Y011204D01*
X014353Y011204D02*
X014353Y012936D01*
X014196Y012936D01*
X013408Y012936D02*
X013251Y012936D01*
X013251Y011204D01*
X013408Y011204D01*
X012975Y011637D02*
X012818Y011637D01*
X012975Y011637D02*
X012975Y013369D01*
X012818Y013369D01*
X013133Y013605D02*
X013133Y014156D01*
X012857Y014393D01*
X012857Y015967D01*
X013133Y016204D01*
X013133Y016755D01*
X013251Y016755D01*
X013251Y013605D02*
X013133Y013605D01*
X012030Y013369D02*
X011873Y013369D01*
X011873Y011637D01*
X012030Y011637D01*
X011717Y011637D02*
X011559Y011637D01*
X011717Y011637D02*
X011717Y013369D01*
X011559Y013369D01*
X010772Y013369D02*
X010614Y013369D01*
X010614Y011637D01*
X010772Y011637D01*
X010336Y011203D02*
X010179Y011203D01*
X010336Y011203D02*
X010336Y012936D01*
X010179Y012936D01*
X010298Y013606D02*
X010416Y013606D01*
X010416Y014158D01*
X010692Y014394D01*
X010692Y015969D01*
X010416Y016205D01*
X010416Y016756D01*
X010298Y016756D01*
X007700Y016756D02*
X007582Y016756D01*
X007582Y016205D01*
X007306Y015969D01*
X007306Y014394D01*
X007582Y014158D01*
X007582Y013606D01*
X007700Y013606D01*
X007673Y012456D02*
X007315Y012397D01*
X006893Y012751D01*
X006817Y012660D01*
X007673Y012456D02*
X008880Y011444D01*
X008883Y011081D01*
X009306Y010726D01*
X009230Y010636D01*
X009234Y011203D02*
X009391Y011203D01*
X009234Y011203D02*
X009234Y012936D01*
X009391Y012936D01*
X010416Y010337D02*
X010574Y010337D01*
X010416Y010337D02*
X010416Y010101D01*
X010416Y008605D02*
X010416Y008369D01*
X010574Y008369D01*
X010478Y008487D02*
X010480Y008501D01*
X010486Y008515D01*
X010494Y008527D01*
X010506Y008535D01*
X010520Y008541D01*
X010534Y008543D01*
X010548Y008541D01*
X010562Y008535D01*
X010574Y008527D01*
X010582Y008515D01*
X010588Y008501D01*
X010590Y008487D01*
X010588Y008473D01*
X010582Y008459D01*
X010574Y008447D01*
X010562Y008439D01*
X010548Y008433D01*
X010534Y008431D01*
X010520Y008433D01*
X010506Y008439D01*
X010494Y008447D01*
X010486Y008459D01*
X010480Y008473D01*
X010478Y008487D01*
X013015Y008369D02*
X013172Y008369D01*
X013172Y008605D01*
X013172Y010101D02*
X013172Y010337D01*
X013015Y010337D01*
X015849Y013605D02*
X015967Y013605D01*
X015967Y014156D01*
X016243Y014393D01*
X016243Y015967D01*
X015967Y016204D01*
X015967Y016755D01*
X015849Y016755D01*
X007560Y008645D02*
X007484Y008555D01*
X007061Y008909D01*
X006703Y008850D01*
X005497Y009862D01*
X005493Y010225D01*
X005071Y010579D01*
X005147Y010670D01*
X006834Y004274D02*
X008054Y004274D01*
X008054Y001755D01*
X006834Y001755D01*
X006834Y004274D01*
X011282Y004314D02*
X011282Y002345D01*
X013015Y002345D01*
X013015Y004314D01*
X011282Y004314D01*
X011391Y004117D02*
X011393Y004135D01*
X011399Y004153D01*
X011408Y004169D01*
X011420Y004182D01*
X011435Y004193D01*
X011452Y004201D01*
X011470Y004205D01*
X011488Y004205D01*
X011506Y004201D01*
X011523Y004193D01*
X011538Y004182D01*
X011550Y004169D01*
X011559Y004153D01*
X011565Y004135D01*
X011567Y004117D01*
X011565Y004099D01*
X011559Y004081D01*
X011550Y004065D01*
X011538Y004052D01*
X011523Y004041D01*
X011506Y004033D01*
X011488Y004029D01*
X011470Y004029D01*
X011452Y004033D01*
X011435Y004041D01*
X011420Y004052D01*
X011408Y004065D01*
X011399Y004081D01*
X011393Y004099D01*
X011391Y004117D01*
D14*
X010534Y003999D02*
X010534Y003526D01*
X009904Y003526D02*
X009904Y003999D01*
X011215Y005948D02*
X011215Y006420D01*
X011845Y006420D02*
X011845Y005948D01*
X011877Y005952D02*
X011877Y006424D01*
X012507Y006424D02*
X012507Y005952D01*
X014619Y006982D02*
X015092Y006982D01*
X015092Y007612D02*
X014619Y007612D01*
X014790Y007725D02*
X015262Y007725D01*
X015262Y008354D02*
X014790Y008354D01*
X015416Y012621D02*
X015889Y012621D01*
X015889Y013251D02*
X015416Y013251D01*
X012700Y014235D02*
X012700Y014708D01*
X012070Y014708D02*
X012070Y014235D01*
X011518Y014235D02*
X011518Y014707D01*
X010889Y014707D02*
X010889Y014235D01*
X008172Y013251D02*
X007700Y013251D01*
X007700Y012621D02*
X008172Y012621D01*
X008666Y007849D02*
X008363Y007487D01*
X008845Y007082D02*
X009149Y007444D01*
X008946Y006972D02*
X008643Y006610D01*
X009125Y006205D02*
X009429Y006567D01*
D15*
X008687Y005916D02*
X008611Y005981D01*
X008514Y005866D01*
X008478Y005896D02*
X008526Y005954D01*
X008523Y005989D01*
X008465Y006037D01*
X008401Y005960D01*
X008365Y005991D02*
X008288Y006055D01*
X008327Y006023D02*
X008423Y006138D01*
X008353Y006132D01*
X008562Y005923D02*
X008601Y005891D01*
X008067Y007281D02*
X008131Y007357D01*
X008162Y007394D02*
X008085Y007458D01*
X008133Y007515D01*
X008168Y007519D01*
X008226Y007470D01*
X008256Y007506D02*
X008141Y007603D01*
X008206Y007680D01*
X008231Y007593D02*
X008199Y007555D01*
X007984Y007416D02*
X008099Y007319D01*
X007990Y007345D02*
X007984Y007416D01*
X006207Y007779D02*
X006130Y007843D01*
X006033Y007728D01*
X005997Y007758D02*
X006061Y007835D01*
X006082Y007785D02*
X006120Y007753D01*
X005997Y007758D02*
X005940Y007807D01*
X005937Y007842D01*
X005985Y007899D01*
X005949Y007930D02*
X005965Y007949D01*
X005962Y007984D01*
X005923Y008016D01*
X005888Y008013D01*
X005949Y007930D02*
X005808Y007917D01*
X005884Y007853D01*
X005770Y007949D02*
X005751Y007965D01*
X005767Y007984D01*
X005786Y007968D01*
X005770Y007949D01*
X005715Y007995D02*
X005638Y008059D01*
X005779Y008072D01*
X005795Y008091D01*
X005792Y008126D01*
X005754Y008158D01*
X005719Y008155D01*
X005688Y005421D02*
X005588Y005421D01*
X005588Y005271D01*
X005540Y005271D02*
X005540Y005371D01*
X005588Y005346D02*
X005638Y005346D01*
X005540Y005271D02*
X005465Y005271D01*
X005440Y005296D01*
X005440Y005371D01*
X005393Y005396D02*
X005293Y005296D01*
X005318Y005271D01*
X005368Y005271D01*
X005393Y005296D01*
X005393Y005396D01*
X005368Y005421D01*
X005318Y005421D01*
X005293Y005396D01*
X005293Y005296D01*
X005246Y005271D02*
X005146Y005271D01*
X005196Y005271D02*
X005196Y005421D01*
X005146Y005371D01*
X004349Y002774D02*
X004349Y002674D01*
X004499Y002674D01*
X004499Y002627D02*
X004399Y002627D01*
X004424Y002674D02*
X004424Y002724D01*
X004499Y002627D02*
X004499Y002552D01*
X004474Y002527D01*
X004399Y002527D01*
X004374Y002480D02*
X004474Y002380D01*
X004499Y002405D01*
X004499Y002455D01*
X004474Y002480D01*
X004374Y002480D01*
X004349Y002455D01*
X004349Y002405D01*
X004374Y002380D01*
X004474Y002380D01*
X004499Y002332D02*
X004499Y002232D01*
X004499Y002282D02*
X004349Y002282D01*
X004399Y002232D01*
X009514Y008643D02*
X009579Y008720D01*
X009546Y008682D02*
X009431Y008778D01*
X009438Y008708D01*
X009513Y008836D02*
X009510Y008872D01*
X009542Y008910D01*
X009577Y008913D01*
X009590Y008772D01*
X009625Y008775D01*
X009657Y008814D01*
X009654Y008849D01*
X009577Y008913D01*
X009627Y008933D02*
X009684Y008885D01*
X009720Y008888D01*
X009768Y008946D01*
X009691Y009010D01*
X009741Y009030D02*
X009773Y009068D01*
X009798Y008982D02*
X009683Y009078D01*
X009748Y009155D01*
X009513Y008836D02*
X009590Y008772D01*
X010991Y006356D02*
X011041Y006280D01*
X011091Y006356D01*
X011091Y006280D02*
X010941Y006280D01*
X010966Y006233D02*
X011066Y006133D01*
X011091Y006158D01*
X011091Y006208D01*
X011066Y006233D01*
X010966Y006233D01*
X010941Y006208D01*
X010941Y006158D01*
X010966Y006133D01*
X011066Y006133D01*
X011091Y006086D02*
X011091Y005986D01*
X010991Y006086D01*
X010966Y006086D01*
X010941Y006061D01*
X010941Y006011D01*
X010966Y005986D01*
X012626Y005906D02*
X012776Y005906D01*
X012776Y005856D02*
X012776Y005956D01*
X012751Y006004D02*
X012776Y006029D01*
X012776Y006104D01*
X012676Y006104D01*
X012701Y006151D02*
X012701Y006201D01*
X012626Y006151D02*
X012626Y006251D01*
X012626Y006151D02*
X012776Y006151D01*
X012751Y006004D02*
X012676Y006004D01*
X012626Y005906D02*
X012676Y005856D01*
X012751Y005808D02*
X012776Y005808D01*
X012776Y005783D01*
X012751Y005783D01*
X012751Y005808D01*
X012751Y005735D02*
X012776Y005710D01*
X012776Y005660D01*
X012751Y005635D01*
X012651Y005735D01*
X012751Y005735D01*
X012751Y005635D02*
X012651Y005635D01*
X012626Y005660D01*
X012626Y005710D01*
X012651Y005735D01*
X014700Y006754D02*
X014800Y006754D01*
X014847Y006754D02*
X014847Y006854D01*
X014922Y006854D01*
X014947Y006829D01*
X014947Y006754D01*
X014994Y006754D02*
X014994Y006904D01*
X015094Y006904D01*
X015044Y006829D02*
X014994Y006829D01*
X014750Y006904D02*
X014750Y006754D01*
X014700Y006854D02*
X014750Y006904D01*
X014969Y008450D02*
X015069Y008450D01*
X015116Y008450D02*
X015116Y008550D01*
X015191Y008550D01*
X015216Y008525D01*
X015216Y008450D01*
X015263Y008450D02*
X015263Y008600D01*
X015363Y008600D01*
X015313Y008525D02*
X015263Y008525D01*
X015019Y008600D02*
X015019Y008450D01*
X014969Y008550D02*
X015019Y008600D01*
X017135Y007635D02*
X017132Y007600D01*
X017135Y007635D02*
X017174Y007667D01*
X017209Y007664D01*
X017225Y007645D01*
X017213Y007504D01*
X017289Y007568D01*
X017326Y007598D02*
X017345Y007614D01*
X017329Y007634D01*
X017309Y007618D01*
X017326Y007598D01*
X017382Y007646D02*
X017394Y007787D01*
X017378Y007806D01*
X017343Y007809D01*
X017305Y007777D01*
X017302Y007742D01*
X017382Y007646D02*
X017459Y007710D01*
X017479Y007760D02*
X017514Y007757D01*
X017571Y007805D01*
X017507Y007881D01*
X017559Y007893D02*
X017598Y007925D01*
X017588Y008014D02*
X017511Y007950D01*
X017608Y007835D01*
X017479Y007760D02*
X017430Y007817D01*
X016422Y013292D02*
X016422Y013442D01*
X016522Y013442D01*
X016472Y013367D02*
X016422Y013367D01*
X016375Y013392D02*
X016375Y013292D01*
X016300Y013292D01*
X016275Y013317D01*
X016275Y013392D01*
X016227Y013392D02*
X016227Y013417D01*
X016202Y013442D01*
X016152Y013442D01*
X016127Y013417D01*
X016080Y013417D02*
X016055Y013442D01*
X016005Y013442D01*
X015980Y013417D01*
X016080Y013417D02*
X016080Y013392D01*
X015980Y013292D01*
X016080Y013292D01*
X016127Y013292D02*
X016227Y013392D01*
X016227Y013292D02*
X016127Y013292D01*
X015931Y013292D02*
X015906Y013292D01*
X015906Y013317D01*
X015931Y013317D01*
X015931Y013292D01*
X017633Y013877D02*
X017774Y013864D01*
X017793Y013881D01*
X017796Y013916D01*
X017764Y013954D01*
X017729Y013957D01*
X017633Y013877D02*
X017697Y013800D01*
X017728Y013764D02*
X017744Y013745D01*
X017763Y013761D01*
X017747Y013780D01*
X017728Y013764D01*
X017775Y013708D02*
X017916Y013695D01*
X017935Y013711D01*
X017938Y013747D01*
X017906Y013785D01*
X017871Y013788D01*
X017775Y013708D02*
X017839Y013631D01*
X017889Y013611D02*
X017886Y013576D01*
X017934Y013518D01*
X018011Y013582D01*
X018022Y013530D02*
X018054Y013492D01*
X018079Y013578D02*
X018144Y013502D01*
X018079Y013578D02*
X017964Y013482D01*
X017889Y013611D02*
X017946Y013659D01*
X012763Y015376D02*
X012663Y015376D01*
X012663Y015226D01*
X012616Y015226D02*
X012616Y015326D01*
X012663Y015301D02*
X012713Y015301D01*
X012616Y015226D02*
X012541Y015226D01*
X012516Y015251D01*
X012516Y015326D01*
X012468Y015326D02*
X012468Y015351D01*
X012443Y015376D01*
X012393Y015376D01*
X012368Y015351D01*
X012321Y015351D02*
X012296Y015376D01*
X012246Y015376D01*
X012221Y015351D01*
X012321Y015351D02*
X012321Y015326D01*
X012221Y015226D01*
X012321Y015226D01*
X012368Y015226D02*
X012468Y015326D01*
X012468Y015226D02*
X012368Y015226D01*
X012172Y015226D02*
X012147Y015226D01*
X012147Y015251D01*
X012172Y015251D01*
X012172Y015226D01*
X011542Y015376D02*
X011442Y015376D01*
X011442Y015226D01*
X011395Y015226D02*
X011395Y015326D01*
X011442Y015301D02*
X011492Y015301D01*
X011395Y015226D02*
X011320Y015226D01*
X011295Y015251D01*
X011295Y015326D01*
X011248Y015326D02*
X011248Y015351D01*
X011223Y015376D01*
X011173Y015376D01*
X011147Y015351D01*
X011100Y015351D02*
X011075Y015376D01*
X011025Y015376D01*
X011000Y015351D01*
X011100Y015351D02*
X011100Y015326D01*
X011000Y015226D01*
X011100Y015226D01*
X011147Y015226D02*
X011248Y015326D01*
X011248Y015226D02*
X011147Y015226D01*
X010952Y015226D02*
X010927Y015226D01*
X010927Y015251D01*
X010952Y015251D01*
X010952Y015226D01*
X007527Y013447D02*
X007427Y013447D01*
X007427Y013296D01*
X007380Y013296D02*
X007380Y013397D01*
X007427Y013372D02*
X007477Y013372D01*
X007380Y013296D02*
X007304Y013296D01*
X007279Y013322D01*
X007279Y013397D01*
X007232Y013397D02*
X007232Y013422D01*
X007207Y013447D01*
X007157Y013447D01*
X007132Y013422D01*
X007085Y013422D02*
X007060Y013447D01*
X007010Y013447D01*
X006985Y013422D01*
X007085Y013422D02*
X007085Y013397D01*
X006985Y013296D01*
X007085Y013296D01*
X007132Y013296D02*
X007232Y013397D01*
X007232Y013296D02*
X007132Y013296D01*
X006936Y013296D02*
X006911Y013296D01*
X006911Y013322D01*
X006936Y013322D01*
X006936Y013296D01*
X005923Y013945D02*
X005808Y014041D01*
X005872Y014118D01*
X005898Y014031D02*
X005865Y013993D01*
X005816Y013973D02*
X005892Y013909D01*
X005844Y013851D01*
X005809Y013848D01*
X005751Y013896D01*
X005721Y013860D02*
X005702Y013876D01*
X005667Y013873D01*
X005635Y013835D01*
X005638Y013799D01*
X005721Y013860D02*
X005733Y013719D01*
X005798Y013796D01*
X005702Y013682D02*
X005686Y013663D01*
X005667Y013679D01*
X005683Y013698D01*
X005702Y013682D01*
X005656Y013626D02*
X005591Y013550D01*
X005579Y013691D01*
X005560Y013707D01*
X005525Y013704D01*
X005492Y013665D01*
X005496Y013630D01*
X009711Y002969D02*
X009761Y002969D01*
X009786Y002944D01*
X009686Y002844D01*
X009711Y002819D01*
X009761Y002819D01*
X009786Y002844D01*
X009786Y002944D01*
X009711Y002969D02*
X009686Y002944D01*
X009686Y002844D01*
X009833Y002844D02*
X009858Y002844D01*
X009858Y002819D01*
X009833Y002819D01*
X009833Y002844D01*
X009907Y002819D02*
X010007Y002819D01*
X009957Y002819D02*
X009957Y002969D01*
X009907Y002919D01*
X010054Y002919D02*
X010054Y002844D01*
X010079Y002819D01*
X010154Y002819D01*
X010154Y002919D01*
X010201Y002894D02*
X010251Y002894D01*
X010201Y002819D02*
X010201Y002969D01*
X010302Y002969D01*
X002858Y027100D02*
X002758Y027200D01*
X002858Y027200D01*
X002883Y027175D01*
X002883Y027125D01*
X002858Y027100D01*
X002758Y027100D01*
X002733Y027125D01*
X002733Y027175D01*
X002758Y027200D01*
X002858Y027247D02*
X002858Y027272D01*
X002883Y027272D01*
X002883Y027247D01*
X002858Y027247D01*
X002883Y027321D02*
X002883Y027421D01*
X002883Y027371D02*
X002733Y027371D01*
X002783Y027321D01*
X003194Y028436D02*
X003169Y028461D01*
X003169Y028512D01*
X003194Y028537D01*
X003295Y028436D01*
X003320Y028461D01*
X003320Y028512D01*
X003295Y028537D01*
X003194Y028537D01*
X003194Y028436D02*
X003295Y028436D01*
X003295Y028584D02*
X003295Y028609D01*
X003320Y028609D01*
X003320Y028584D01*
X003295Y028584D01*
X003320Y028657D02*
X003320Y028758D01*
X003320Y028708D02*
X003169Y028708D01*
X003219Y028657D01*
X020298Y028737D02*
X020448Y028737D01*
X020448Y028687D02*
X020448Y028787D01*
X020348Y028687D02*
X020298Y028737D01*
X020423Y028639D02*
X020448Y028639D01*
X020448Y028614D01*
X020423Y028614D01*
X020423Y028639D01*
X020423Y028566D02*
X020448Y028541D01*
X020448Y028491D01*
X020423Y028466D01*
X020323Y028566D01*
X020423Y028566D01*
X020423Y028466D02*
X020323Y028466D01*
X020298Y028491D01*
X020298Y028541D01*
X020323Y028566D01*
X020656Y027535D02*
X020806Y027535D01*
X020806Y027485D02*
X020806Y027585D01*
X020706Y027485D02*
X020656Y027535D01*
X020781Y027437D02*
X020806Y027437D01*
X020806Y027412D01*
X020781Y027412D01*
X020781Y027437D01*
X020781Y027364D02*
X020806Y027339D01*
X020806Y027289D01*
X020781Y027264D01*
X020681Y027364D01*
X020781Y027364D01*
X020781Y027264D02*
X020681Y027264D01*
X020656Y027289D01*
X020656Y027339D01*
X020681Y027364D01*
D16*
X012857Y012818D02*
X011991Y012818D01*
X011599Y012818D02*
X010732Y012818D01*
X010218Y012385D02*
X009352Y012385D01*
X013369Y012385D02*
X014235Y012385D01*
D17*
X011778Y016408D02*
X013117Y017078D01*
X012172Y018731D01*
X015164Y020463D01*
X016109Y018810D01*
X017526Y019597D01*
X017763Y022904D01*
X017487Y026211D01*
X016109Y026999D01*
X015164Y025345D01*
X012172Y027078D01*
X013117Y028731D01*
X011778Y029479D01*
X010440Y028692D01*
X011385Y027038D01*
X008393Y025306D01*
X007408Y026999D01*
X006030Y026211D01*
X005755Y022904D01*
X006030Y019597D01*
X007408Y018889D01*
X008353Y020503D01*
X011424Y018731D01*
X010479Y017078D01*
X011778Y016408D01*
M02*
