%
M48
M72
T01C0.0157
T02C0.0236
T03C0.0400
%
T01
X6873Y5062
X7542Y6794
X8054Y6912
X8211Y6400
X9274Y5889
X9550Y6440
X9826Y6715
X9708Y5889
X10692Y5219
X11007Y5534
X11046Y6558
X11125Y7463
X10180Y7621
X10176Y8172
X9629Y7975
X9314Y8172
X8999Y9078
X8211Y7818
X9274Y3999
X9708Y3999
X9826Y3369
X11873Y6125
X12684Y6538
X12483Y7452
X13841Y6164
X14235Y6164
X14550Y5023
X14865Y4747
X15180Y5023
X16204Y4589
X16164Y4235
X16755Y4235
X16755Y4589
X17621Y5731
X18408Y3290
X19393Y5731
X20101Y3290
X15967Y8211
X15180Y8763
X14865Y9038
X14550Y9589
X14235Y8526
X13960Y8251
X15771Y7149
X13802Y4432
X14550Y3645
X12818Y4078
T02
X12566Y8987
X12172Y8987
X12211Y9381
X11818Y9381
X11778Y9774
X11385Y9774
X10991Y9774
X11030Y9381
X11424Y9381
X11385Y8987
X11778Y8987
X10991Y8987
X10755Y10168
X10322Y10286
X9889Y10365
X7503Y7463
X7385Y7818
X7109Y7542
X5652Y8999
X5534Y9432
X5180Y9078
X3330Y9078
X3015Y9353
X3015Y8802
X5219Y12267
X5219Y12660
X5613Y12345
X6164Y14274
X6400Y14629
X6676Y14944
X8487Y18960
X8330Y19393
X8802Y19471
X8605Y19904
X10062Y18369
X10219Y17936
X10534Y18448
X10337Y18881
X12897Y18684
X13330Y18605
X13211Y18133
X13645Y18093
X14589Y19629
X15023Y19589
X14904Y19117
X15337Y19038
X16873Y14944
X17149Y14668
X17385Y14353
X18325Y12679
X18334Y12278
X17946Y12346
X18133Y9353
X18369Y9078
X17975Y8999
X16519Y7503
X16125Y7463
X16243Y7818
X13708Y10365
X13274Y10286
X12841Y10168
X12566Y9774
X12172Y9774
X12605Y9381
X20259Y9078
X20574Y9353
X20574Y8763
X20613Y14471
X20613Y14865
X20259Y14668
X14865Y26007
X14668Y26440
X15180Y26558
X15023Y26991
X13526Y27503
X13369Y27936
X13054Y27385
X13211Y26952
X10534Y27306
X10377Y26873
X10023Y27463
X10219Y27897
X8881Y26361
X8723Y25928
X8448Y26440
X8566Y26873
X3054Y14944
X3369Y14629
X3054Y14314
X5062Y3920
T03
X3634Y2897
X3734Y3897
X3634Y4897
X3734Y5897
X3634Y6897
X3734Y7897
M30
