G75*
G70*
%OFA0B0*%
%FSLAX24Y24*%
%IPPOS*%
%LPD*%
%AMOC8*
5,1,8,0,0,1.08239X$1,22.5*
%
%ADD10C,0.0000*%
%ADD11R,0.2068X0.1280*%
%ADD12R,0.0316X0.0138*%
%ADD13R,0.0138X0.0316*%
%ADD14R,0.0512X0.0512*%
%ADD15R,0.0670X0.0827*%
%ADD16R,0.0512X0.0512*%
%ADD17R,0.0611X0.0197*%
%ADD18R,0.2402X0.0906*%
%ADD19R,0.0749X0.0985*%
%ADD20C,0.0004*%
%ADD21R,0.0670X0.0631*%
%ADD22C,0.0780*%
%ADD23R,0.0946X0.0414*%
%ADD24R,0.0788X0.1320*%
%ADD25R,0.0985X0.0749*%
%ADD26C,0.0985*%
D10*
X001952Y001385D02*
X001952Y030747D01*
X001954Y030769D01*
X001959Y030791D01*
X001967Y030811D01*
X001979Y030830D01*
X001994Y030847D01*
X002011Y030862D01*
X002030Y030874D01*
X002050Y030882D01*
X002072Y030887D01*
X002094Y030889D01*
X009960Y030889D01*
X009982Y030887D01*
X010004Y030882D01*
X010024Y030874D01*
X010043Y030862D01*
X010060Y030848D01*
X010074Y030831D01*
X010086Y030812D01*
X010095Y030792D01*
X010094Y030792D02*
X010456Y029708D01*
X013093Y029708D01*
X013413Y030773D01*
X013421Y030794D01*
X013432Y030814D01*
X013446Y030833D01*
X013462Y030849D01*
X013481Y030863D01*
X013501Y030873D01*
X013523Y030881D01*
X013545Y030886D01*
X013568Y030888D01*
X013568Y030889D02*
X021474Y030889D01*
X021474Y030888D02*
X021497Y030886D01*
X021520Y030881D01*
X021541Y030873D01*
X021562Y030862D01*
X021580Y030848D01*
X021596Y030832D01*
X021610Y030814D01*
X021621Y030793D01*
X021629Y030772D01*
X021634Y030749D01*
X021636Y030726D01*
X021637Y030726D02*
X021637Y001405D01*
X021636Y001405D02*
X021634Y001382D01*
X021629Y001359D01*
X021621Y001338D01*
X021610Y001317D01*
X021596Y001299D01*
X021580Y001283D01*
X021562Y001269D01*
X021541Y001258D01*
X021520Y001250D01*
X021497Y001245D01*
X021474Y001243D01*
X002094Y001243D01*
X002072Y001245D01*
X002050Y001250D01*
X002030Y001258D01*
X002011Y001270D01*
X001994Y001285D01*
X001979Y001302D01*
X001967Y001321D01*
X001959Y001341D01*
X001954Y001363D01*
X001952Y001385D01*
D11*
X011794Y010377D03*
D12*
X010456Y010377D03*
X010456Y010574D03*
X010456Y010771D03*
X010456Y010967D03*
X010456Y010180D03*
X010456Y009983D03*
X010456Y009786D03*
X013133Y009786D03*
X013133Y009983D03*
X013133Y010180D03*
X013133Y010377D03*
X013133Y010574D03*
X013133Y010771D03*
X013133Y010967D03*
D13*
X012877Y011322D03*
X012680Y011322D03*
X012483Y011322D03*
X012286Y011322D03*
X012089Y011322D03*
X011893Y011322D03*
X011696Y011322D03*
X011499Y011322D03*
X011302Y011322D03*
X011105Y011322D03*
X010908Y011322D03*
X010711Y011322D03*
X010711Y009432D03*
X010908Y009432D03*
X011105Y009432D03*
X011302Y009432D03*
X011499Y009432D03*
X011696Y009432D03*
X011893Y009432D03*
X012089Y009432D03*
X012286Y009432D03*
X012483Y009432D03*
X012680Y009432D03*
X012877Y009432D03*
D14*
X012192Y007605D03*
X011530Y007601D03*
X011530Y006814D03*
X012192Y006818D03*
X010219Y005180D03*
X010219Y004393D03*
X014462Y008320D03*
X014632Y009063D03*
X015249Y008320D03*
X015420Y009063D03*
X017621Y006282D03*
X018408Y006282D03*
X019393Y006282D03*
X020180Y006282D03*
X020101Y003841D03*
X019314Y003841D03*
X018408Y003841D03*
X017621Y003841D03*
X016046Y013960D03*
X015259Y013960D03*
X012385Y015101D03*
X012385Y015889D03*
X011203Y015888D03*
X011203Y015101D03*
X008330Y013960D03*
X007542Y013960D03*
D15*
X009785Y013920D03*
X009785Y012306D03*
G36*
X008853Y010624D02*
X009283Y011138D01*
X009915Y010608D01*
X009485Y010094D01*
X008853Y010624D01*
G37*
G36*
X007942Y009538D02*
X008372Y010052D01*
X009004Y009522D01*
X008574Y009008D01*
X007942Y009538D01*
G37*
X011165Y012739D03*
X011165Y014353D03*
X012424Y014353D03*
X012424Y012739D03*
X013802Y012306D03*
X013802Y013920D03*
D16*
G36*
X009649Y007945D02*
X009320Y007554D01*
X008929Y007883D01*
X009258Y008274D01*
X009649Y007945D01*
G37*
G36*
X008649Y008760D02*
X008978Y009151D01*
X009369Y008822D01*
X009040Y008431D01*
X008649Y008760D01*
G37*
G36*
X008143Y008157D02*
X008472Y008548D01*
X008863Y008219D01*
X008534Y007828D01*
X008143Y008157D01*
G37*
G36*
X009143Y007342D02*
X008814Y006951D01*
X008423Y007280D01*
X008752Y007671D01*
X009143Y007342D01*
G37*
D17*
X010928Y005121D03*
X010928Y004865D03*
X010928Y004609D03*
X010928Y004353D03*
X010928Y004097D03*
X010928Y003841D03*
X010928Y003586D03*
X013369Y003586D03*
X013369Y003841D03*
X013369Y004097D03*
X013369Y004353D03*
X013369Y004609D03*
X013369Y004865D03*
X013369Y005121D03*
D18*
G36*
X014910Y012065D02*
X016453Y010226D01*
X015758Y009643D01*
X014215Y011482D01*
X014910Y012065D01*
G37*
X014550Y014865D03*
X014550Y017542D03*
G36*
X016961Y013786D02*
X018504Y011947D01*
X017809Y011364D01*
X016266Y013203D01*
X016961Y013786D01*
G37*
X008999Y014866D03*
X008999Y017543D03*
G36*
X005044Y011909D02*
X006587Y013748D01*
X007282Y013165D01*
X005739Y011326D01*
X005044Y011909D01*
G37*
G36*
X007095Y010188D02*
X008638Y012027D01*
X009333Y011444D01*
X007790Y009605D01*
X007095Y010188D01*
G37*
D19*
G36*
X006875Y009628D02*
X007448Y009147D01*
X006817Y008394D01*
X006244Y008875D01*
X006875Y009628D01*
G37*
G36*
X005971Y010387D02*
X006544Y009906D01*
X005913Y009153D01*
X005340Y009634D01*
X005971Y010387D01*
G37*
G36*
X006481Y014012D02*
X006000Y013439D01*
X005247Y014070D01*
X005728Y014643D01*
X006481Y014012D01*
G37*
G36*
X007240Y014917D02*
X006759Y014344D01*
X006006Y014975D01*
X006487Y015548D01*
X007240Y014917D01*
G37*
X006046Y005771D03*
X004865Y005771D03*
G36*
X017372Y008848D02*
X016799Y008367D01*
X016168Y009120D01*
X016741Y009601D01*
X017372Y008848D01*
G37*
G36*
X018277Y009607D02*
X017704Y009126D01*
X017073Y009879D01*
X017646Y010360D01*
X018277Y009607D01*
G37*
G36*
X017847Y014656D02*
X018328Y014083D01*
X017575Y013452D01*
X017094Y014025D01*
X017847Y014656D01*
G37*
G36*
X017088Y015561D02*
X017569Y014988D01*
X016816Y014357D01*
X016335Y014930D01*
X017088Y015561D01*
G37*
X018920Y028408D03*
X018527Y029668D03*
X019708Y029668D03*
X020101Y028408D03*
X005061Y029627D03*
X004669Y028370D03*
X003880Y029627D03*
X003488Y028370D03*
D20*
X006030Y027235D02*
X005755Y023928D01*
X006030Y020621D01*
X007408Y019912D01*
X008353Y021526D01*
X011424Y019755D01*
X010479Y018101D01*
X011778Y017432D01*
X013117Y018101D01*
X012172Y019755D01*
X015164Y021487D01*
X016109Y019834D01*
X017526Y020621D01*
X017763Y023928D01*
X017487Y027235D01*
X016109Y028023D01*
X015164Y026369D01*
X012172Y028101D01*
X013117Y029755D01*
X011778Y030503D01*
X010440Y029715D01*
X011385Y028062D01*
X008393Y026330D01*
X007408Y028023D01*
X006030Y027235D01*
D21*
X018054Y007582D03*
X018054Y005141D03*
X019747Y005141D03*
X019826Y007582D03*
D22*
X012314Y002650D03*
X011314Y002750D03*
X010314Y002650D03*
X009314Y002750D03*
X003634Y003920D03*
X003734Y004920D03*
X003634Y005920D03*
X003734Y006920D03*
X003634Y007920D03*
X003734Y008920D03*
D23*
X006282Y004944D03*
X006282Y004038D03*
X006282Y003133D03*
D24*
X008487Y004038D03*
D25*
X005023Y004196D03*
X005023Y003015D03*
D26*
X015771Y002463D03*
X015771Y003723D03*
M02*
