G75*
G70*
%OFA0B0*%
%FSLAX24Y24*%
%IPPOS*%
%LPD*%
%AMOC8*
5,1,8,0,0,1.08239X$1,22.5*
%
%ADD10C,0.0000*%
%ADD11R,0.2068X0.1280*%
%ADD12R,0.0316X0.0138*%
%ADD13R,0.0138X0.0316*%
%ADD14R,0.0512X0.0512*%
%ADD15R,0.0670X0.0827*%
%ADD16R,0.0512X0.0512*%
%ADD17R,0.0611X0.0197*%
%ADD18R,0.2402X0.0906*%
%ADD19R,0.0749X0.0985*%
%ADD20C,0.0004*%
%ADD21R,0.0670X0.0631*%
%ADD22C,0.0780*%
%ADD23R,0.0946X0.0414*%
%ADD24R,0.0788X0.1320*%
%ADD25R,0.0985X0.0749*%
D10*
X001952Y001243D02*
X001952Y029865D01*
X021637Y029865D01*
X021637Y001243D01*
X001952Y001243D01*
D11*
X011794Y009353D03*
D12*
X010456Y009353D03*
X010456Y009156D03*
X010456Y008960D03*
X010456Y008763D03*
X010456Y009550D03*
X010456Y009747D03*
X010456Y009944D03*
X013133Y009944D03*
X013133Y009747D03*
X013133Y009550D03*
X013133Y009353D03*
X013133Y009156D03*
X013133Y008960D03*
X013133Y008763D03*
D13*
X012877Y008408D03*
X012680Y008408D03*
X012483Y008408D03*
X012286Y008408D03*
X012089Y008408D03*
X011893Y008408D03*
X011696Y008408D03*
X011499Y008408D03*
X011302Y008408D03*
X011105Y008408D03*
X010908Y008408D03*
X010711Y008408D03*
X010711Y010298D03*
X010908Y010298D03*
X011105Y010298D03*
X011302Y010298D03*
X011499Y010298D03*
X011696Y010298D03*
X011893Y010298D03*
X012089Y010298D03*
X012286Y010298D03*
X012483Y010298D03*
X012680Y010298D03*
X012877Y010298D03*
D14*
X014632Y008040D03*
X014462Y007297D03*
X015249Y007297D03*
X015420Y008040D03*
X017621Y005259D03*
X018408Y005259D03*
X019393Y005259D03*
X020180Y005259D03*
X020101Y002818D03*
X019314Y002818D03*
X018408Y002818D03*
X017621Y002818D03*
X012192Y005794D03*
X011530Y005790D03*
X011530Y006578D03*
X012192Y006582D03*
X010219Y004156D03*
X010219Y003369D03*
X008330Y012936D03*
X007542Y012936D03*
X011203Y014077D03*
X011203Y014865D03*
X012385Y014865D03*
X012385Y014078D03*
X015259Y012936D03*
X016046Y012936D03*
D15*
X013802Y012897D03*
X013802Y011282D03*
X012424Y011715D03*
X012424Y013330D03*
X011165Y013330D03*
X011165Y011715D03*
X009785Y011282D03*
X009785Y012896D03*
G36*
X008853Y009600D02*
X009283Y010114D01*
X009915Y009584D01*
X009485Y009070D01*
X008853Y009600D01*
G37*
G36*
X007942Y008514D02*
X008372Y009028D01*
X009004Y008498D01*
X008574Y007984D01*
X007942Y008514D01*
G37*
D16*
G36*
X008143Y007133D02*
X008472Y007524D01*
X008863Y007195D01*
X008534Y006804D01*
X008143Y007133D01*
G37*
G36*
X009143Y006318D02*
X008814Y005927D01*
X008423Y006256D01*
X008752Y006647D01*
X009143Y006318D01*
G37*
G36*
X009649Y006921D02*
X009320Y006530D01*
X008929Y006859D01*
X009258Y007250D01*
X009649Y006921D01*
G37*
G36*
X008649Y007736D02*
X008978Y008127D01*
X009369Y007798D01*
X009040Y007407D01*
X008649Y007736D01*
G37*
D17*
X010928Y004097D03*
X010928Y003841D03*
X010928Y003586D03*
X010928Y003330D03*
X010928Y003074D03*
X010928Y002818D03*
X010928Y002562D03*
X013369Y002562D03*
X013369Y002818D03*
X013369Y003074D03*
X013369Y003330D03*
X013369Y003586D03*
X013369Y003841D03*
X013369Y004097D03*
D18*
G36*
X014910Y011041D02*
X016453Y009202D01*
X015758Y008619D01*
X014215Y010458D01*
X014910Y011041D01*
G37*
X014550Y013841D03*
X014550Y016519D03*
G36*
X016961Y012762D02*
X018504Y010923D01*
X017809Y010340D01*
X016266Y012179D01*
X016961Y012762D01*
G37*
X008999Y013843D03*
X008999Y016520D03*
G36*
X005044Y010885D02*
X006587Y012724D01*
X007282Y012141D01*
X005739Y010302D01*
X005044Y010885D01*
G37*
G36*
X007095Y009164D02*
X008638Y011003D01*
X009333Y010420D01*
X007790Y008581D01*
X007095Y009164D01*
G37*
D19*
G36*
X006875Y008604D02*
X007448Y008123D01*
X006817Y007370D01*
X006244Y007851D01*
X006875Y008604D01*
G37*
G36*
X005971Y009364D02*
X006544Y008883D01*
X005913Y008130D01*
X005340Y008611D01*
X005971Y009364D01*
G37*
G36*
X006481Y012988D02*
X006000Y012415D01*
X005247Y013046D01*
X005728Y013619D01*
X006481Y012988D01*
G37*
G36*
X007240Y013893D02*
X006759Y013320D01*
X006006Y013951D01*
X006487Y014524D01*
X007240Y013893D01*
G37*
X006046Y004747D03*
X004865Y004747D03*
G36*
X017372Y007824D02*
X016799Y007343D01*
X016168Y008096D01*
X016741Y008577D01*
X017372Y007824D01*
G37*
G36*
X018277Y008584D02*
X017704Y008103D01*
X017073Y008856D01*
X017646Y009337D01*
X018277Y008584D01*
G37*
G36*
X017847Y013632D02*
X018328Y013059D01*
X017575Y012428D01*
X017094Y013001D01*
X017847Y013632D01*
G37*
G36*
X017088Y014537D02*
X017569Y013964D01*
X016816Y013333D01*
X016335Y013906D01*
X017088Y014537D01*
G37*
X018920Y027385D03*
X018527Y028644D03*
X019708Y028644D03*
X020101Y027385D03*
X005061Y028603D03*
X004669Y027347D03*
X003880Y028603D03*
X003488Y027347D03*
D20*
X006030Y026211D02*
X005755Y022904D01*
X006030Y019597D01*
X007408Y018889D01*
X008353Y020503D01*
X011424Y018731D01*
X010479Y017078D01*
X011778Y016408D01*
X013117Y017078D01*
X012172Y018731D01*
X015164Y020463D01*
X016109Y018810D01*
X017526Y019597D01*
X017763Y022904D01*
X017487Y026211D01*
X016109Y026999D01*
X015164Y025345D01*
X012172Y027078D01*
X013117Y028731D01*
X011778Y029479D01*
X010440Y028692D01*
X011385Y027038D01*
X008393Y025306D01*
X007408Y026999D01*
X006030Y026211D01*
D21*
X018054Y006558D03*
X018054Y004117D03*
X019747Y004117D03*
X019826Y006558D03*
D22*
X003734Y005897D03*
X003634Y006897D03*
X003734Y007897D03*
X003634Y004897D03*
X003734Y003897D03*
X003634Y002897D03*
D23*
X006282Y003015D03*
X006282Y003920D03*
X006282Y002109D03*
D24*
X008487Y003015D03*
D25*
X005023Y003172D03*
X005023Y001991D03*
M02*
