%
M48
M72
T01C0.0157
T02C0.0236
T03C0.0400
T04C0.0630
%
T01
X6873Y6086
X7542Y7818
X8054Y7936
X8211Y7424
X8211Y8841
X8999Y10101
X9314Y9196
X9629Y8999
X10176Y9196
X10180Y8645
X11125Y8487
X11046Y7582
X11007Y6558
X10692Y6243
X9708Y6912
X9274Y6912
X9550Y7463
X9826Y7739
X9708Y5023
X9274Y5023
X9826Y4393
X11597Y4865
X12818Y5101
X13802Y5456
X14550Y6046
X14865Y5771
X15180Y6046
X14235Y7188
X13841Y7188
X12684Y7562
X12483Y8475
X11873Y7149
X13960Y9274
X14235Y9550
X14865Y10062
X15180Y9786
X14550Y10613
X15967Y9235
X15771Y8172
X17621Y6755
X16755Y5613
X16755Y5259
X16164Y5259
X16204Y5613
X14550Y4668
X18408Y4314
X19393Y6755
X20101Y4314
T02
X20574Y9786
X20259Y10101
X20574Y10377
X18369Y10101
X18133Y10377
X17975Y10023
X16519Y8526
X16125Y8487
X16243Y8841
X13708Y11389
X13274Y11310
X12841Y11192
X12566Y10798
X12172Y10798
X12211Y10404
X11818Y10404
X11778Y10011
X11385Y10011
X10991Y10011
X11030Y10404
X11424Y10404
X11385Y10798
X11778Y10798
X10991Y10798
X10755Y11192
X10322Y11310
X9889Y11389
X7503Y8487
X7385Y8841
X7109Y8566
X5652Y10023
X5534Y10456
X5180Y10101
X3330Y10101
X3015Y9826
X3015Y10377
X5219Y13290
X5219Y13684
X5613Y13369
X6164Y15298
X6400Y15652
X6676Y15967
X8487Y19983
X8330Y20416
X8802Y20495
X8605Y20928
X10062Y19393
X10219Y18960
X10534Y19471
X10337Y19904
X12897Y19708
X13330Y19629
X13211Y19156
X13645Y19117
X14589Y20652
X14904Y20141
X15023Y20613
X15337Y20062
X16873Y15967
X17149Y15692
X17385Y15377
X18325Y13703
X18334Y13302
X17946Y13370
X20259Y15692
X20613Y15889
X20613Y15495
X14865Y27030
X14668Y27463
X15180Y27582
X15023Y28015
X13526Y28526
X13211Y27975
X13054Y28408
X13369Y28960
X10534Y28330
X10377Y27897
X10023Y28487
X10219Y28920
X8881Y27385
X8723Y26952
X8448Y27463
X8566Y27897
X3054Y15967
X3369Y15652
X3054Y15337
X5062Y4944
X12172Y10011
X12566Y10011
X12605Y10404
T03
X3634Y3920
X3734Y4920
X3634Y5920
X3734Y6920
X3634Y7920
X3734Y8920
X9314Y2750
X10314Y2650
X11314Y2750
X12314Y2650
T04
X15771Y2463
X15771Y3723
M30
